G04*
G04 #@! TF.GenerationSoftware,Altium Limited,Altium Designer,24.2.2 (26)*
G04*
G04 Layer_Color=8421504*
%FSLAX44Y44*%
%MOMM*%
G71*
G04*
G04 #@! TF.SameCoordinates,32683A2E-CEC5-46B4-BDA2-C12D6267EED3*
G04*
G04*
G04 #@! TF.FilePolarity,Positive*
G04*
G01*
G75*
%ADD15R,0.9000X0.8000*%
%ADD16R,0.5000X0.6000*%
%ADD17R,0.6500X1.5000*%
%ADD18R,1.4000X0.3000*%
%ADD19R,1.4300X0.9400*%
%ADD20R,0.6800X1.8000*%
%ADD21R,1.8000X0.6800*%
%ADD22R,0.8000X0.9000*%
%ADD23R,0.6000X0.5000*%
%ADD24R,0.5725X0.6153*%
%ADD25R,1.5000X0.6500*%
%ADD26R,0.6153X0.5725*%
D15*
X-39370Y167020D02*
D03*
Y153020D02*
D03*
X178308Y-10780D02*
D03*
Y-24780D02*
D03*
X178308Y9510D02*
D03*
Y23510D02*
D03*
D16*
X-21590Y162480D02*
D03*
Y152480D02*
D03*
X-292100Y215980D02*
D03*
Y225980D02*
D03*
X159258Y-10160D02*
D03*
Y-20160D02*
D03*
X159258Y7700D02*
D03*
Y17700D02*
D03*
X43180Y19224D02*
D03*
Y9224D02*
D03*
X-17018Y-77390D02*
D03*
Y-67390D02*
D03*
X-143510Y160020D02*
D03*
Y150020D02*
D03*
X-170180Y218360D02*
D03*
Y208360D02*
D03*
X-260350Y97870D02*
D03*
Y107870D02*
D03*
X-199390Y97870D02*
D03*
Y107870D02*
D03*
X-177800Y133430D02*
D03*
Y143430D02*
D03*
X-44958Y4144D02*
D03*
Y14144D02*
D03*
X-165608Y18890D02*
D03*
Y8890D02*
D03*
D17*
X-125730Y181940D02*
D03*
X-113030D02*
D03*
X-100330D02*
D03*
X-87630D02*
D03*
Y127940D02*
D03*
X-100330D02*
D03*
X-113030D02*
D03*
X-125730D02*
D03*
D18*
X-251870Y125890D02*
D03*
Y130890D02*
D03*
Y135890D02*
D03*
Y140890D02*
D03*
Y145890D02*
D03*
X-207870D02*
D03*
Y140890D02*
D03*
Y135890D02*
D03*
Y130890D02*
D03*
Y125890D02*
D03*
D19*
X-271780Y212780D02*
D03*
Y229180D02*
D03*
X-241300Y90860D02*
D03*
Y107260D02*
D03*
X-217170Y90860D02*
D03*
Y107260D02*
D03*
D20*
X87376Y28000D02*
D03*
X100076D02*
D03*
X112776D02*
D03*
Y-28000D02*
D03*
X100076D02*
D03*
X87376D02*
D03*
X-112776Y28000D02*
D03*
X-100076D02*
D03*
X-87376D02*
D03*
Y-28000D02*
D03*
X-100076D02*
D03*
X-112776D02*
D03*
D21*
X128076Y19050D02*
D03*
Y6350D02*
D03*
Y-6350D02*
D03*
Y-19050D02*
D03*
X72076D02*
D03*
Y-6350D02*
D03*
Y6350D02*
D03*
Y19050D02*
D03*
X-72076D02*
D03*
Y6350D02*
D03*
Y-6350D02*
D03*
Y-19050D02*
D03*
X-128076D02*
D03*
Y-6350D02*
D03*
Y6350D02*
D03*
Y19050D02*
D03*
D22*
X101488Y-74930D02*
D03*
X87488D02*
D03*
X142128Y74930D02*
D03*
X128128D02*
D03*
X-192420Y166370D02*
D03*
X-178420D02*
D03*
X-192420Y184150D02*
D03*
X-178420D02*
D03*
X-85486Y71374D02*
D03*
X-71486D02*
D03*
X-32116Y31750D02*
D03*
X-46116D02*
D03*
X-88788Y-74676D02*
D03*
X-74788D02*
D03*
X-118984Y-73660D02*
D03*
X-132984D02*
D03*
D23*
X98218Y-55880D02*
D03*
X88218D02*
D03*
X138858Y57150D02*
D03*
X128858D02*
D03*
X-141050Y222250D02*
D03*
X-151050D02*
D03*
X-151050Y208280D02*
D03*
X-141050D02*
D03*
X-224710Y189230D02*
D03*
X-214710D02*
D03*
X-290750Y177800D02*
D03*
X-280750D02*
D03*
X-290750Y162560D02*
D03*
X-280750D02*
D03*
X-290830Y147320D02*
D03*
X-280830D02*
D03*
X-290750Y132080D02*
D03*
X-280750D02*
D03*
X-290670Y116840D02*
D03*
X-280670D02*
D03*
X-161130Y130810D02*
D03*
X-151130D02*
D03*
X-124300Y107950D02*
D03*
X-114300D02*
D03*
X-75010Y104140D02*
D03*
X-85010D02*
D03*
X-75010Y88900D02*
D03*
X-85010D02*
D03*
X-82216Y55626D02*
D03*
X-72216D02*
D03*
X-82978Y-56388D02*
D03*
X-72978D02*
D03*
X-117682Y-55626D02*
D03*
X-127682D02*
D03*
D24*
X-144780Y184626D02*
D03*
Y176054D02*
D03*
D25*
X-192710Y245110D02*
D03*
Y232410D02*
D03*
Y219710D02*
D03*
Y207010D02*
D03*
X-246710D02*
D03*
Y219710D02*
D03*
Y232410D02*
D03*
Y245110D02*
D03*
D26*
X-123666Y91440D02*
D03*
X-115094D02*
D03*
M02*
