M48
;Layer_Color=9474304
;FILE_FORMAT=4:4
METRIC,LZ
;TYPE=PLATED
T01F00S00C0.4064
T02F00S00C0.7000
T03F00S00C1.0668
T04F00S00C1.0922
T05F00S00C2.6900
;TYPE=NON_PLATED
T06F00S00C1.4986
T07F00S00C3.1750
%
T01
X00019558Y-00177546
X-0001397Y-0017272
X0005461Y-0015875
X00079502Y-00168148
X0009525Y-0009779
X0007366Y-0007239
X0006985Y-0003937
X00054864Y-00019812
X00021844Y-0006985
X00015748Y-0009906
X-0002413Y-0005969
X-0004572Y-0001905
X-00048163Y-00004399
X0Y0005588
X0000381Y0011049
X-00013634Y00148211
X0001016Y0017145
X00063724Y00175484
X00077216Y00162814
X00078232Y00131826
X000635Y0010922
X0008255Y0007493
X00078486Y00040386
X001524Y-001016
X0018161Y-0015494
X-00133096Y-00093726
X-00143877Y-00065371
X-00145542Y-00055626
X-00165008Y-00063786
X-0013716Y-00033782
X-00155956Y-00007112
X-00147574Y00005588
X-00165354Y00030734
X-00158496Y0017907
X-0016002Y0020828
X-0009525Y0020066
X-0008255Y0019812
X-0007366Y0020828
X-00056896Y00136652
X-00177038Y00120142
X-0019177Y0012827
X-00194056Y00154178
X-002032Y0018669
X-0022225Y0013081
X-0026797Y0015875
X-0030099Y0014732
X-00295149Y00126489
X-00299466Y00117856
X-00272542Y00105156
X-00288798Y000254
X-00293914Y00017215
X-002159Y-0003175
X-00184314Y-00060297
X-00174672Y-0005987
X-0029337Y002413
T02
X-00044704Y00221234
X-00032004
X-00019304
X-00006604
X00006096
X00018796
X00031496
X00044196
X00037846Y00246634
X00025146
X00012446
X-00000254
X-00012954
X-00025654
X-00038354
T03
X-000381Y-001143
Y-000889
Y-000635
Y-000381
X000381
Y-000635
Y-000889
Y-001143
Y000635
Y000889
Y001143
X-000381
Y000889
Y000635
X-0011557Y0006731
X-0016764Y0009525
X-0006604Y0018923
X-0025781Y001778
X-0016383Y0025019
T04
X-0027813Y-0019304
X-00243205
X-0020828
X-00173355
X-0013843
X-00103505
X-0006858
X-00033655
X0000127
X00036195
X0007112
X00106045
X0014097
X00175895
X0021082
X00245745
X0028067
T05
X-00091054Y00259334
X00090546
T06
X-0027813Y-0023114
X-00243205
X-0020828
X-00173355
X-0013843
X-00103505
X-0006858
X-00033655
X0000127
X00036195
X0007112
X00106045
X0014097
X00175895
X0021082
X00245745
X0028067
T07
X-0028575Y-0028575
X0
X0028575
X0Y0
X-0028575Y0028575
X0028575
M30
