G04*
G04 #@! TF.GenerationSoftware,Altium Limited,Altium Designer,24.2.2 (26)*
G04*
G04 Layer_Physical_Order=1*
G04 Layer_Color=255*
%FSLAX44Y44*%
%MOMM*%
G71*
G04*
G04 #@! TF.SameCoordinates,32683A2E-CEC5-46B4-BDA2-C12D6267EED3*
G04*
G04*
G04 #@! TF.FilePolarity,Positive*
G04*
G01*
G75*
%ADD13C,0.2540*%
%ADD15R,0.9000X0.8000*%
%ADD16R,0.5000X0.6000*%
%ADD17R,0.6500X1.5000*%
%ADD18R,1.4000X0.3000*%
%ADD19R,1.4300X0.9400*%
%ADD20R,0.6800X1.8000*%
%ADD21R,1.8000X0.6800*%
%ADD22R,0.8000X0.9000*%
%ADD23R,0.6000X0.5000*%
%ADD24R,0.5725X0.6153*%
%ADD25R,1.5000X0.6500*%
%ADD26R,0.6153X0.5725*%
%ADD42C,1.0000*%
%ADD43C,4.0350*%
%ADD44C,1.7780*%
%ADD45C,1.5240*%
%ADD46C,0.8128*%
G36*
X269376Y316230D02*
X265383Y313783D01*
X261248Y310252D01*
X257717Y306117D01*
X254876Y301481D01*
X252795Y296458D01*
X251526Y291171D01*
X251099Y285750D01*
X251526Y280329D01*
X252795Y275042D01*
X254876Y270019D01*
X257717Y265383D01*
X261248Y261248D01*
X265383Y257717D01*
X270019Y254876D01*
X275042Y252795D01*
X280329Y251526D01*
X285750Y251099D01*
X291171Y251526D01*
X296458Y252795D01*
X301481Y254876D01*
X306117Y257717D01*
X310252Y261248D01*
X313783Y265383D01*
X316230Y269376D01*
X317500Y269018D01*
Y-269018D01*
X316230Y-269376D01*
X313783Y-265383D01*
X310252Y-261248D01*
X306117Y-257717D01*
X301481Y-254876D01*
X296458Y-252795D01*
X291171Y-251526D01*
X285750Y-251099D01*
X280329Y-251526D01*
X275042Y-252795D01*
X270019Y-254876D01*
X265383Y-257717D01*
X261248Y-261248D01*
X257717Y-265383D01*
X254876Y-270019D01*
X252795Y-275042D01*
X251526Y-280329D01*
X251099Y-285750D01*
X251526Y-291171D01*
X252795Y-296458D01*
X254876Y-301481D01*
X257717Y-306117D01*
X261248Y-310252D01*
X265383Y-313783D01*
X269376Y-316230D01*
X269018Y-317500D01*
X16732D01*
X16374Y-316230D01*
X20367Y-313783D01*
X24502Y-310252D01*
X28033Y-306117D01*
X30874Y-301481D01*
X32955Y-296458D01*
X34224Y-291171D01*
X34651Y-285750D01*
X34224Y-280329D01*
X32955Y-275042D01*
X30874Y-270019D01*
X28033Y-265383D01*
X24502Y-261248D01*
X20367Y-257717D01*
X15731Y-254876D01*
X10708Y-252795D01*
X5421Y-251526D01*
X0Y-251099D01*
X-5421Y-251526D01*
X-10708Y-252795D01*
X-15731Y-254876D01*
X-20367Y-257717D01*
X-24502Y-261248D01*
X-28033Y-265383D01*
X-30874Y-270019D01*
X-32955Y-275042D01*
X-34224Y-280329D01*
X-34651Y-285750D01*
X-34224Y-291171D01*
X-32955Y-296458D01*
X-30874Y-301481D01*
X-28033Y-306117D01*
X-24502Y-310252D01*
X-20367Y-313783D01*
X-16374Y-316230D01*
X-16732Y-317500D01*
X-269018D01*
X-269376Y-316230D01*
X-265383Y-313783D01*
X-261248Y-310252D01*
X-257717Y-306117D01*
X-254876Y-301481D01*
X-252795Y-296458D01*
X-251526Y-291171D01*
X-251099Y-285750D01*
X-251526Y-280329D01*
X-252795Y-275042D01*
X-254876Y-270019D01*
X-257717Y-265383D01*
X-261248Y-261248D01*
X-265383Y-257717D01*
X-270019Y-254876D01*
X-275042Y-252795D01*
X-280329Y-251526D01*
X-285750Y-251099D01*
X-291171Y-251526D01*
X-296458Y-252795D01*
X-301481Y-254876D01*
X-306117Y-257717D01*
X-310252Y-261248D01*
X-313783Y-265383D01*
X-316230Y-269376D01*
X-317500Y-269018D01*
Y269018D01*
X-316230Y269376D01*
X-313783Y265383D01*
X-310252Y261248D01*
X-306117Y257717D01*
X-301481Y254876D01*
X-296458Y252795D01*
X-291171Y251526D01*
X-285750Y251099D01*
X-280329Y251526D01*
X-275042Y252795D01*
X-270019Y254876D01*
X-265383Y257717D01*
X-261248Y261248D01*
X-257717Y265383D01*
X-254876Y270019D01*
X-252795Y275042D01*
X-251526Y280329D01*
X-251099Y285750D01*
X-251526Y291171D01*
X-252795Y296458D01*
X-254876Y301481D01*
X-257717Y306117D01*
X-261248Y310252D01*
X-265383Y313783D01*
X-269376Y316230D01*
X-269018Y317500D01*
X269018D01*
X269376Y316230D01*
D02*
G37*
%LPC*%
G36*
X38705Y253158D02*
X36987D01*
X35328Y252713D01*
X33840Y251854D01*
X32626Y250640D01*
X32229Y249953D01*
X30763D01*
X30366Y250640D01*
X29152Y251854D01*
X27664Y252713D01*
X26005Y253158D01*
X24287D01*
X22628Y252713D01*
X21140Y251854D01*
X19926Y250640D01*
X19067Y249152D01*
X18622Y247493D01*
Y245775D01*
X19067Y244116D01*
X19926Y242628D01*
X21140Y241413D01*
X22628Y240555D01*
X24287Y240110D01*
X26005D01*
X27664Y240555D01*
X29152Y241413D01*
X30366Y242628D01*
X30763Y243315D01*
X32229D01*
X32626Y242628D01*
X33840Y241413D01*
X35328Y240555D01*
X36987Y240110D01*
X38705D01*
X40364Y240555D01*
X41852Y241413D01*
X43067Y242628D01*
X43925Y244116D01*
X44370Y245775D01*
Y247493D01*
X43925Y249152D01*
X43067Y250640D01*
X41852Y251854D01*
X40364Y252713D01*
X38705Y253158D01*
D02*
G37*
G36*
X-183686Y249884D02*
X-201734D01*
Y240336D01*
X-183686D01*
Y249884D01*
D02*
G37*
G36*
X-237686D02*
X-255734D01*
Y240336D01*
X-237686D01*
Y249884D01*
D02*
G37*
G36*
X92683Y281033D02*
X88409D01*
X84217Y280199D01*
X80268Y278563D01*
X76714Y276189D01*
X73691Y273166D01*
X71317Y269612D01*
X69681Y265663D01*
X68847Y261471D01*
Y257197D01*
X69681Y253005D01*
X71317Y249056D01*
X73691Y245502D01*
X76714Y242479D01*
X80268Y240105D01*
X84217Y238469D01*
X88409Y237635D01*
X92683D01*
X96875Y238469D01*
X100824Y240105D01*
X104378Y242479D01*
X107401Y245502D01*
X109775Y249056D01*
X111411Y253005D01*
X112245Y257197D01*
Y261471D01*
X111411Y265663D01*
X109775Y269612D01*
X107401Y273166D01*
X104378Y276189D01*
X100824Y278563D01*
X96875Y280199D01*
X92683Y281033D01*
D02*
G37*
G36*
X-88917D02*
X-93191D01*
X-97383Y280199D01*
X-101332Y278563D01*
X-104886Y276189D01*
X-107909Y273166D01*
X-110283Y269612D01*
X-111919Y265663D01*
X-112753Y261471D01*
Y257197D01*
X-111919Y253005D01*
X-110283Y249056D01*
X-107909Y245502D01*
X-104886Y242479D01*
X-101332Y240105D01*
X-97383Y238469D01*
X-93191Y237635D01*
X-88917D01*
X-84725Y238469D01*
X-80776Y240105D01*
X-77222Y242479D01*
X-74199Y245502D01*
X-71825Y249056D01*
X-70189Y253005D01*
X-69355Y257197D01*
Y261471D01*
X-70189Y265663D01*
X-71825Y269612D01*
X-74199Y273166D01*
X-77222Y276189D01*
X-80776Y278563D01*
X-84725Y280199D01*
X-88917Y281033D01*
D02*
G37*
G36*
X-292258Y246888D02*
X-294482D01*
X-296535Y246037D01*
X-298107Y244465D01*
X-298958Y242411D01*
Y240189D01*
X-298107Y238135D01*
X-296535Y236563D01*
X-296219Y236432D01*
Y233235D01*
X-296219Y233234D01*
X-296002Y232144D01*
X-295774Y231804D01*
Y230504D01*
X-296124D01*
Y221456D01*
X-288076D01*
Y223131D01*
X-280454D01*
Y222956D01*
X-263106D01*
Y226331D01*
X-254190D01*
X-254190Y226331D01*
X-253100Y226548D01*
X-252176Y227166D01*
X-251705Y227636D01*
X-237686D01*
Y237184D01*
X-255734D01*
Y232029D01*
X-263106D01*
Y235404D01*
X-280454D01*
Y228829D01*
X-288076D01*
Y230504D01*
X-290077D01*
Y232790D01*
X-290294Y233880D01*
X-290521Y234221D01*
Y236432D01*
X-290205Y236563D01*
X-288633Y238135D01*
X-287782Y240189D01*
Y242411D01*
X-288633Y244465D01*
X-290205Y246037D01*
X-292258Y246888D01*
D02*
G37*
G36*
X-237686Y224484D02*
X-255734D01*
Y214936D01*
X-237686D01*
Y224484D01*
D02*
G37*
G36*
X-72548Y213868D02*
X-74771D01*
X-76825Y213017D01*
X-78397Y211445D01*
X-78844Y210367D01*
X-104402D01*
X-104402Y210367D01*
X-105492Y210150D01*
X-106416Y209532D01*
X-124985Y190964D01*
X-130504D01*
Y187474D01*
X-140394D01*
Y189226D01*
X-149166D01*
Y187474D01*
X-152916D01*
X-152916Y187474D01*
X-154006Y187257D01*
X-154930Y186640D01*
X-154931Y186640D01*
X-157051Y184520D01*
X-157385Y184658D01*
X-159607D01*
X-161661Y183807D01*
X-163233Y182235D01*
X-164084Y180182D01*
Y177959D01*
X-163233Y175905D01*
X-161661Y174333D01*
X-159607Y173482D01*
X-157385D01*
X-155331Y174333D01*
X-153759Y175905D01*
X-152908Y177959D01*
Y180182D01*
X-153032Y180481D01*
X-151736Y181777D01*
X-149166D01*
Y180025D01*
X-140394D01*
Y181777D01*
X-130504D01*
Y172916D01*
X-120956D01*
Y186935D01*
X-118977Y188914D01*
X-117804Y188428D01*
Y172916D01*
X-115879D01*
Y165010D01*
X-118020Y162869D01*
X-139486D01*
Y164544D01*
X-147534D01*
Y155814D01*
X-147534Y155496D01*
Y154544D01*
X-147534Y154226D01*
Y145496D01*
X-143015D01*
X-139014Y141496D01*
X-139014Y141496D01*
X-138090Y140878D01*
X-137000Y140661D01*
X-104050D01*
X-103179Y139790D01*
Y136964D01*
X-105104D01*
Y118916D01*
X-95556D01*
Y136964D01*
X-97481D01*
Y140970D01*
X-97698Y142060D01*
X-98316Y142984D01*
X-98316Y142984D01*
X-100856Y145524D01*
X-101780Y146142D01*
X-102870Y146359D01*
X-102870Y146359D01*
X-135820D01*
X-139486Y150025D01*
Y154226D01*
X-139486Y154544D01*
Y155496D01*
X-139486Y155814D01*
Y157171D01*
X-116840D01*
X-116840Y157171D01*
X-115750Y157388D01*
X-114826Y158006D01*
X-111016Y161816D01*
X-110398Y162740D01*
X-110181Y163830D01*
X-110181Y163830D01*
Y172916D01*
X-108256D01*
Y179091D01*
X-105104D01*
Y172916D01*
X-99585D01*
X-94834Y168166D01*
X-94834Y168166D01*
X-93910Y167548D01*
X-92820Y167331D01*
X-92820Y167331D01*
X-71120D01*
X-71120Y167331D01*
X-70030Y167548D01*
X-69106Y168166D01*
X-64026Y173246D01*
X-64026Y173246D01*
X-63408Y174170D01*
X-63191Y175260D01*
X-63191Y175260D01*
Y179212D01*
X-62020Y179526D01*
X-59646Y180897D01*
X-57707Y182836D01*
X-56336Y185210D01*
X-55626Y187859D01*
Y189515D01*
X-54356Y190041D01*
X-42219Y177904D01*
Y172544D01*
X-45394D01*
Y165525D01*
X-58910Y152008D01*
X-59528Y151084D01*
X-59745Y149994D01*
X-59745Y149994D01*
Y141520D01*
X-60061Y141389D01*
X-61633Y139817D01*
X-62484Y137764D01*
Y135541D01*
X-61633Y133487D01*
X-60061Y131915D01*
X-58007Y131064D01*
X-55785D01*
X-53731Y131915D01*
X-52159Y133487D01*
X-51308Y135541D01*
Y137764D01*
X-52159Y139817D01*
X-53731Y141389D01*
X-54047Y141520D01*
Y148814D01*
X-46567Y156294D01*
X-45394Y155808D01*
Y147496D01*
X-37375D01*
X-33232Y143353D01*
X-33232Y143353D01*
X-32308Y142736D01*
X-31218Y142519D01*
X-31218Y142519D01*
X-17989D01*
X-17989Y142519D01*
X-16899Y142736D01*
X-16179Y143217D01*
X-14745Y142623D01*
X-12522D01*
X-10468Y143474D01*
X-8896Y145046D01*
X-8046Y147100D01*
Y149323D01*
X-8896Y151376D01*
X-10468Y152948D01*
X-12522Y153799D01*
X-14745D01*
X-16296Y153157D01*
X-17566Y153841D01*
Y157004D01*
X-25614D01*
Y155329D01*
X-33346D01*
Y158544D01*
X-42658D01*
X-43144Y159717D01*
X-41365Y161496D01*
X-33346D01*
Y172544D01*
X-36521D01*
Y179084D01*
X-36521Y179084D01*
X-36738Y180174D01*
X-37356Y181098D01*
X-65790Y209532D01*
X-66714Y210150D01*
X-67804Y210367D01*
X-67804Y210367D01*
X-68476D01*
X-68923Y211445D01*
X-70495Y213017D01*
X-72548Y213868D01*
D02*
G37*
G36*
X-256439Y188214D02*
X-259181D01*
X-261830Y187504D01*
X-264204Y186133D01*
X-266143Y184194D01*
X-267514Y181820D01*
X-267828Y180649D01*
X-276226D01*
Y181824D01*
X-285274D01*
Y181824D01*
X-286226D01*
Y181824D01*
X-295274D01*
Y173776D01*
X-293599D01*
Y166584D01*
X-295274D01*
Y165409D01*
X-308900D01*
X-309990Y165192D01*
X-310914Y164574D01*
X-310914Y164574D01*
X-312402Y163086D01*
X-313020Y162162D01*
X-313237Y161072D01*
X-313237Y161072D01*
Y117094D01*
X-313237Y117094D01*
X-313020Y116004D01*
X-312402Y115080D01*
X-306333Y109010D01*
X-306333Y109010D01*
X-305409Y108393D01*
X-304319Y108176D01*
X-304319Y108176D01*
X-302440D01*
X-302307Y108149D01*
X-302306Y108149D01*
X-296625D01*
X-296625Y108149D01*
X-296492Y108176D01*
X-286935D01*
X-282430Y103671D01*
X-281506Y103054D01*
X-280416Y102837D01*
X-280416Y102837D01*
X-277630D01*
X-277279Y101991D01*
X-275707Y100419D01*
X-273654Y99568D01*
X-271430D01*
X-269377Y100419D01*
X-267805Y101991D01*
X-266954Y104045D01*
Y105021D01*
X-264374D01*
Y103346D01*
X-256326D01*
Y104339D01*
X-249974D01*
Y101036D01*
X-232626D01*
Y113484D01*
X-244400D01*
X-244548Y114230D01*
X-245166Y115154D01*
X-245166Y115154D01*
X-249021Y119010D01*
Y122866D01*
X-243346D01*
Y127866D01*
Y137866D01*
Y148914D01*
X-249021D01*
Y167736D01*
X-249021Y167736D01*
X-249238Y168826D01*
X-249856Y169750D01*
X-249922Y170960D01*
X-249477Y171406D01*
X-248106Y173780D01*
X-247396Y176429D01*
Y179171D01*
X-248106Y181820D01*
X-249477Y184194D01*
X-251416Y186133D01*
X-253790Y187504D01*
X-256439Y188214D01*
D02*
G37*
G36*
X39304Y123444D02*
X36896D01*
X34571Y122821D01*
X32485Y121617D01*
X30783Y119915D01*
X29579Y117830D01*
X28956Y115504D01*
Y113096D01*
X29579Y110771D01*
X30783Y108686D01*
X32485Y106983D01*
X34571Y105779D01*
X36896Y105156D01*
X39304D01*
X41630Y105779D01*
X43714Y106983D01*
X45417Y108686D01*
X46621Y110771D01*
X47244Y113096D01*
Y115504D01*
X46621Y117830D01*
X45417Y119915D01*
X43714Y121617D01*
X41630Y122821D01*
X39304Y123444D01*
D02*
G37*
G36*
X-36896D02*
X-39304D01*
X-41630Y122821D01*
X-43714Y121617D01*
X-45417Y119915D01*
X-46621Y117830D01*
X-47244Y115504D01*
Y113096D01*
X-46621Y110771D01*
X-45417Y108686D01*
X-43714Y106983D01*
X-41630Y105779D01*
X-39304Y105156D01*
X-36896D01*
X-34571Y105779D01*
X-32485Y106983D01*
X-30783Y108686D01*
X-29579Y110771D01*
X-28956Y113096D01*
Y115504D01*
X-29579Y117830D01*
X-30783Y119915D01*
X-32485Y121617D01*
X-34571Y122821D01*
X-36896Y123444D01*
D02*
G37*
G36*
X-199346Y143914D02*
X-216394D01*
Y143341D01*
X-216642Y143292D01*
X-217566Y142674D01*
X-217566Y142674D01*
X-224182Y136058D01*
X-225415Y135547D01*
X-226987Y133975D01*
X-227838Y131922D01*
Y129698D01*
X-226987Y127645D01*
X-225415Y126073D01*
X-223361Y125222D01*
X-221138D01*
X-219085Y126073D01*
X-217664Y127493D01*
X-216951Y127373D01*
X-216394Y127104D01*
Y122866D01*
X-204989D01*
Y119005D01*
X-204989Y119005D01*
X-204772Y117915D01*
X-204154Y116991D01*
X-202239Y115075D01*
Y112394D01*
X-203414D01*
Y110719D01*
X-208496D01*
Y113484D01*
X-225844D01*
Y101036D01*
X-208496D01*
Y105021D01*
X-203414D01*
Y103346D01*
X-195366D01*
Y105021D01*
X-189310D01*
X-189310Y105021D01*
X-188220Y105238D01*
X-187296Y105856D01*
X-178466Y114685D01*
X-178150Y114554D01*
X-175926D01*
X-173873Y115405D01*
X-172301Y116977D01*
X-171450Y119031D01*
Y121253D01*
X-172301Y123307D01*
X-173873Y124879D01*
X-175926Y125730D01*
X-178150D01*
X-180203Y124879D01*
X-181775Y123307D01*
X-182626Y121253D01*
Y119031D01*
X-182495Y118714D01*
X-190490Y110719D01*
X-195366D01*
Y112394D01*
X-196541D01*
Y116255D01*
X-196758Y117345D01*
X-197376Y118269D01*
X-197376Y118269D01*
X-199291Y120185D01*
Y125660D01*
X-199291Y125660D01*
X-199346Y125935D01*
Y128041D01*
X-197358D01*
Y127158D01*
X-196507Y125105D01*
X-194935Y123533D01*
X-192882Y122682D01*
X-190658D01*
X-188605Y123533D01*
X-187033Y125105D01*
X-186182Y127158D01*
Y129382D01*
X-187033Y131435D01*
X-187369Y131771D01*
X-186843Y133041D01*
X-181824D01*
Y128906D01*
X-176845D01*
X-176795Y128896D01*
X-176694Y128796D01*
X-176694Y128796D01*
X-175770Y128178D01*
X-174680Y127961D01*
X-174680Y127961D01*
X-165654D01*
Y126786D01*
X-161342D01*
X-160856Y125613D01*
X-169654Y116814D01*
X-170272Y115890D01*
X-170489Y114800D01*
X-170489Y114800D01*
Y105268D01*
X-171660Y104954D01*
X-174034Y103583D01*
X-175973Y101644D01*
X-177344Y99270D01*
X-178054Y96621D01*
Y93879D01*
X-177344Y91230D01*
X-175973Y88856D01*
X-174034Y86917D01*
X-171660Y85546D01*
X-169011Y84836D01*
X-166269D01*
X-163620Y85546D01*
X-161246Y86917D01*
X-159307Y88856D01*
X-157936Y91230D01*
X-157622Y92401D01*
X-137500D01*
X-137500Y92401D01*
X-136410Y92618D01*
X-135486Y93236D01*
X-128005Y100716D01*
X-126832Y100230D01*
Y95826D01*
X-128266D01*
Y87054D01*
X-110494D01*
Y88591D01*
X-103260D01*
X-101554Y86886D01*
X-101554Y86886D01*
X-100630Y86268D01*
X-99540Y86051D01*
X-99540Y86051D01*
X-94047D01*
X-93561Y84878D01*
X-101303Y77136D01*
X-104586D01*
X-104586Y77136D01*
X-105676Y76919D01*
X-106601Y76301D01*
X-106601Y76301D01*
X-108217Y74685D01*
X-109176Y75643D01*
X-111550Y77014D01*
X-114199Y77724D01*
X-116941D01*
X-119590Y77014D01*
X-121964Y75643D01*
X-123903Y73704D01*
X-125274Y71330D01*
X-125984Y68681D01*
Y65939D01*
X-125274Y63290D01*
X-123903Y60916D01*
X-121964Y58977D01*
X-119590Y57606D01*
X-116941Y56896D01*
X-114199D01*
X-111550Y57606D01*
X-109176Y58977D01*
X-107237Y60916D01*
X-105866Y63290D01*
X-105156Y65939D01*
Y68681D01*
X-105369Y69475D01*
X-103406Y71438D01*
X-100123D01*
X-100123Y71438D01*
X-99033Y71655D01*
X-98109Y72272D01*
X-85505Y84876D01*
X-80804D01*
X-80486Y84876D01*
X-79534D01*
X-79216Y84876D01*
X-70486D01*
Y86051D01*
X-52828D01*
X-52828Y86051D01*
X-51737Y86268D01*
X-50813Y86886D01*
X-48514Y89185D01*
X-47244Y88659D01*
Y87696D01*
X-46621Y85371D01*
X-45417Y83286D01*
X-43714Y81583D01*
X-41630Y80379D01*
X-39304Y79756D01*
X-36896D01*
X-34571Y80379D01*
X-32485Y81583D01*
X-30783Y83286D01*
X-29579Y85371D01*
X-28956Y87696D01*
Y90104D01*
X-29579Y92430D01*
X-30783Y94515D01*
X-31464Y95195D01*
X-30938Y96465D01*
X-16614D01*
X-7035Y86886D01*
X-7035Y86886D01*
X-6111Y86268D01*
X-5020Y86051D01*
X-5020Y86051D01*
X29397D01*
X29579Y85371D01*
X30783Y83286D01*
X32485Y81583D01*
X34571Y80379D01*
X36896Y79756D01*
X39304D01*
X41630Y80379D01*
X43714Y81583D01*
X45417Y83286D01*
X46621Y85371D01*
X47244Y87696D01*
Y90104D01*
X46621Y92430D01*
X45417Y94515D01*
X43714Y96217D01*
X41630Y97421D01*
X39304Y98044D01*
X36896D01*
X34571Y97421D01*
X32485Y96217D01*
X30783Y94515D01*
X29579Y92430D01*
X29397Y91749D01*
X-3840D01*
X-13420Y101328D01*
X-14344Y101946D01*
X-15434Y102163D01*
X-15434Y102163D01*
X-42414D01*
X-42414Y102163D01*
X-43504Y101946D01*
X-44428Y101328D01*
X-54008Y91749D01*
X-70486D01*
Y92924D01*
X-79216D01*
X-79534Y92924D01*
X-80486D01*
X-80804Y92924D01*
X-82161D01*
Y100116D01*
X-80486D01*
Y108164D01*
X-89534D01*
Y100116D01*
X-87859D01*
Y92924D01*
X-89534D01*
Y91749D01*
X-98360D01*
X-100066Y93454D01*
X-100990Y94072D01*
X-102080Y94289D01*
X-102080Y94289D01*
X-110494D01*
Y95826D01*
X-111848D01*
Y103926D01*
X-109776D01*
Y111974D01*
X-110816D01*
Y118916D01*
X-108256D01*
Y136964D01*
X-117804D01*
Y118916D01*
X-116514D01*
Y111974D01*
X-118824D01*
Y111974D01*
X-119776D01*
Y111974D01*
X-122166D01*
Y118916D01*
X-120956D01*
Y136964D01*
X-130504D01*
Y118916D01*
X-127864D01*
Y111974D01*
X-128824D01*
Y107955D01*
X-138680Y98099D01*
X-157622D01*
X-157936Y99270D01*
X-159307Y101644D01*
X-161246Y103583D01*
X-163620Y104954D01*
X-164791Y105268D01*
Y113620D01*
X-151625Y126786D01*
X-146606D01*
Y134834D01*
X-155336D01*
X-155654Y134834D01*
Y134834D01*
X-156606D01*
Y134834D01*
X-165654D01*
Y133659D01*
X-173500D01*
X-173556Y133714D01*
X-173776Y133862D01*
Y137954D01*
X-177820D01*
X-178670Y138522D01*
X-179760Y138739D01*
X-179760Y138739D01*
X-199346D01*
Y143914D01*
D02*
G37*
G36*
X-162459Y260604D02*
X-165201D01*
X-167850Y259894D01*
X-170224Y258523D01*
X-172163Y256584D01*
X-173534Y254210D01*
X-174244Y251561D01*
Y248819D01*
X-173534Y246170D01*
X-172163Y243796D01*
X-171408Y243040D01*
X-182513Y231935D01*
X-183686Y232421D01*
Y237184D01*
X-201734D01*
Y227636D01*
X-188471D01*
X-187985Y226463D01*
X-188494Y225953D01*
X-189112Y225029D01*
X-189220Y224484D01*
X-201734D01*
Y218965D01*
X-216724Y203974D01*
X-217342Y203050D01*
X-217559Y201960D01*
X-217559Y201960D01*
Y193254D01*
X-219234D01*
Y185206D01*
X-217559D01*
Y171530D01*
X-217559Y171530D01*
X-217342Y170440D01*
X-216724Y169516D01*
X-200388Y153180D01*
X-199464Y152562D01*
X-199433Y152556D01*
X-198793Y151013D01*
X-197221Y149441D01*
X-195168Y148590D01*
X-192945D01*
X-190891Y149441D01*
X-189319Y151013D01*
X-188468Y153067D01*
Y155289D01*
X-189319Y157343D01*
X-190891Y158915D01*
X-191279Y159076D01*
X-191026Y160346D01*
X-186896D01*
Y172394D01*
X-189571D01*
Y178126D01*
X-186896D01*
Y190174D01*
X-197944D01*
X-197944Y190174D01*
Y190174D01*
X-197944Y190174D01*
X-199087Y190480D01*
X-200035Y191427D01*
X-202089Y192278D01*
X-204312D01*
X-206365Y191427D01*
X-207937Y189855D01*
X-208788Y187801D01*
Y185578D01*
X-207937Y183525D01*
X-206365Y181953D01*
X-204312Y181102D01*
X-202089D01*
X-200562Y181734D01*
X-200238Y181518D01*
X-199148Y181301D01*
X-199148Y181301D01*
X-197944D01*
Y178126D01*
X-195269D01*
Y172394D01*
X-197944D01*
Y161154D01*
X-199044Y160177D01*
X-199342Y160191D01*
X-211861Y172710D01*
Y185206D01*
X-210186D01*
Y193254D01*
X-211861D01*
Y200780D01*
X-202907Y209734D01*
X-201734Y209248D01*
Y202236D01*
X-183686D01*
Y211784D01*
X-199198D01*
X-199684Y212957D01*
X-197705Y214936D01*
X-183686D01*
Y216861D01*
X-174204D01*
Y214154D01*
X-174204Y213836D01*
Y212884D01*
X-174204Y212566D01*
Y203836D01*
X-166156D01*
Y205471D01*
X-164905D01*
X-164757Y205115D01*
X-163185Y203543D01*
X-161131Y202692D01*
X-158909D01*
X-156855Y203543D01*
X-156649Y203749D01*
X-155574Y204256D01*
Y204256D01*
X-155574Y204256D01*
X-146526D01*
Y212304D01*
X-155574D01*
X-155574Y212304D01*
Y212304D01*
X-156643Y212806D01*
X-156855Y213017D01*
X-158909Y213868D01*
X-161131D01*
X-163185Y213017D01*
X-164294Y211908D01*
X-165770Y211802D01*
X-165957Y211868D01*
X-166156Y212067D01*
X-166156Y213836D01*
X-166156Y214154D01*
Y215511D01*
X-155440D01*
X-155440Y215511D01*
X-154350Y215728D01*
X-153426Y216346D01*
X-151545Y218226D01*
X-146526D01*
Y226274D01*
X-155574D01*
Y222255D01*
X-156620Y221209D01*
X-166156D01*
Y222884D01*
X-174204D01*
Y222559D01*
X-182035D01*
X-182561Y223829D01*
X-166315Y240075D01*
X-165201Y239776D01*
X-162459D01*
X-159810Y240486D01*
X-158760Y241092D01*
X-146540Y228872D01*
X-146540Y228872D01*
X-145616Y228254D01*
X-144526Y228037D01*
X-35808D01*
X-35468Y226767D01*
X-36010Y226455D01*
X-37225Y225240D01*
X-38083Y223752D01*
X-38528Y222093D01*
Y220375D01*
X-38083Y218716D01*
X-37225Y217228D01*
X-36010Y216014D01*
X-34522Y215155D01*
X-32863Y214710D01*
X-31145D01*
X-29486Y215155D01*
X-27998Y216014D01*
X-26783Y217228D01*
X-26387Y217915D01*
X-24921D01*
X-24525Y217228D01*
X-23310Y216014D01*
X-21822Y215155D01*
X-20163Y214710D01*
X-18445D01*
X-16786Y215155D01*
X-15298Y216014D01*
X-14083Y217228D01*
X-13687Y217915D01*
X-12221D01*
X-11825Y217228D01*
X-10610Y216014D01*
X-9122Y215155D01*
X-7463Y214710D01*
X-5745D01*
X-4086Y215155D01*
X-2598Y216014D01*
X-1383Y217228D01*
X-928Y218018D01*
X420D01*
X875Y217228D01*
X2090Y216014D01*
X3578Y215155D01*
X5237Y214710D01*
X6955D01*
X8614Y215155D01*
X9381Y215597D01*
X13553Y211426D01*
X13553Y211426D01*
X14477Y210808D01*
X14721Y210760D01*
X136731Y88750D01*
X136245Y87577D01*
X129616D01*
X128526Y87360D01*
X127601Y86742D01*
X127601Y86742D01*
X126114Y85254D01*
X125496Y84330D01*
X125279Y83240D01*
X125279Y83240D01*
Y80954D01*
X122604D01*
Y68906D01*
X126009D01*
Y61174D01*
X124334D01*
Y59999D01*
X58928D01*
X58928Y59999D01*
X57838Y59782D01*
X56914Y59164D01*
X31805Y34056D01*
X31645Y34062D01*
X30535Y34459D01*
Y37178D01*
X80246Y86890D01*
X80864Y87814D01*
X81081Y88904D01*
X81081Y88904D01*
Y126958D01*
X81397Y127089D01*
X82969Y128661D01*
X83820Y130715D01*
Y132937D01*
X82969Y134991D01*
X81397Y136563D01*
X79344Y137414D01*
X77120D01*
X75067Y136563D01*
X73495Y134991D01*
X72644Y132937D01*
Y130715D01*
X73495Y128661D01*
X75067Y127089D01*
X75383Y126958D01*
Y90084D01*
X48514Y63215D01*
X47244Y63741D01*
Y64704D01*
X46621Y67030D01*
X45417Y69114D01*
X43714Y70817D01*
X41630Y72021D01*
X39304Y72644D01*
X36896D01*
X34571Y72021D01*
X32485Y70817D01*
X30783Y69114D01*
X29579Y67030D01*
X28956Y64704D01*
Y62296D01*
X29579Y59970D01*
X30783Y57885D01*
X32485Y56183D01*
X34571Y54979D01*
X36896Y54356D01*
X37859D01*
X38385Y53086D01*
X25672Y40373D01*
X25054Y39449D01*
X24837Y38358D01*
X24837Y38358D01*
Y25886D01*
X23567Y25300D01*
X20367Y28033D01*
X15731Y30874D01*
X10708Y32955D01*
X5421Y34224D01*
X0Y34651D01*
X-5421Y34224D01*
X-10708Y32955D01*
X-15731Y30874D01*
X-20367Y28033D01*
X-24502Y24502D01*
X-28033Y20367D01*
X-30874Y15731D01*
X-32955Y10708D01*
X-34224Y5421D01*
X-34651Y0D01*
X-34224Y-5421D01*
X-32955Y-10708D01*
X-30874Y-15731D01*
X-28033Y-20367D01*
X-24502Y-24502D01*
X-20367Y-28033D01*
X-15731Y-30874D01*
X-10708Y-32955D01*
X-5421Y-34224D01*
X0Y-34651D01*
X5421Y-34224D01*
X10708Y-32955D01*
X15731Y-30874D01*
X20367Y-28033D01*
X24502Y-24502D01*
X28033Y-20367D01*
X30874Y-15731D01*
X32955Y-10708D01*
X33473Y-8548D01*
X34743Y-8699D01*
Y-29533D01*
X34571Y-29579D01*
X32485Y-30783D01*
X30783Y-32485D01*
X29579Y-34571D01*
X28956Y-36896D01*
Y-39304D01*
X29579Y-41630D01*
X30783Y-43714D01*
X31464Y-44395D01*
X30938Y-45665D01*
X-30938D01*
X-31464Y-44395D01*
X-30783Y-43714D01*
X-29579Y-41630D01*
X-28956Y-39304D01*
Y-36896D01*
X-29579Y-34571D01*
X-30783Y-32485D01*
X-32485Y-30783D01*
X-34571Y-29579D01*
X-36896Y-28956D01*
X-39304D01*
X-41630Y-29579D01*
X-43714Y-30783D01*
X-45417Y-32485D01*
X-46621Y-34571D01*
X-47244Y-36896D01*
Y-39304D01*
X-46621Y-41630D01*
X-45417Y-43714D01*
X-44896Y-44235D01*
X-45422Y-45505D01*
X-46732D01*
X-50237Y-42000D01*
Y-27596D01*
X-47148Y-24507D01*
X-46831Y-24638D01*
X-44608D01*
X-42555Y-23787D01*
X-40983Y-22215D01*
X-40132Y-20161D01*
Y-17938D01*
X-40983Y-15885D01*
X-42555Y-14313D01*
X-44608Y-13462D01*
X-46831D01*
X-48885Y-14313D01*
X-50457Y-15885D01*
X-51308Y-17938D01*
Y-20161D01*
X-51177Y-20478D01*
X-53128Y-22429D01*
X-54301Y-21943D01*
Y-14567D01*
X-49591Y-9856D01*
X-49274Y-9987D01*
X-47051D01*
X-44997Y-9137D01*
X-43425Y-7565D01*
X-42575Y-5511D01*
Y-3288D01*
X-43425Y-1234D01*
X-44997Y338D01*
X-47051Y1189D01*
X-49274D01*
X-51328Y338D01*
X-52900Y-1234D01*
X-53751Y-3288D01*
Y-5511D01*
X-53620Y-5828D01*
X-59164Y-11372D01*
X-59782Y-12296D01*
X-59999Y-13387D01*
X-59999Y-13387D01*
Y-45720D01*
X-59999Y-45720D01*
X-59782Y-46810D01*
X-59164Y-47734D01*
X-52466Y-54432D01*
X-52466Y-54432D01*
X-51542Y-55050D01*
X-50452Y-55267D01*
X-44901D01*
X-44645Y-55318D01*
X-44185Y-56593D01*
X-44190Y-56658D01*
X-45417Y-57885D01*
X-46621Y-59970D01*
X-47244Y-62296D01*
Y-64704D01*
X-46621Y-67030D01*
X-45417Y-69114D01*
X-43714Y-70817D01*
X-41630Y-72021D01*
X-39304Y-72644D01*
X-36896D01*
X-34571Y-72021D01*
X-32485Y-70817D01*
X-30783Y-69114D01*
X-30433Y-68509D01*
X-21042D01*
Y-71914D01*
X-12994D01*
Y-69351D01*
X-11821Y-68865D01*
X-8821Y-71864D01*
X-8821Y-71864D01*
X-7897Y-72482D01*
X-6807Y-72699D01*
X16976D01*
X17107Y-73015D01*
X18679Y-74587D01*
X20733Y-75438D01*
X22956D01*
X25009Y-74587D01*
X26581Y-73015D01*
X27432Y-70961D01*
Y-68738D01*
X26581Y-66685D01*
X25009Y-65113D01*
X22956Y-64262D01*
X20733D01*
X18679Y-65113D01*
X17107Y-66685D01*
X16976Y-67001D01*
X-5627D01*
X-15004Y-57625D01*
X-15928Y-57007D01*
X-17018Y-56790D01*
X-17018Y-56790D01*
X-17996D01*
X-18060Y-56697D01*
X-17391Y-55427D01*
X51852D01*
X51852Y-55427D01*
X52942Y-55210D01*
X53867Y-54592D01*
X55354Y-53105D01*
X55354Y-53105D01*
X55972Y-52180D01*
X56189Y-51090D01*
Y-27987D01*
X56189Y-27987D01*
X55972Y-26897D01*
X55821Y-26670D01*
X55860Y-26346D01*
X56367Y-25238D01*
X58029Y-24549D01*
X59601Y-22977D01*
X59890Y-22280D01*
X61552D01*
Y-23974D01*
X82452D01*
Y-38524D01*
X84948D01*
Y-51856D01*
X83694D01*
Y-59904D01*
X85369D01*
Y-68906D01*
X81964D01*
Y-72081D01*
X79248D01*
Y-71279D01*
X78397Y-69225D01*
X76825Y-67653D01*
X74771Y-66802D01*
X72548D01*
X70495Y-67653D01*
X68923Y-69225D01*
X68072Y-71279D01*
Y-73502D01*
X68923Y-75555D01*
X70495Y-77127D01*
X72548Y-77978D01*
X74771D01*
X76298Y-77346D01*
X76622Y-77562D01*
X77712Y-77779D01*
X77712Y-77779D01*
X81964D01*
Y-80954D01*
X93012D01*
Y-68906D01*
X91067D01*
Y-59904D01*
X92742D01*
Y-51856D01*
X90646D01*
Y-38524D01*
X92300D01*
Y-17476D01*
X82600D01*
Y-14126D01*
X61552D01*
Y-16582D01*
X59537D01*
X58029Y-15075D01*
X56402Y-14401D01*
X55955Y-13051D01*
X59807Y-9199D01*
X61552D01*
Y-11274D01*
X82600D01*
Y-1426D01*
X61552D01*
Y-3501D01*
X58628D01*
X58627Y-3501D01*
X58370Y-3553D01*
X57744Y-2382D01*
X61552Y1426D01*
X82600D01*
Y11274D01*
X61552D01*
Y8303D01*
X60462Y8087D01*
X59538Y7469D01*
X59538Y7469D01*
X41928Y-10141D01*
X41711Y-10466D01*
X40441Y-10080D01*
Y4700D01*
X47204D01*
Y13430D01*
X47204Y13748D01*
X47204D01*
Y14700D01*
X47204D01*
Y16288D01*
X61552D01*
Y14126D01*
X82600D01*
Y17476D01*
X92300D01*
Y38524D01*
X84576D01*
X84074Y39274D01*
Y41498D01*
X83223Y43551D01*
X81651Y45123D01*
X79598Y45974D01*
X77375D01*
X75321Y45123D01*
X73749Y43551D01*
X72898Y41498D01*
Y39274D01*
X73029Y38958D01*
X70062Y35990D01*
X69444Y35066D01*
X69227Y33976D01*
X69227Y33976D01*
Y23974D01*
X61552D01*
Y21986D01*
X47204D01*
Y23748D01*
X39156D01*
Y22928D01*
X37983Y22442D01*
X36631Y23794D01*
Y30824D01*
X60108Y54301D01*
X124334D01*
Y53126D01*
X126009D01*
Y23974D01*
X117700D01*
Y38524D01*
X107852D01*
Y17476D01*
X117552D01*
Y14126D01*
X138600D01*
Y23974D01*
X131707D01*
Y53126D01*
X133382D01*
Y61174D01*
X131707D01*
Y68906D01*
X133652D01*
Y80954D01*
X134484Y81879D01*
X143601D01*
X289505Y-64024D01*
Y-196700D01*
X284329Y-201875D01*
X274711D01*
X263861Y-191026D01*
X262937Y-190408D01*
X261847Y-190191D01*
X261847Y-190191D01*
X255763D01*
X255449Y-189020D01*
X254078Y-186646D01*
X252139Y-184707D01*
X249764Y-183336D01*
X247116Y-182626D01*
X244374D01*
X241725Y-183336D01*
X239350Y-184707D01*
X237411Y-186646D01*
X236040Y-189020D01*
X235727Y-190191D01*
X229409D01*
X229409Y-190191D01*
X228319Y-190408D01*
X227394Y-191026D01*
X227394Y-191026D01*
X222014Y-196406D01*
X220875Y-195749D01*
X221234Y-194411D01*
Y-191669D01*
X220524Y-189020D01*
X219153Y-186646D01*
X217214Y-184707D01*
X214839Y-183336D01*
X212191Y-182626D01*
X209449D01*
X206800Y-183336D01*
X205750Y-183942D01*
X184459Y-162650D01*
Y-159808D01*
X184775Y-159677D01*
X186347Y-158105D01*
X187198Y-156052D01*
Y-153828D01*
X186347Y-151775D01*
X184775Y-150203D01*
X182722Y-149352D01*
X180499D01*
X178445Y-150203D01*
X176873Y-151775D01*
X176022Y-153828D01*
Y-156052D01*
X176873Y-158105D01*
X178445Y-159677D01*
X178761Y-159808D01*
Y-163830D01*
X178761Y-163830D01*
X178978Y-164921D01*
X179596Y-165845D01*
X201721Y-187971D01*
X201115Y-189020D01*
X200406Y-191669D01*
Y-194411D01*
X201115Y-197060D01*
X202486Y-199434D01*
X204425Y-201373D01*
X206800Y-202744D01*
X209449Y-203454D01*
X212191D01*
X213528Y-203096D01*
X214186Y-204234D01*
X203718Y-214702D01*
X-94338D01*
X-104316Y-204724D01*
X-103790Y-203454D01*
X-102134D01*
X-99486Y-202744D01*
X-97111Y-201373D01*
X-95172Y-199434D01*
X-93801Y-197060D01*
X-93091Y-194411D01*
Y-191669D01*
X-93801Y-189020D01*
X-95172Y-186646D01*
X-97111Y-184707D01*
X-99486Y-183336D01*
X-102134Y-182626D01*
X-104876D01*
X-107525Y-183336D01*
X-109900Y-184707D01*
X-111838Y-186646D01*
X-113209Y-189020D01*
X-113919Y-191669D01*
Y-193325D01*
X-115189Y-193851D01*
X-118563Y-190477D01*
Y-105410D01*
X-118780Y-104320D01*
X-119398Y-103396D01*
X-119398Y-103396D01*
X-127639Y-95154D01*
X-127508Y-94838D01*
Y-92614D01*
X-128359Y-90561D01*
X-129931Y-88989D01*
X-131985Y-88138D01*
X-134207D01*
X-135835Y-88812D01*
X-137105Y-88173D01*
Y-84889D01*
X-137105Y-84889D01*
X-137322Y-83799D01*
X-137940Y-82874D01*
X-147956Y-72858D01*
X-148881Y-72240D01*
X-149971Y-72023D01*
X-149971Y-72023D01*
X-152742D01*
X-159551Y-65214D01*
X-159420Y-64898D01*
Y-62675D01*
X-160271Y-60621D01*
X-161842Y-59049D01*
X-163291Y-58449D01*
X-163445Y-57676D01*
X-164063Y-56751D01*
X-206088Y-14726D01*
X-207012Y-14108D01*
X-208102Y-13892D01*
X-208102Y-13892D01*
X-241922D01*
X-278540Y22727D01*
X-279464Y23344D01*
X-280554Y23561D01*
X-280554Y23561D01*
X-281418D01*
X-283210Y25353D01*
Y26511D01*
X-284061Y28565D01*
X-285633Y30137D01*
X-287687Y30988D01*
X-289909D01*
X-291963Y30137D01*
X-293535Y28565D01*
X-294386Y26511D01*
Y24288D01*
X-294208Y23859D01*
X-294785Y22995D01*
X-295128Y22761D01*
X-297079Y21952D01*
X-298651Y20380D01*
X-299502Y18327D01*
Y16104D01*
X-298651Y14050D01*
X-297079Y12478D01*
X-295025Y11627D01*
X-292802D01*
X-292420Y11785D01*
X-228851Y-51784D01*
X-228850Y-51784D01*
X-227926Y-52402D01*
X-226836Y-52619D01*
X-185951D01*
X-185034Y-53536D01*
X-185589Y-54777D01*
X-187480Y-55560D01*
X-189051Y-57132D01*
X-189902Y-59186D01*
Y-61409D01*
X-189051Y-63462D01*
X-187480Y-65034D01*
X-187163Y-65165D01*
Y-95275D01*
X-187163Y-95275D01*
X-186946Y-96365D01*
X-186329Y-97289D01*
X-184459Y-99159D01*
Y-130265D01*
X-238136Y-183942D01*
X-239185Y-183336D01*
X-241834Y-182626D01*
X-244576D01*
X-247225Y-183336D01*
X-249599Y-184707D01*
X-251538Y-186646D01*
X-252909Y-189020D01*
X-253619Y-191669D01*
Y-194411D01*
X-252909Y-197060D01*
X-251538Y-199434D01*
X-249599Y-201373D01*
X-247225Y-202744D01*
X-244576Y-203454D01*
X-241834D01*
X-239185Y-202744D01*
X-236811Y-201373D01*
X-234872Y-199434D01*
X-233501Y-197060D01*
X-232791Y-194411D01*
Y-191669D01*
X-233501Y-189020D01*
X-234107Y-187971D01*
X-212302Y-166166D01*
X-211129Y-166652D01*
Y-183022D01*
X-212300Y-183336D01*
X-214674Y-184707D01*
X-216613Y-186646D01*
X-217984Y-189020D01*
X-218694Y-191669D01*
Y-194411D01*
X-217984Y-197060D01*
X-216613Y-199434D01*
X-214674Y-201373D01*
X-212300Y-202744D01*
X-209651Y-203454D01*
X-206909D01*
X-204260Y-202744D01*
X-201886Y-201373D01*
X-199947Y-199434D01*
X-198576Y-197060D01*
X-197866Y-194411D01*
Y-191669D01*
X-198576Y-189020D01*
X-199947Y-186646D01*
X-201886Y-184707D01*
X-204260Y-183336D01*
X-205431Y-183022D01*
Y-165042D01*
X-168928Y-128539D01*
X-168928Y-128539D01*
X-168310Y-127614D01*
X-168093Y-126524D01*
X-168093Y-126524D01*
Y-69700D01*
X-167037Y-68994D01*
X-166119Y-69374D01*
X-163896D01*
X-163580Y-69243D01*
X-155936Y-76886D01*
X-155936Y-76886D01*
X-155012Y-77504D01*
X-153922Y-77721D01*
X-151151D01*
X-142803Y-86069D01*
Y-183540D01*
X-144824Y-184707D01*
X-146763Y-186646D01*
X-148134Y-189020D01*
X-148844Y-191669D01*
Y-194411D01*
X-148134Y-197060D01*
X-146763Y-199434D01*
X-144824Y-201373D01*
X-142450Y-202744D01*
X-139801Y-203454D01*
X-137059D01*
X-134410Y-202744D01*
X-132036Y-201373D01*
X-130097Y-199434D01*
X-128726Y-197060D01*
X-128016Y-194411D01*
Y-191669D01*
X-128726Y-189020D01*
X-130097Y-186646D01*
X-132036Y-184707D01*
X-134410Y-183336D01*
X-137059Y-182626D01*
X-137105D01*
Y-99279D01*
X-135835Y-98640D01*
X-134207Y-99314D01*
X-131985D01*
X-131668Y-99183D01*
X-124261Y-106590D01*
Y-191657D01*
X-124261Y-191657D01*
X-124044Y-192747D01*
X-123426Y-193671D01*
X-97532Y-219565D01*
X-97532Y-219565D01*
X-96608Y-220183D01*
X-95518Y-220400D01*
X-95518Y-220400D01*
X204898D01*
X204898Y-220400D01*
X205988Y-220183D01*
X206912Y-219565D01*
X230589Y-195889D01*
X235727D01*
X236040Y-197060D01*
X237411Y-199434D01*
X239350Y-201373D01*
X241725Y-202744D01*
X244374Y-203454D01*
X247116D01*
X249764Y-202744D01*
X252139Y-201373D01*
X254078Y-199434D01*
X255449Y-197060D01*
X255763Y-195889D01*
X260667D01*
X271516Y-206738D01*
X271516Y-206738D01*
X272441Y-207356D01*
X273531Y-207573D01*
X285509D01*
X285509Y-207573D01*
X286599Y-207356D01*
X287524Y-206738D01*
X294368Y-199894D01*
X294368Y-199894D01*
X294986Y-198970D01*
X295202Y-197880D01*
X295202Y-197880D01*
Y-62844D01*
X295202Y-62844D01*
X294986Y-61754D01*
X294368Y-60830D01*
X146796Y86742D01*
X77485Y156053D01*
X77972Y157226D01*
X78327D01*
X80381Y158077D01*
X81953Y159649D01*
X82804Y161702D01*
Y163925D01*
X81953Y165979D01*
X80381Y167551D01*
X80065Y167682D01*
Y210566D01*
X80065Y210566D01*
X79848Y211656D01*
X79230Y212580D01*
X79230Y212580D01*
X58910Y232900D01*
X57986Y233518D01*
X56896Y233735D01*
X56896Y233735D01*
X-143346D01*
X-154732Y245121D01*
X-154126Y246170D01*
X-153416Y248819D01*
Y251561D01*
X-154126Y254210D01*
X-155497Y256584D01*
X-157436Y258523D01*
X-159810Y259894D01*
X-162459Y260604D01*
D02*
G37*
G36*
X-36896Y72644D02*
X-39304D01*
X-41630Y72021D01*
X-43714Y70817D01*
X-45417Y69114D01*
X-46621Y67030D01*
X-47244Y64704D01*
Y62296D01*
X-46621Y59970D01*
X-45417Y57885D01*
X-43714Y56183D01*
X-41630Y54979D01*
X-39304Y54356D01*
X-36896D01*
X-34571Y54979D01*
X-32485Y56183D01*
X-30783Y57885D01*
X-29579Y59970D01*
X-28956Y62296D01*
Y64704D01*
X-29579Y67030D01*
X-30783Y69114D01*
X-32485Y70817D01*
X-34571Y72021D01*
X-36896Y72644D01*
D02*
G37*
G36*
X-65962Y77398D02*
X-77010D01*
Y65350D01*
X-75065D01*
Y59650D01*
X-76740D01*
Y55631D01*
X-79552Y52818D01*
X-80170Y51894D01*
X-80387Y50804D01*
X-80387Y50804D01*
Y47812D01*
X-81662Y46537D01*
X-168402D01*
X-168402Y46537D01*
X-169492Y46320D01*
X-170416Y45702D01*
X-183370Y32748D01*
X-183988Y31824D01*
X-184205Y30734D01*
X-184205Y30734D01*
Y25138D01*
X-184205Y25138D01*
X-183988Y24048D01*
X-183370Y23124D01*
X-169632Y9385D01*
Y4366D01*
X-168457D01*
Y-42926D01*
X-168457Y-42926D01*
X-168240Y-44016D01*
X-167622Y-44940D01*
X-155249Y-57314D01*
Y-58467D01*
X-155249Y-58467D01*
X-155032Y-59557D01*
X-154414Y-60481D01*
X-150397Y-64498D01*
X-150397Y-64498D01*
X-150076Y-64713D01*
X-149465Y-65324D01*
Y-66483D01*
X-148614Y-68537D01*
X-147042Y-70108D01*
X-144988Y-70959D01*
X-142765D01*
X-140711Y-70108D01*
X-140388Y-69785D01*
X-138508Y-71665D01*
Y-79684D01*
X-127460D01*
Y-71665D01*
X-125668Y-69872D01*
X-125668Y-69872D01*
X-125050Y-68948D01*
X-124833Y-67858D01*
X-124833Y-67858D01*
Y-59650D01*
X-123158D01*
Y-51602D01*
X-124833D01*
Y-49686D01*
X-113671Y-38524D01*
X-107852D01*
Y-17476D01*
X-117552D01*
Y-14126D01*
X-138600D01*
Y-23974D01*
X-130925D01*
Y-30914D01*
X-132195Y-31167D01*
X-132423Y-30617D01*
X-133995Y-29045D01*
X-136048Y-28194D01*
X-138272D01*
X-138588Y-28325D01*
X-153107Y-13806D01*
Y-11980D01*
X-152791Y-11849D01*
X-151219Y-10277D01*
X-150930Y-9580D01*
X-138600D01*
Y-11274D01*
X-117552D01*
Y-1426D01*
X-138600D01*
Y-3882D01*
X-151283D01*
X-152791Y-2375D01*
X-154845Y-1524D01*
X-157067D01*
X-159121Y-2375D01*
X-160693Y-3947D01*
X-161544Y-6000D01*
X-162759Y-5868D01*
Y4366D01*
X-161584D01*
Y13096D01*
X-161584Y13414D01*
X-161584D01*
Y14366D01*
X-161584D01*
Y16121D01*
X-138600D01*
Y14126D01*
X-117552D01*
Y17476D01*
X-107852D01*
Y38524D01*
X-117700D01*
Y23974D01*
X-138600D01*
Y21819D01*
X-161584D01*
Y23414D01*
X-162759D01*
Y25760D01*
X-162189Y25997D01*
X-160617Y27569D01*
X-159766Y29622D01*
Y31846D01*
X-160617Y33899D01*
X-162189Y35471D01*
X-164242Y36322D01*
X-166465D01*
X-168519Y35471D01*
X-170091Y33899D01*
X-170942Y31846D01*
Y29622D01*
X-170091Y27569D01*
X-168519Y25997D01*
X-168457Y25971D01*
Y23414D01*
X-169632D01*
Y19102D01*
X-170805Y18616D01*
X-178507Y26318D01*
Y29554D01*
X-167222Y40839D01*
X-80482D01*
X-80482Y40839D01*
X-79392Y41056D01*
X-78467Y41674D01*
X-76335Y43806D01*
X-75065Y43280D01*
Y23974D01*
X-82452D01*
Y38524D01*
X-92300D01*
Y17476D01*
X-82600D01*
Y14126D01*
X-61552D01*
Y23974D01*
X-69367D01*
Y51602D01*
X-67692D01*
Y59650D01*
X-69367D01*
Y65350D01*
X-65962D01*
Y77398D01*
D02*
G37*
G36*
X184332Y29034D02*
X172284D01*
Y22015D01*
X170818Y20549D01*
X163282D01*
Y22224D01*
X155234D01*
Y20549D01*
X151979D01*
X151979Y20549D01*
X150889Y20332D01*
X149964Y19714D01*
X149964Y19714D01*
X139870Y9620D01*
X138600Y10146D01*
Y11274D01*
X117552D01*
Y1426D01*
X138600D01*
Y3501D01*
X140628D01*
X140629Y3501D01*
X141719Y3718D01*
X142643Y4336D01*
X153159Y14851D01*
X155234D01*
Y13176D01*
X163282D01*
Y14851D01*
X171998D01*
X171998Y14851D01*
X173088Y15068D01*
X174012Y15686D01*
X176313Y17986D01*
X184332D01*
Y29034D01*
D02*
G37*
G36*
X105000Y38524D02*
X95152D01*
Y17476D01*
X105000D01*
Y38524D01*
D02*
G37*
G36*
X-95152D02*
X-105000D01*
Y17476D01*
X-95152D01*
Y38524D01*
D02*
G37*
G36*
X-40592Y37774D02*
X-51640D01*
Y25726D01*
X-47807D01*
Y18668D01*
X-48982D01*
Y13649D01*
X-53432Y9199D01*
X-61552D01*
Y11274D01*
X-82600D01*
Y1426D01*
X-61552D01*
Y3501D01*
X-52252D01*
X-52252Y3501D01*
X-51162Y3718D01*
X-50238Y4336D01*
X-44953Y9620D01*
X-40934D01*
Y18668D01*
X-42109D01*
Y25726D01*
X-40592D01*
Y37774D01*
D02*
G37*
G36*
X-117552Y11274D02*
X-138600D01*
Y8818D01*
X-142901D01*
X-144409Y10325D01*
X-146462Y11176D01*
X-148686D01*
X-150739Y10325D01*
X-152311Y8753D01*
X-153162Y6700D01*
Y4476D01*
X-152311Y2423D01*
X-150739Y851D01*
X-148686Y0D01*
X-146462D01*
X-144409Y851D01*
X-142837Y2423D01*
X-142548Y3120D01*
X-138600D01*
Y1426D01*
X-117552D01*
Y11274D01*
D02*
G37*
G36*
X138600Y-14126D02*
X117552D01*
Y-17476D01*
X107852D01*
Y-38524D01*
X117700D01*
Y-23974D01*
X138600D01*
Y-22454D01*
X155234D01*
Y-24684D01*
X163282D01*
Y-23009D01*
X172008D01*
X172284Y-23285D01*
Y-30304D01*
X184332D01*
Y-19256D01*
X176313D01*
X175202Y-18146D01*
X174278Y-17528D01*
X173188Y-17311D01*
X173188Y-17311D01*
X163282D01*
Y-15636D01*
X155234D01*
Y-16756D01*
X138600D01*
Y-14126D01*
D02*
G37*
G36*
X-61552D02*
X-82600D01*
Y-17476D01*
X-92300D01*
Y-38524D01*
X-82452D01*
Y-23974D01*
X-75827D01*
Y-52364D01*
X-77502D01*
Y-60412D01*
X-75827D01*
Y-68652D01*
X-80312D01*
Y-80700D01*
X-69264D01*
Y-68652D01*
X-70129D01*
Y-60412D01*
X-68454D01*
Y-52364D01*
X-70129D01*
Y-23974D01*
X-61552D01*
Y-14126D01*
D02*
G37*
G36*
X39304Y-79756D02*
X36896D01*
X34571Y-80379D01*
X32485Y-81583D01*
X30783Y-83286D01*
X29579Y-85371D01*
X28956Y-87696D01*
Y-90104D01*
X29579Y-92430D01*
X30783Y-94515D01*
X32485Y-96217D01*
X34571Y-97421D01*
X36896Y-98044D01*
X39304D01*
X41630Y-97421D01*
X43714Y-96217D01*
X45417Y-94515D01*
X46621Y-92430D01*
X47244Y-90104D01*
Y-87696D01*
X46621Y-85371D01*
X45417Y-83286D01*
X43714Y-81583D01*
X41630Y-80379D01*
X39304Y-79756D01*
D02*
G37*
G36*
Y-105156D02*
X36896D01*
X34571Y-105779D01*
X32485Y-106983D01*
X30783Y-108686D01*
X29579Y-110771D01*
X28956Y-113096D01*
Y-115504D01*
X29579Y-117830D01*
X30783Y-119915D01*
X32485Y-121617D01*
X34571Y-122821D01*
X36896Y-123444D01*
X39304D01*
X41630Y-122821D01*
X43714Y-121617D01*
X45417Y-119915D01*
X46621Y-117830D01*
X47244Y-115504D01*
Y-113096D01*
X46621Y-110771D01*
X45417Y-108686D01*
X43714Y-106983D01*
X41630Y-105779D01*
X39304Y-105156D01*
D02*
G37*
G36*
X-36896D02*
X-39304D01*
X-41630Y-105779D01*
X-43714Y-106983D01*
X-45417Y-108686D01*
X-46621Y-110771D01*
X-47244Y-113096D01*
Y-115504D01*
X-46621Y-117830D01*
X-45417Y-119915D01*
X-43714Y-121617D01*
X-41630Y-122821D01*
X-39304Y-123444D01*
X-36896D01*
X-34571Y-122821D01*
X-32485Y-121617D01*
X-30783Y-119915D01*
X-29579Y-117830D01*
X-28956Y-115504D01*
Y-113096D01*
X-29579Y-110771D01*
X-30783Y-108686D01*
X-32485Y-106983D01*
X-34571Y-105779D01*
X-36896Y-105156D01*
D02*
G37*
G36*
X16860Y-93472D02*
X14636D01*
X12583Y-94323D01*
X11011Y-95895D01*
X10160Y-97949D01*
Y-100171D01*
X11011Y-102225D01*
X12583Y-103797D01*
X12899Y-103928D01*
Y-107532D01*
X-63511Y-183942D01*
X-64560Y-183336D01*
X-67209Y-182626D01*
X-69951D01*
X-72600Y-183336D01*
X-74974Y-184707D01*
X-76913Y-186646D01*
X-78285Y-189020D01*
X-78994Y-191669D01*
Y-194411D01*
X-78285Y-197060D01*
X-76913Y-199434D01*
X-74974Y-201373D01*
X-72600Y-202744D01*
X-69951Y-203454D01*
X-67209D01*
X-64560Y-202744D01*
X-62186Y-201373D01*
X-60247Y-199434D01*
X-58876Y-197060D01*
X-58166Y-194411D01*
Y-191669D01*
X-58876Y-189020D01*
X-59482Y-187971D01*
X17762Y-110726D01*
X17762Y-110726D01*
X18380Y-109802D01*
X18597Y-108712D01*
X18597Y-108712D01*
Y-103928D01*
X18913Y-103797D01*
X20485Y-102225D01*
X21336Y-100171D01*
Y-97949D01*
X20485Y-95895D01*
X18913Y-94323D01*
X16860Y-93472D01*
D02*
G37*
G36*
X96362Y-92202D02*
X94138D01*
X92085Y-93053D01*
X90513Y-94625D01*
X89662Y-96678D01*
Y-98902D01*
X90513Y-100955D01*
X92085Y-102527D01*
X92401Y-102658D01*
Y-120740D01*
X69105Y-144036D01*
X68488Y-144960D01*
X68271Y-146050D01*
X68271Y-146050D01*
Y-183022D01*
X67100Y-183336D01*
X64725Y-184707D01*
X62786Y-186646D01*
X61415Y-189020D01*
X60706Y-191669D01*
Y-194411D01*
X61415Y-197060D01*
X62786Y-199434D01*
X63957Y-200605D01*
X63431Y-201875D01*
X43883D01*
X43357Y-200605D01*
X44528Y-199434D01*
X45899Y-197060D01*
X46609Y-194411D01*
Y-191669D01*
X45899Y-189020D01*
X44528Y-186646D01*
X42589Y-184707D01*
X40214Y-183336D01*
X37566Y-182626D01*
X34824D01*
X32175Y-183336D01*
X29800Y-184707D01*
X27861Y-186646D01*
X26490Y-189020D01*
X25781Y-191669D01*
Y-193325D01*
X24511Y-193851D01*
X22407Y-191747D01*
Y-182414D01*
X22723Y-182283D01*
X24295Y-180711D01*
X25146Y-178657D01*
Y-176434D01*
X24295Y-174381D01*
X22723Y-172809D01*
X20670Y-171958D01*
X18447D01*
X16393Y-172809D01*
X14821Y-174381D01*
X13970Y-176434D01*
Y-178657D01*
X14821Y-180711D01*
X16393Y-182283D01*
X16709Y-182414D01*
Y-192927D01*
X16709Y-192927D01*
X16926Y-194017D01*
X17544Y-194941D01*
X29341Y-206738D01*
X29341Y-206738D01*
X30265Y-207356D01*
X31355Y-207573D01*
X31355Y-207573D01*
X110884D01*
X110884Y-207573D01*
X111975Y-207356D01*
X112899Y-206738D01*
X123748Y-195889D01*
X130952D01*
X131265Y-197060D01*
X132636Y-199434D01*
X134575Y-201373D01*
X136950Y-202744D01*
X139599Y-203454D01*
X142341D01*
X144989Y-202744D01*
X147364Y-201373D01*
X149303Y-199434D01*
X150674Y-197060D01*
X151384Y-194411D01*
Y-191669D01*
X150674Y-189020D01*
X149303Y-186646D01*
X147364Y-184707D01*
X144989Y-183336D01*
X142341Y-182626D01*
X139599D01*
X136950Y-183336D01*
X134575Y-184707D01*
X132636Y-186646D01*
X131265Y-189020D01*
X130952Y-190191D01*
X122568D01*
X121478Y-190408D01*
X120554Y-191026D01*
X120554Y-191026D01*
X117729Y-193851D01*
X116459Y-193325D01*
Y-191669D01*
X115749Y-189020D01*
X114378Y-186646D01*
X112439Y-184707D01*
X110064Y-183336D01*
X107416Y-182626D01*
X104674D01*
X102025Y-183336D01*
X99650Y-184707D01*
X97711Y-186646D01*
X96340Y-189020D01*
X95631Y-191669D01*
Y-194411D01*
X96340Y-197060D01*
X97711Y-199434D01*
X98882Y-200605D01*
X98356Y-201875D01*
X78808D01*
X78282Y-200605D01*
X79453Y-199434D01*
X80824Y-197060D01*
X81534Y-194411D01*
Y-191669D01*
X80824Y-189020D01*
X79453Y-186646D01*
X77514Y-184707D01*
X75139Y-183336D01*
X73969Y-183022D01*
Y-172313D01*
X75238Y-171787D01*
X76337Y-172885D01*
X78390Y-173736D01*
X80613D01*
X82667Y-172885D01*
X84239Y-171313D01*
X84370Y-170997D01*
X149823D01*
X166796Y-187971D01*
X166190Y-189020D01*
X165481Y-191669D01*
Y-194411D01*
X166190Y-197060D01*
X167561Y-199434D01*
X169500Y-201373D01*
X171875Y-202744D01*
X174524Y-203454D01*
X177266D01*
X179914Y-202744D01*
X182289Y-201373D01*
X184228Y-199434D01*
X185599Y-197060D01*
X186309Y-194411D01*
Y-191669D01*
X185599Y-189020D01*
X184228Y-186646D01*
X182289Y-184707D01*
X179914Y-183336D01*
X177266Y-182626D01*
X174524D01*
X171875Y-183336D01*
X170825Y-183942D01*
X153017Y-166134D01*
X152093Y-165516D01*
X151003Y-165299D01*
X151003Y-165299D01*
X84370D01*
X84239Y-164983D01*
X82667Y-163411D01*
X80613Y-162560D01*
X78390D01*
X76337Y-163411D01*
X75238Y-164509D01*
X73969Y-163983D01*
Y-147230D01*
X97264Y-123934D01*
X97882Y-123010D01*
X98099Y-121920D01*
X98099Y-121920D01*
Y-102658D01*
X98415Y-102527D01*
X99987Y-100955D01*
X100838Y-98902D01*
Y-96678D01*
X99987Y-94625D01*
X98415Y-93053D01*
X96362Y-92202D01*
D02*
G37*
G36*
X2641Y-182626D02*
X-101D01*
X-2750Y-183336D01*
X-5125Y-184707D01*
X-7064Y-186646D01*
X-8435Y-189020D01*
X-9144Y-191669D01*
Y-194411D01*
X-8435Y-197060D01*
X-7064Y-199434D01*
X-5125Y-201373D01*
X-2750Y-202744D01*
X-101Y-203454D01*
X2641D01*
X5289Y-202744D01*
X7664Y-201373D01*
X9603Y-199434D01*
X10974Y-197060D01*
X11684Y-194411D01*
Y-191669D01*
X10974Y-189020D01*
X9603Y-186646D01*
X7664Y-184707D01*
X5289Y-183336D01*
X2641Y-182626D01*
D02*
G37*
G36*
X-32284D02*
X-35026D01*
X-37675Y-183336D01*
X-40050Y-184707D01*
X-41989Y-186646D01*
X-43359Y-189020D01*
X-44069Y-191669D01*
Y-194411D01*
X-43359Y-197060D01*
X-41989Y-199434D01*
X-40050Y-201373D01*
X-37675Y-202744D01*
X-35026Y-203454D01*
X-32284D01*
X-29636Y-202744D01*
X-27261Y-201373D01*
X-25322Y-199434D01*
X-23951Y-197060D01*
X-23241Y-194411D01*
Y-191669D01*
X-23951Y-189020D01*
X-25322Y-186646D01*
X-27261Y-184707D01*
X-29636Y-183336D01*
X-32284Y-182626D01*
D02*
G37*
G36*
X-171984D02*
X-174726D01*
X-177375Y-183336D01*
X-179749Y-184707D01*
X-181688Y-186646D01*
X-183059Y-189020D01*
X-183769Y-191669D01*
Y-194411D01*
X-183059Y-197060D01*
X-181688Y-199434D01*
X-179749Y-201373D01*
X-177375Y-202744D01*
X-174726Y-203454D01*
X-171984D01*
X-169335Y-202744D01*
X-166961Y-201373D01*
X-165022Y-199434D01*
X-163651Y-197060D01*
X-162941Y-194411D01*
Y-191669D01*
X-163651Y-189020D01*
X-165022Y-186646D01*
X-166961Y-184707D01*
X-169335Y-183336D01*
X-171984Y-182626D01*
D02*
G37*
G36*
X-276759D02*
X-279501D01*
X-282150Y-183336D01*
X-284524Y-184707D01*
X-286463Y-186646D01*
X-287834Y-189020D01*
X-288544Y-191669D01*
Y-194411D01*
X-287834Y-197060D01*
X-286463Y-199434D01*
X-284524Y-201373D01*
X-282150Y-202744D01*
X-279501Y-203454D01*
X-276759D01*
X-274110Y-202744D01*
X-271736Y-201373D01*
X-269797Y-199434D01*
X-268426Y-197060D01*
X-267716Y-194411D01*
Y-191669D01*
X-268426Y-189020D01*
X-269797Y-186646D01*
X-271736Y-184707D01*
X-274110Y-183336D01*
X-276759Y-182626D01*
D02*
G37*
G36*
X281857Y-222123D02*
X279482D01*
X277189Y-222738D01*
X275133Y-223925D01*
X273454Y-225603D01*
X272267Y-227660D01*
X271653Y-229953D01*
Y-232327D01*
X272267Y-234620D01*
X273454Y-236677D01*
X275133Y-238355D01*
X277189Y-239543D01*
X279482Y-240157D01*
X281857D01*
X284150Y-239543D01*
X286206Y-238355D01*
X287885Y-236677D01*
X289072Y-234620D01*
X289687Y-232327D01*
Y-229953D01*
X289072Y-227660D01*
X287885Y-225603D01*
X286206Y-223925D01*
X284150Y-222738D01*
X281857Y-222123D01*
D02*
G37*
G36*
X246932D02*
X244557D01*
X242264Y-222738D01*
X240208Y-223925D01*
X238529Y-225603D01*
X237342Y-227660D01*
X236728Y-229953D01*
Y-232327D01*
X237342Y-234620D01*
X238529Y-236677D01*
X240208Y-238355D01*
X242264Y-239543D01*
X244557Y-240157D01*
X246932D01*
X249225Y-239543D01*
X251281Y-238355D01*
X252960Y-236677D01*
X254147Y-234620D01*
X254762Y-232327D01*
Y-229953D01*
X254147Y-227660D01*
X252960Y-225603D01*
X251281Y-223925D01*
X249225Y-222738D01*
X246932Y-222123D01*
D02*
G37*
G36*
X212007D02*
X209632D01*
X207339Y-222738D01*
X205283Y-223925D01*
X203604Y-225603D01*
X202417Y-227660D01*
X201803Y-229953D01*
Y-232327D01*
X202417Y-234620D01*
X203604Y-236677D01*
X205283Y-238355D01*
X207339Y-239543D01*
X209632Y-240157D01*
X212007D01*
X214300Y-239543D01*
X216356Y-238355D01*
X218035Y-236677D01*
X219222Y-234620D01*
X219837Y-232327D01*
Y-229953D01*
X219222Y-227660D01*
X218035Y-225603D01*
X216356Y-223925D01*
X214300Y-222738D01*
X212007Y-222123D01*
D02*
G37*
G36*
X177082D02*
X174708D01*
X172414Y-222738D01*
X170358Y-223925D01*
X168679Y-225603D01*
X167492Y-227660D01*
X166878Y-229953D01*
Y-232327D01*
X167492Y-234620D01*
X168679Y-236677D01*
X170358Y-238355D01*
X172414Y-239543D01*
X174708Y-240157D01*
X177082D01*
X179375Y-239543D01*
X181431Y-238355D01*
X183110Y-236677D01*
X184297Y-234620D01*
X184912Y-232327D01*
Y-229953D01*
X184297Y-227660D01*
X183110Y-225603D01*
X181431Y-223925D01*
X179375Y-222738D01*
X177082Y-222123D01*
D02*
G37*
G36*
X142157D02*
X139783D01*
X137489Y-222738D01*
X135433Y-223925D01*
X133754Y-225603D01*
X132567Y-227660D01*
X131953Y-229953D01*
Y-232327D01*
X132567Y-234620D01*
X133754Y-236677D01*
X135433Y-238355D01*
X137489Y-239543D01*
X139783Y-240157D01*
X142157D01*
X144450Y-239543D01*
X146506Y-238355D01*
X148185Y-236677D01*
X149372Y-234620D01*
X149987Y-232327D01*
Y-229953D01*
X149372Y-227660D01*
X148185Y-225603D01*
X146506Y-223925D01*
X144450Y-222738D01*
X142157Y-222123D01*
D02*
G37*
G36*
X107232D02*
X104858D01*
X102564Y-222738D01*
X100508Y-223925D01*
X98829Y-225603D01*
X97642Y-227660D01*
X97028Y-229953D01*
Y-232327D01*
X97642Y-234620D01*
X98829Y-236677D01*
X100508Y-238355D01*
X102564Y-239543D01*
X104858Y-240157D01*
X107232D01*
X109525Y-239543D01*
X111581Y-238355D01*
X113260Y-236677D01*
X114447Y-234620D01*
X115062Y-232327D01*
Y-229953D01*
X114447Y-227660D01*
X113260Y-225603D01*
X111581Y-223925D01*
X109525Y-222738D01*
X107232Y-222123D01*
D02*
G37*
G36*
X72307D02*
X69933D01*
X67639Y-222738D01*
X65583Y-223925D01*
X63904Y-225603D01*
X62717Y-227660D01*
X62103Y-229953D01*
Y-232327D01*
X62717Y-234620D01*
X63904Y-236677D01*
X65583Y-238355D01*
X67639Y-239543D01*
X69933Y-240157D01*
X72307D01*
X74600Y-239543D01*
X76656Y-238355D01*
X78335Y-236677D01*
X79522Y-234620D01*
X80137Y-232327D01*
Y-229953D01*
X79522Y-227660D01*
X78335Y-225603D01*
X76656Y-223925D01*
X74600Y-222738D01*
X72307Y-222123D01*
D02*
G37*
G36*
X37382D02*
X35008D01*
X32714Y-222738D01*
X30658Y-223925D01*
X28979Y-225603D01*
X27792Y-227660D01*
X27178Y-229953D01*
Y-232327D01*
X27792Y-234620D01*
X28979Y-236677D01*
X30658Y-238355D01*
X32714Y-239543D01*
X35008Y-240157D01*
X37382D01*
X39675Y-239543D01*
X41731Y-238355D01*
X43410Y-236677D01*
X44597Y-234620D01*
X45212Y-232327D01*
Y-229953D01*
X44597Y-227660D01*
X43410Y-225603D01*
X41731Y-223925D01*
X39675Y-222738D01*
X37382Y-222123D01*
D02*
G37*
G36*
X2457D02*
X83D01*
X-2211Y-222738D01*
X-4267Y-223925D01*
X-5946Y-225603D01*
X-7133Y-227660D01*
X-7747Y-229953D01*
Y-232327D01*
X-7133Y-234620D01*
X-5946Y-236677D01*
X-4267Y-238355D01*
X-2211Y-239543D01*
X83Y-240157D01*
X2457D01*
X4750Y-239543D01*
X6806Y-238355D01*
X8485Y-236677D01*
X9672Y-234620D01*
X10287Y-232327D01*
Y-229953D01*
X9672Y-227660D01*
X8485Y-225603D01*
X6806Y-223925D01*
X4750Y-222738D01*
X2457Y-222123D01*
D02*
G37*
G36*
X-32468D02*
X-34842D01*
X-37136Y-222738D01*
X-39192Y-223925D01*
X-40871Y-225603D01*
X-42058Y-227660D01*
X-42672Y-229953D01*
Y-232327D01*
X-42058Y-234620D01*
X-40871Y-236677D01*
X-39192Y-238355D01*
X-37136Y-239543D01*
X-34842Y-240157D01*
X-32468D01*
X-30175Y-239543D01*
X-28119Y-238355D01*
X-26440Y-236677D01*
X-25253Y-234620D01*
X-24638Y-232327D01*
Y-229953D01*
X-25253Y-227660D01*
X-26440Y-225603D01*
X-28119Y-223925D01*
X-30175Y-222738D01*
X-32468Y-222123D01*
D02*
G37*
G36*
X-67393D02*
X-69767D01*
X-72061Y-222738D01*
X-74117Y-223925D01*
X-75795Y-225603D01*
X-76983Y-227660D01*
X-77597Y-229953D01*
Y-232327D01*
X-76983Y-234620D01*
X-75795Y-236677D01*
X-74117Y-238355D01*
X-72061Y-239543D01*
X-69767Y-240157D01*
X-67393D01*
X-65100Y-239543D01*
X-63044Y-238355D01*
X-61365Y-236677D01*
X-60178Y-234620D01*
X-59563Y-232327D01*
Y-229953D01*
X-60178Y-227660D01*
X-61365Y-225603D01*
X-63044Y-223925D01*
X-65100Y-222738D01*
X-67393Y-222123D01*
D02*
G37*
G36*
X-102318D02*
X-104692D01*
X-106986Y-222738D01*
X-109042Y-223925D01*
X-110721Y-225603D01*
X-111908Y-227660D01*
X-112522Y-229953D01*
Y-232327D01*
X-111908Y-234620D01*
X-110721Y-236677D01*
X-109042Y-238355D01*
X-106986Y-239543D01*
X-104692Y-240157D01*
X-102318D01*
X-100025Y-239543D01*
X-97969Y-238355D01*
X-96290Y-236677D01*
X-95103Y-234620D01*
X-94488Y-232327D01*
Y-229953D01*
X-95103Y-227660D01*
X-96290Y-225603D01*
X-97969Y-223925D01*
X-100025Y-222738D01*
X-102318Y-222123D01*
D02*
G37*
G36*
X-137243D02*
X-139617D01*
X-141910Y-222738D01*
X-143967Y-223925D01*
X-145646Y-225603D01*
X-146833Y-227660D01*
X-147447Y-229953D01*
Y-232327D01*
X-146833Y-234620D01*
X-145646Y-236677D01*
X-143967Y-238355D01*
X-141910Y-239543D01*
X-139617Y-240157D01*
X-137243D01*
X-134950Y-239543D01*
X-132893Y-238355D01*
X-131215Y-236677D01*
X-130028Y-234620D01*
X-129413Y-232327D01*
Y-229953D01*
X-130028Y-227660D01*
X-131215Y-225603D01*
X-132893Y-223925D01*
X-134950Y-222738D01*
X-137243Y-222123D01*
D02*
G37*
G36*
X-172168D02*
X-174542D01*
X-176835Y-222738D01*
X-178892Y-223925D01*
X-180571Y-225603D01*
X-181758Y-227660D01*
X-182372Y-229953D01*
Y-232327D01*
X-181758Y-234620D01*
X-180571Y-236677D01*
X-178892Y-238355D01*
X-176835Y-239543D01*
X-174542Y-240157D01*
X-172168D01*
X-169875Y-239543D01*
X-167819Y-238355D01*
X-166140Y-236677D01*
X-164953Y-234620D01*
X-164338Y-232327D01*
Y-229953D01*
X-164953Y-227660D01*
X-166140Y-225603D01*
X-167819Y-223925D01*
X-169875Y-222738D01*
X-172168Y-222123D01*
D02*
G37*
G36*
X-207093D02*
X-209467D01*
X-211761Y-222738D01*
X-213817Y-223925D01*
X-215495Y-225603D01*
X-216682Y-227660D01*
X-217297Y-229953D01*
Y-232327D01*
X-216682Y-234620D01*
X-215495Y-236677D01*
X-213817Y-238355D01*
X-211761Y-239543D01*
X-209467Y-240157D01*
X-207093D01*
X-204800Y-239543D01*
X-202743Y-238355D01*
X-201065Y-236677D01*
X-199878Y-234620D01*
X-199263Y-232327D01*
Y-229953D01*
X-199878Y-227660D01*
X-201065Y-225603D01*
X-202743Y-223925D01*
X-204800Y-222738D01*
X-207093Y-222123D01*
D02*
G37*
G36*
X-242018D02*
X-244392D01*
X-246686Y-222738D01*
X-248742Y-223925D01*
X-250420Y-225603D01*
X-251607Y-227660D01*
X-252222Y-229953D01*
Y-232327D01*
X-251607Y-234620D01*
X-250420Y-236677D01*
X-248742Y-238355D01*
X-246686Y-239543D01*
X-244392Y-240157D01*
X-242018D01*
X-239725Y-239543D01*
X-237668Y-238355D01*
X-235990Y-236677D01*
X-234802Y-234620D01*
X-234188Y-232327D01*
Y-229953D01*
X-234802Y-227660D01*
X-235990Y-225603D01*
X-237668Y-223925D01*
X-239725Y-222738D01*
X-242018Y-222123D01*
D02*
G37*
G36*
X-276943D02*
X-279317D01*
X-281610Y-222738D01*
X-283667Y-223925D01*
X-285345Y-225603D01*
X-286532Y-227660D01*
X-287147Y-229953D01*
Y-232327D01*
X-286532Y-234620D01*
X-285345Y-236677D01*
X-283667Y-238355D01*
X-281610Y-239543D01*
X-279317Y-240157D01*
X-276943D01*
X-274650Y-239543D01*
X-272593Y-238355D01*
X-270915Y-236677D01*
X-269727Y-234620D01*
X-269113Y-232327D01*
Y-229953D01*
X-269727Y-227660D01*
X-270915Y-225603D01*
X-272593Y-223925D01*
X-274650Y-222738D01*
X-276943Y-222123D01*
D02*
G37*
%LPD*%
G36*
X-65229Y200914D02*
X-65755Y199644D01*
X-67411D01*
X-70060Y198934D01*
X-72434Y197563D01*
X-74373Y195624D01*
X-75744Y193250D01*
X-76454Y190601D01*
Y187859D01*
X-75744Y185210D01*
X-74373Y182836D01*
X-72434Y180897D01*
X-70060Y179526D01*
X-68889Y179212D01*
Y176440D01*
X-72300Y173029D01*
X-82856D01*
Y190964D01*
X-88375D01*
X-91131Y193720D01*
Y195580D01*
X-91131Y195580D01*
X-91332Y196590D01*
Y196675D01*
X-90513Y197495D01*
X-89662Y199548D01*
Y201772D01*
X-90336Y203399D01*
X-89697Y204669D01*
X-77952D01*
X-76825Y203543D01*
X-74771Y202692D01*
X-72548D01*
X-70495Y203543D01*
X-69368Y204669D01*
X-68984D01*
X-65229Y200914D01*
D02*
G37*
G36*
X-267514Y173780D02*
X-266143Y171406D01*
X-264204Y169467D01*
X-261830Y168096D01*
X-259181Y167386D01*
X-256439D01*
X-255737Y167574D01*
X-254719Y166556D01*
Y148914D01*
X-260394D01*
Y143739D01*
X-263840D01*
X-269436Y149334D01*
X-270360Y149952D01*
X-271450Y150169D01*
X-271450Y150169D01*
X-276306D01*
Y151344D01*
X-277941D01*
Y158536D01*
X-276226D01*
Y166584D01*
X-285274D01*
Y166584D01*
X-286226D01*
Y166584D01*
X-287901D01*
Y173776D01*
X-286226D01*
Y173776D01*
X-285274D01*
Y173776D01*
X-276226D01*
Y174951D01*
X-267828D01*
X-267514Y173780D01*
D02*
G37*
G36*
X74367Y209386D02*
Y167682D01*
X74051Y167551D01*
X72479Y165979D01*
X71628Y163925D01*
Y163570D01*
X70455Y163083D01*
X20040Y213498D01*
X20419Y214915D01*
X21314Y215155D01*
X22802Y216014D01*
X24016Y217228D01*
X24413Y217915D01*
X25879D01*
X26275Y217228D01*
X27490Y216014D01*
X28978Y215155D01*
X30637Y214710D01*
X32355D01*
X34014Y215155D01*
X35502Y216014D01*
X36716Y217228D01*
X37113Y217915D01*
X38579D01*
X38976Y217228D01*
X40190Y216014D01*
X41678Y215155D01*
X43337Y214710D01*
X45055D01*
X46714Y215155D01*
X48202Y216014D01*
X49416Y217228D01*
X50275Y218716D01*
X50720Y220375D01*
Y222093D01*
X50275Y223752D01*
X49416Y225240D01*
X48202Y226455D01*
X47660Y226767D01*
X48000Y228037D01*
X55716D01*
X74367Y209386D01*
D02*
G37*
G36*
X-284613Y18698D02*
X-284613Y18698D01*
X-283688Y18080D01*
X-282598Y17863D01*
X-282598Y17864D01*
X-281734D01*
X-245116Y-18755D01*
X-245116Y-18755D01*
X-244192Y-19372D01*
X-243102Y-19589D01*
X-243102Y-19589D01*
X-209282D01*
X-182414Y-46457D01*
X-183224Y-47444D01*
X-183681Y-47138D01*
X-184771Y-46921D01*
X-184772Y-46921D01*
X-225656D01*
X-288430Y15852D01*
X-288326Y16104D01*
Y18327D01*
X-288503Y18756D01*
X-287926Y19620D01*
X-287584Y19855D01*
X-286301Y20386D01*
X-284613Y18698D01*
D02*
G37*
D13*
X-104402Y207518D02*
X-67804D01*
X-125015Y108665D02*
X-124300Y107950D01*
X-151630Y130810D02*
X-151130D01*
X-167640Y95250D02*
Y114800D01*
X-151630Y130810D01*
X-123983Y91757D02*
Y107633D01*
X-124300Y107950D02*
X-123983Y107633D01*
X-125435Y107315D02*
X-124935D01*
X-167640Y95250D02*
X-137500D01*
X-125435Y107315D01*
X-6604Y221234D02*
X7774D01*
X129616Y84728D02*
X144781D01*
X7774Y221234D02*
X15568Y213440D01*
X16069D02*
X144781Y84728D01*
X15568Y213440D02*
X16069D01*
X27686Y38358D02*
X78232Y88904D01*
X27686Y22963D02*
Y38358D01*
X48006Y-16971D02*
X58627Y-6350D01*
X72076D01*
X43942Y-24336D02*
Y-12155D01*
X61552Y5455D02*
X71181D01*
X72076Y6350D01*
X43942Y-12155D02*
X61552Y5455D01*
X53340Y-51090D02*
Y-27987D01*
X48006Y-22653D02*
X53340Y-27987D01*
X-44097Y-52578D02*
X51852D01*
X53340Y-51090D01*
X-42414Y-48514D02*
X45466D01*
X48514Y-45466D01*
Y-29426D01*
X-42573Y-48354D02*
X-42414Y-48514D01*
X-53086Y-43180D02*
X-47912Y-48354D01*
X-42573D01*
X-53086Y-26416D02*
X-45720Y-19050D01*
X-53086Y-43180D02*
Y-26416D01*
X-50452Y-52418D02*
X-44257D01*
X-57150Y-45720D02*
X-50452Y-52418D01*
X-44257D02*
X-44097Y-52578D01*
X-57150Y-45720D02*
Y-13387D01*
X-24130Y-59690D02*
X-24079Y-59639D01*
X-17018D01*
X-57150Y-13387D02*
X-48163Y-4399D01*
X-17018Y-66890D02*
Y-59639D01*
X-280554Y20712D02*
X-243102Y-16740D01*
X-282598Y20712D02*
X-280554D01*
X-288798Y25400D02*
X-287286D01*
X-293914Y17215D02*
X-293821D01*
X-287286Y25400D02*
X-282598Y20712D01*
X-293821Y17215D02*
X-226836Y-49770D01*
X204898Y-217551D02*
X229409Y-193040D01*
X-95518Y-217551D02*
X204898D01*
X-166077Y-65063D02*
Y-58766D01*
X-208102Y-16740D02*
X-166077Y-58766D01*
X-164181Y-64613D02*
X-153922Y-74872D01*
X-172205Y-66287D02*
Y-59870D01*
X-184771Y-49770D02*
X-174672Y-59870D01*
X-181610Y-131445D02*
Y-97979D01*
X-153922Y-74872D02*
X-149971D01*
X-174672Y-59870D02*
X-172205D01*
X-243102Y-16740D02*
X-208102D01*
X-226836Y-49770D02*
X-184771D01*
X-149971Y-74872D02*
X-139954Y-84889D01*
X-184314Y-95275D02*
X-181610Y-97979D01*
X-184314Y-95275D02*
Y-60297D01*
X-280416Y105686D02*
X-273072D01*
X-272542Y105156D02*
X-271030D01*
X-273072Y105686D02*
X-272542Y105156D01*
X-291250Y132080D02*
X-290750D01*
X-294080Y129250D02*
X-291250Y132080D01*
X-294080Y127558D02*
Y129250D01*
X-295149Y126489D02*
X-294080Y127558D01*
X-302333Y111025D02*
X-302307Y110998D01*
X-296625D02*
X-296599Y111025D01*
X-285755D01*
X-302307Y110998D02*
X-296625D01*
X-304319Y111025D02*
X-302333D01*
X-291686Y117856D02*
X-290670Y116840D01*
X-299466Y117856D02*
X-291686D01*
X-17018Y-59639D02*
X-6807Y-69850D01*
X19558Y-192927D02*
Y-177546D01*
Y-192927D02*
X31355Y-204724D01*
X110884D01*
X122568Y-193040D01*
X140970D01*
X-6807Y-69850D02*
X21844D01*
X-145542Y-55626D02*
X-128076Y-38160D01*
Y-19050D01*
X-148383Y-62484D02*
X-148276D01*
X-145389Y-65371D02*
X-143877D01*
X-152400Y-58467D02*
X-148383Y-62484D01*
X-148276D02*
X-145389Y-65371D01*
X-152400Y-58467D02*
Y-56134D01*
X-165608Y-42926D02*
X-152400Y-56134D01*
X48006Y-22653D02*
Y-16971D01*
X43942Y-24336D02*
X44232Y-24626D01*
Y-25144D02*
Y-24626D01*
Y-25144D02*
X48514Y-29426D01*
X-155956Y-14986D02*
Y-7112D01*
Y-14986D02*
X-137160Y-33782D01*
X79502Y-168148D02*
X151003D01*
X71120Y-193040D02*
Y-146050D01*
X37592Y-37592D02*
X38100Y-38100D01*
X33822Y13383D02*
X37592Y9613D01*
Y-37592D02*
Y9613D01*
X171998Y17700D02*
X177808Y23510D01*
X178308D01*
X159258Y17700D02*
X171998D01*
X140629Y6350D02*
X151979Y17700D01*
X128076Y6350D02*
X140629D01*
X151979Y17700D02*
X159258D01*
X-121412Y-191657D02*
X-95518Y-217551D01*
X54864Y-19812D02*
X55245Y-19431D01*
X71695D02*
X72076Y-19050D01*
X55245Y-19431D02*
X71695D01*
X151003Y-168148D02*
X175895Y-193040D01*
X181610Y-163830D02*
X210820Y-193040D01*
X181610Y-163830D02*
Y-154940D01*
X229409Y-193040D02*
X245745D01*
X72076Y33976D02*
X78486Y40386D01*
X72076Y19050D02*
Y33976D01*
X71989Y19137D02*
X72076Y19050D01*
X43267Y19137D02*
X71989D01*
X43180Y19224D02*
X43267Y19137D01*
X173188Y-20160D02*
X177808Y-24780D01*
X159258Y-20160D02*
X173188D01*
X177808Y-24780D02*
X178308D01*
X128631Y-19605D02*
X158703D01*
X128076Y-19050D02*
X128631Y-19605D01*
X158703D02*
X159258Y-20160D01*
X-74788Y-74676D02*
X-72978Y-72866D01*
Y-56388D01*
X-44958Y14144D02*
Y30592D01*
X-46116Y31750D02*
X-44958Y30592D01*
X-52252Y6350D02*
X-44958Y13644D01*
X-72076Y6350D02*
X-52252D01*
X-44958Y13644D02*
Y14144D01*
X-17018Y-67390D02*
Y-66890D01*
X-18248Y-65660D02*
X-17018Y-66890D01*
X-35940Y-65660D02*
X-18248D01*
X-38100Y-63500D02*
X-35940Y-65660D01*
X-56896Y149994D02*
X-39870Y167020D01*
X-56896Y136652D02*
Y149994D01*
X-39870Y167020D02*
X-39370D01*
X-17989Y145368D02*
X-15146Y148211D01*
X-31218Y145368D02*
X-17989D01*
X-15146Y148211D02*
X-13634D01*
X-38330Y152480D02*
X-21590D01*
X-38330D02*
X-31218Y145368D01*
X-38870Y153020D02*
X-38330Y152480D01*
X-39370Y153020D02*
X-38870D01*
X-15434Y99314D02*
X-5020Y88900D01*
X-75010Y88900D02*
X-52828D01*
X-5020Y88900D02*
X38100D01*
X-42414Y99314D02*
X-15434D01*
X-52828Y88900D02*
X-42414Y99314D01*
X-254190Y229180D02*
X-250960Y232410D01*
X-246710D01*
X-271780Y229180D02*
X-254190D01*
X-274980Y225980D02*
X-271780Y229180D01*
X-292100Y225980D02*
X-274980D01*
X-292926Y226806D02*
X-292100Y225980D01*
X-292926Y226806D02*
Y232790D01*
X-293370Y233234D02*
X-292926Y232790D01*
X-293370Y233234D02*
Y241300D01*
X-125730Y182646D02*
Y186190D01*
Y181940D02*
Y182646D01*
X-39370Y167020D02*
Y179084D01*
X-67804Y207518D02*
X-39370Y179084D01*
X-125730Y186190D02*
X-104402Y207518D01*
X-144780Y184626D02*
X-127710D01*
X-125730Y182646D01*
X-158472Y179070D02*
X-152916Y184626D01*
X-144780D01*
X-158496Y179070D02*
X-158472D01*
X-189310Y107870D02*
X-177038Y120142D01*
X-199390Y107870D02*
X-189310D01*
X-216560D02*
X-199390D01*
X-217170Y107260D02*
X-216560Y107870D01*
X-202140Y119005D02*
Y125660D01*
Y119005D02*
X-199390Y116255D01*
X-207870Y125890D02*
X-202370D01*
X-202140Y125660D01*
X-199390Y107870D02*
Y116255D01*
X-195902Y130890D02*
X-193282Y128270D01*
X-191770D01*
X-207870Y130890D02*
X-195902D01*
X-195072Y155194D02*
X-194056Y154178D01*
X-198374Y155194D02*
X-195072D01*
X-214710Y171530D02*
X-198374Y155194D01*
X-214710Y171530D02*
Y189230D01*
Y201960D01*
X-196960Y219710D01*
X-192710D01*
X-155440Y218360D02*
X-151550Y222250D01*
X-170180Y218360D02*
X-155440D01*
X-151550Y222250D02*
X-151050D01*
X-188460Y219710D02*
X-171410D01*
X-192710D02*
X-188460D01*
X-163830Y246589D02*
Y250190D01*
X-186480Y223939D02*
X-163830Y246589D01*
X-186480Y221690D02*
Y223939D01*
X-188460Y219710D02*
X-186480Y221690D01*
X-144526Y230886D02*
X56896D01*
X-163830Y250190D02*
X-144526Y230886D01*
X56896D02*
X77216Y210566D01*
Y162814D02*
Y210566D01*
X78232Y88904D02*
Y131826D01*
X33822Y13383D02*
Y16827D01*
X27686Y22963D02*
X33822Y16827D01*
X37886Y15067D02*
Y18510D01*
X33782Y22614D02*
X37886Y18510D01*
X33782Y22614D02*
Y32004D01*
X37886Y15067D02*
X41656Y11297D01*
Y9216D02*
Y11297D01*
X33782Y32004D02*
X58928Y57150D01*
X15748Y-108712D02*
Y-99060D01*
X-68580Y-193040D02*
X15748Y-108712D01*
X-133096Y-93726D02*
X-121412Y-105410D01*
Y-191657D02*
Y-105410D01*
X-147574Y5588D02*
X-147193Y5969D01*
X-128457D02*
X-128076Y6350D01*
X-147193Y5969D02*
X-128457D01*
X-172205Y-66287D02*
X-170942Y-67551D01*
Y-126524D02*
Y-67551D01*
X-139954Y-191516D02*
Y-84889D01*
Y-191516D02*
X-138430Y-193040D01*
X-155956Y-7112D02*
X-155575Y-6731D01*
X-128457D02*
X-128076Y-6350D01*
X-155575Y-6731D02*
X-128457D01*
X-165354Y30226D02*
Y30734D01*
X-165608Y29972D02*
X-165354Y30226D01*
X-165608Y18890D02*
Y29972D01*
X-208280Y-193040D02*
Y-163862D01*
X-170942Y-126524D01*
X-243205Y-193040D02*
X-181610Y-131445D01*
X-165528Y18970D02*
X-128156D01*
X-165608Y18890D02*
X-165528Y18970D01*
X-128156D02*
X-128076Y19050D01*
X-143510Y-65024D02*
X-142441Y-66093D01*
X-140051D01*
X-132984Y-73160D01*
X-181356Y25138D02*
X-165608Y9390D01*
Y8890D02*
Y9390D01*
Y-42926D02*
Y8890D01*
X-132984Y-73660D02*
Y-73160D01*
X-127682Y-67858D01*
Y-55626D02*
Y-48506D01*
X-112776Y-33600D01*
X-127682Y-67858D02*
Y-55626D01*
X-112776Y-33600D02*
Y-28000D01*
X-271030Y105156D02*
X-268316Y107870D01*
X-260350D02*
X-259668Y107188D01*
X-268316Y107870D02*
X-260350D01*
X-247180Y110690D02*
Y113140D01*
X-251870Y117830D02*
X-247180Y113140D01*
X-251870Y117830D02*
Y125890D01*
X-181356Y25138D02*
Y30734D01*
X-168402Y43688D01*
X-80482D01*
X-77538Y46632D02*
Y50804D01*
X-80482Y43688D02*
X-77538Y46632D01*
Y50804D02*
X-72716Y55626D01*
X-72216D01*
X-259668Y107188D02*
X-241372D01*
X-247180Y110690D02*
X-243750Y107260D01*
X-241300D01*
X-241372Y107188D02*
X-241300Y107260D01*
X77712Y-74930D02*
X87488D01*
X88218Y-74200D01*
X73660Y-72390D02*
X75172D01*
X77712Y-74930D01*
X88218Y-74200D02*
Y-55880D01*
X273531Y-204724D02*
X285509D01*
X292354Y-197880D01*
X245745Y-193040D02*
X261847D01*
X273531Y-204724D01*
X144781Y84728D02*
X292354Y-62844D01*
Y-197880D02*
Y-62844D01*
X-72216Y19190D02*
Y55626D01*
Y19190D02*
X-72076Y19050D01*
X87376Y-28000D02*
X87797Y-28421D01*
X-72216Y55626D02*
Y70644D01*
X-71486Y71374D01*
X87797Y-55459D02*
Y-28421D01*
Y-55459D02*
X88218Y-55880D01*
X128858Y19832D02*
Y57150D01*
X128076Y19050D02*
X128858Y19832D01*
X58928Y57150D02*
X128858D01*
X128128Y83240D02*
X129616Y84728D01*
X128128Y74930D02*
X128858Y74200D01*
Y57150D02*
Y74200D01*
X128128Y74930D02*
Y83240D01*
X-300990Y147320D02*
X-290830D01*
X-290750Y162560D02*
Y177800D01*
X-308900Y162560D02*
X-290750D01*
X-310388Y117094D02*
Y161072D01*
X-308900Y162560D01*
X-310388Y117094D02*
X-304319Y111025D01*
X-285755D02*
X-280416Y105686D01*
X95250Y-121920D02*
Y-97790D01*
X-72978Y-19952D02*
X-72076Y-19050D01*
X-72978Y-56388D02*
Y-19952D01*
X-115570Y67310D02*
X-111563D01*
X-85510Y88900D02*
X-85510Y88900D01*
X-100123Y74287D02*
X-85510Y88900D01*
X-99540D02*
X-85510D01*
X-111563Y67310D02*
X-104586Y74287D01*
X-100123D01*
X-85510Y88900D02*
X-85010D01*
X-114880Y91440D02*
X-102080D01*
X-99540Y88900D01*
X71120Y-146050D02*
X95250Y-121920D01*
X-160060Y208320D02*
X-160020Y208280D01*
X-170180Y208360D02*
X-170140Y208320D01*
X-160060D01*
X-151050Y208280D02*
X-151050Y208280D01*
X-160020Y208280D02*
X-151050D01*
X-95250Y200660D02*
X-94181Y199591D01*
Y195781D02*
Y199591D01*
Y195781D02*
X-93980Y195580D01*
Y192540D02*
X-87630Y186190D01*
X-93980Y192540D02*
Y195580D01*
X-87630Y181940D02*
Y186190D01*
X-280670Y116840D02*
X-279440Y118070D01*
X-262680Y130890D02*
X-251870D01*
X-275500Y118070D02*
X-262680Y130890D01*
X-279440Y118070D02*
X-275500D01*
X-270100Y132080D02*
X-266290Y135890D01*
X-251870D01*
X-280750Y132080D02*
X-270100D01*
X-280750Y177800D02*
X-257810D01*
X-280750Y177800D02*
X-280750Y177800D01*
X-257810Y173676D02*
Y177800D01*
X-251870Y145890D02*
Y167736D01*
X-257810Y173676D02*
X-251870Y167736D01*
X-280830Y147320D02*
X-280790Y147360D01*
Y162520D01*
X-280750Y162560D01*
X-271450Y147320D02*
X-265020Y140890D01*
X-251870D01*
X-280830Y147320D02*
X-271450D01*
X-215551Y140660D02*
X-208100D01*
X-222250Y133961D02*
X-215551Y140660D01*
X-222250Y130810D02*
Y133961D01*
X-177800Y132930D02*
Y133430D01*
Y132930D02*
X-176570Y131700D01*
X-175570D01*
X-174680Y130810D01*
X-161130D01*
X-177800Y133430D02*
Y133930D01*
X-179760Y135890D02*
X-177800Y133930D01*
X-207870Y135890D02*
X-179760D01*
X-192420Y166370D02*
Y184150D01*
X-201688Y186690D02*
X-199148Y184150D01*
X-192420D01*
X-203200Y186690D02*
X-201688D01*
X-208100Y140660D02*
X-207870Y140890D01*
X-66040Y175260D02*
Y189230D01*
X-71120Y170180D02*
X-66040Y175260D01*
X-92820Y170180D02*
X-71120D01*
X-100330Y177690D02*
X-92820Y170180D01*
X-100330Y177690D02*
Y181940D01*
X-113030D02*
X-100330D01*
X-116840Y160020D02*
X-113030Y163830D01*
Y181940D01*
X-143510Y160020D02*
X-116840D01*
X-141780Y148290D02*
X-137000Y143510D01*
X-102870D01*
X-143510Y149520D02*
Y150020D01*
Y149520D02*
X-142280Y148290D01*
X-141780D01*
X-102870Y143510D02*
X-100330Y140970D01*
Y127940D02*
Y140970D01*
X-124935Y107315D02*
X-124300Y107950D01*
X-125730Y127940D02*
X-125015Y127225D01*
Y108665D02*
Y127225D01*
X-123983Y91757D02*
X-123666Y91440D01*
X-114300Y107950D02*
X-113665Y108585D01*
Y127305D01*
X-113030Y127940D01*
X-114697Y91623D02*
Y107553D01*
X-114880Y91440D02*
X-114697Y91623D01*
Y107553D02*
X-114300Y107950D01*
X-115094Y91440D02*
X-114880D01*
X-85010Y88900D02*
Y104140D01*
D15*
X-39370Y167020D02*
D03*
Y153020D02*
D03*
X178308Y-10780D02*
D03*
Y-24780D02*
D03*
X178308Y9510D02*
D03*
Y23510D02*
D03*
D16*
X-21590Y162480D02*
D03*
Y152480D02*
D03*
X-292100Y215980D02*
D03*
Y225980D02*
D03*
X159258Y-10160D02*
D03*
Y-20160D02*
D03*
X159258Y7700D02*
D03*
Y17700D02*
D03*
X43180Y19224D02*
D03*
Y9224D02*
D03*
X-17018Y-77390D02*
D03*
Y-67390D02*
D03*
X-143510Y160020D02*
D03*
Y150020D02*
D03*
X-170180Y218360D02*
D03*
Y208360D02*
D03*
X-260350Y97870D02*
D03*
Y107870D02*
D03*
X-199390Y97870D02*
D03*
Y107870D02*
D03*
X-177800Y133430D02*
D03*
Y143430D02*
D03*
X-44958Y4144D02*
D03*
Y14144D02*
D03*
X-165608Y18890D02*
D03*
Y8890D02*
D03*
D17*
X-125730Y181940D02*
D03*
X-113030D02*
D03*
X-100330D02*
D03*
X-87630D02*
D03*
Y127940D02*
D03*
X-100330D02*
D03*
X-113030D02*
D03*
X-125730D02*
D03*
D18*
X-251870Y125890D02*
D03*
Y130890D02*
D03*
Y135890D02*
D03*
Y140890D02*
D03*
Y145890D02*
D03*
X-207870D02*
D03*
Y140890D02*
D03*
Y135890D02*
D03*
Y130890D02*
D03*
Y125890D02*
D03*
D19*
X-271780Y212780D02*
D03*
Y229180D02*
D03*
X-241300Y90860D02*
D03*
Y107260D02*
D03*
X-217170Y90860D02*
D03*
Y107260D02*
D03*
D20*
X87376Y28000D02*
D03*
X100076D02*
D03*
X112776D02*
D03*
Y-28000D02*
D03*
X100076D02*
D03*
X87376D02*
D03*
X-112776Y28000D02*
D03*
X-100076D02*
D03*
X-87376D02*
D03*
Y-28000D02*
D03*
X-100076D02*
D03*
X-112776D02*
D03*
D21*
X128076Y19050D02*
D03*
Y6350D02*
D03*
Y-6350D02*
D03*
Y-19050D02*
D03*
X72076D02*
D03*
Y-6350D02*
D03*
Y6350D02*
D03*
Y19050D02*
D03*
X-72076D02*
D03*
Y6350D02*
D03*
Y-6350D02*
D03*
Y-19050D02*
D03*
X-128076D02*
D03*
Y-6350D02*
D03*
Y6350D02*
D03*
Y19050D02*
D03*
D22*
X101488Y-74930D02*
D03*
X87488D02*
D03*
X142128Y74930D02*
D03*
X128128D02*
D03*
X-192420Y166370D02*
D03*
X-178420D02*
D03*
X-192420Y184150D02*
D03*
X-178420D02*
D03*
X-85486Y71374D02*
D03*
X-71486D02*
D03*
X-32116Y31750D02*
D03*
X-46116D02*
D03*
X-88788Y-74676D02*
D03*
X-74788D02*
D03*
X-118984Y-73660D02*
D03*
X-132984D02*
D03*
D23*
X98218Y-55880D02*
D03*
X88218D02*
D03*
X138858Y57150D02*
D03*
X128858D02*
D03*
X-141050Y222250D02*
D03*
X-151050D02*
D03*
X-151050Y208280D02*
D03*
X-141050D02*
D03*
X-224710Y189230D02*
D03*
X-214710D02*
D03*
X-290750Y177800D02*
D03*
X-280750D02*
D03*
X-290750Y162560D02*
D03*
X-280750D02*
D03*
X-290830Y147320D02*
D03*
X-280830D02*
D03*
X-290750Y132080D02*
D03*
X-280750D02*
D03*
X-290670Y116840D02*
D03*
X-280670D02*
D03*
X-161130Y130810D02*
D03*
X-151130D02*
D03*
X-124300Y107950D02*
D03*
X-114300D02*
D03*
X-75010Y104140D02*
D03*
X-85010D02*
D03*
X-75010Y88900D02*
D03*
X-85010D02*
D03*
X-82216Y55626D02*
D03*
X-72216D02*
D03*
X-82978Y-56388D02*
D03*
X-72978D02*
D03*
X-117682Y-55626D02*
D03*
X-127682D02*
D03*
D24*
X-144780Y184626D02*
D03*
Y176054D02*
D03*
D25*
X-192710Y245110D02*
D03*
Y232410D02*
D03*
Y219710D02*
D03*
Y207010D02*
D03*
X-246710D02*
D03*
Y219710D02*
D03*
Y232410D02*
D03*
Y245110D02*
D03*
D26*
X-123666Y91440D02*
D03*
X-115094D02*
D03*
D42*
X44196Y221234D02*
D03*
X31496D02*
D03*
X18796D02*
D03*
X6096D02*
D03*
X-6604D02*
D03*
X-19304D02*
D03*
X-32004D02*
D03*
X-44704D02*
D03*
X37846Y246634D02*
D03*
X25146D02*
D03*
X12446D02*
D03*
X-254D02*
D03*
X-12954D02*
D03*
X-25654D02*
D03*
X-38354D02*
D03*
D43*
X90546Y259334D02*
D03*
X-91054D02*
D03*
D44*
X-66040Y189230D02*
D03*
X-163830Y250190D02*
D03*
X-257810Y177800D02*
D03*
X-167640Y95250D02*
D03*
X-115570Y67310D02*
D03*
X245745Y-193040D02*
D03*
X-138430D02*
D03*
X36195D02*
D03*
X1270D02*
D03*
X-103505D02*
D03*
X-278130D02*
D03*
X-208280D02*
D03*
X210820D02*
D03*
X106045D02*
D03*
X140970D02*
D03*
X280670D02*
D03*
X71120D02*
D03*
X-33655D02*
D03*
X-68580D02*
D03*
X-173355D02*
D03*
X175895D02*
D03*
X-243205D02*
D03*
D45*
X-38100Y114300D02*
D03*
Y88900D02*
D03*
Y63500D02*
D03*
Y-38100D02*
D03*
Y-63500D02*
D03*
Y-88900D02*
D03*
Y-114300D02*
D03*
X38100D02*
D03*
Y-88900D02*
D03*
Y-63500D02*
D03*
Y-38100D02*
D03*
Y63500D02*
D03*
Y88900D02*
D03*
Y114300D02*
D03*
D46*
X-73660Y208280D02*
D03*
X63724Y175484D02*
D03*
X-24130Y-59690D02*
D03*
X-45720Y-19050D02*
D03*
X-48163Y-4399D02*
D03*
X-288798Y25400D02*
D03*
X-293914Y17215D02*
D03*
X-82550Y198120D02*
D03*
X-267970Y158750D02*
D03*
X-215900Y-31750D02*
D03*
X54610Y-158750D02*
D03*
X69850Y-39370D02*
D03*
X82550Y74930D02*
D03*
X63500Y109220D02*
D03*
X-165008Y-63786D02*
D03*
X10160Y171450D02*
D03*
X3810Y110490D02*
D03*
X0Y55880D02*
D03*
X-13970Y-172720D02*
D03*
X152400Y-101600D02*
D03*
X-174672Y-59870D02*
D03*
X-184314Y-60297D02*
D03*
X-272542Y105156D02*
D03*
X-295149Y126489D02*
D03*
X-299466Y117856D02*
D03*
X19558Y-177546D02*
D03*
X21844Y-69850D02*
D03*
X-145542Y-55626D02*
D03*
X-143877Y-65371D02*
D03*
X-137160Y-33782D02*
D03*
X79502Y-168148D02*
D03*
X54864Y-19812D02*
D03*
X181610Y-154940D02*
D03*
X78486Y40386D02*
D03*
X-56896Y136652D02*
D03*
X-13634Y148211D02*
D03*
X-293370Y241300D02*
D03*
X-158496Y179070D02*
D03*
X-177038Y120142D02*
D03*
X-191770Y128270D02*
D03*
X-194056Y154178D02*
D03*
X77216Y162814D02*
D03*
X78232Y131826D02*
D03*
X15748Y-99060D02*
D03*
X-147574Y5588D02*
D03*
X-155956Y-7112D02*
D03*
X-165354Y30734D02*
D03*
X-133096Y-93726D02*
D03*
X73660Y-72390D02*
D03*
X95250Y-97790D02*
D03*
X-160020Y208280D02*
D03*
X-95250Y200660D02*
D03*
X-300990Y147320D02*
D03*
X-222250Y130810D02*
D03*
X-203200Y186690D02*
D03*
M02*
