G04*
G04 #@! TF.GenerationSoftware,Altium Limited,Altium Designer,24.2.2 (26)*
G04*
G04 Layer_Color=16711935*
%FSLAX44Y44*%
%MOMM*%
G71*
G04*
G04 #@! TF.SameCoordinates,32683A2E-CEC5-46B4-BDA2-C12D6267EED3*
G04*
G04*
G04 #@! TF.FilePolarity,Negative*
G04*
G01*
G75*
%ADD37C,1.2032*%
%ADD38C,4.2382*%
%ADD39C,1.9812*%
%ADD40C,0.2032*%
%ADD41C,1.7272*%
D37*
X44196Y221234D02*
D03*
X31496D02*
D03*
X18796D02*
D03*
X6096D02*
D03*
X-6604D02*
D03*
X-19304D02*
D03*
X-32004D02*
D03*
X-44704D02*
D03*
X37846Y246634D02*
D03*
X25146D02*
D03*
X12446D02*
D03*
X-254D02*
D03*
X-12954D02*
D03*
X-25654D02*
D03*
X-38354D02*
D03*
D38*
X90546Y259334D02*
D03*
X-91054D02*
D03*
D39*
X-66040Y189230D02*
D03*
X-163830Y250190D02*
D03*
X-257810Y177800D02*
D03*
X-167640Y95250D02*
D03*
X-115570Y67310D02*
D03*
X245745Y-193040D02*
D03*
X-138430D02*
D03*
X36195D02*
D03*
X1270D02*
D03*
X-103505D02*
D03*
X-278130D02*
D03*
X-208280D02*
D03*
X210820D02*
D03*
X106045D02*
D03*
X140970D02*
D03*
X280670D02*
D03*
X71120D02*
D03*
X-33655D02*
D03*
X-68580D02*
D03*
X-173355D02*
D03*
X175895D02*
D03*
X-243205D02*
D03*
D40*
X245745Y-231140D02*
D03*
X-138430D02*
D03*
X36195D02*
D03*
X1270D02*
D03*
X-103505D02*
D03*
X-278130D02*
D03*
X-208280D02*
D03*
X210820D02*
D03*
X106045D02*
D03*
X140970D02*
D03*
X280670D02*
D03*
X71120D02*
D03*
X-33655D02*
D03*
X-68580D02*
D03*
X-173355D02*
D03*
X175895D02*
D03*
X-243205D02*
D03*
X285750Y285750D02*
D03*
X0Y-285750D02*
D03*
X285750D02*
D03*
X-285750D02*
D03*
X0Y0D02*
D03*
X-285750Y285750D02*
D03*
D41*
X-38100Y114300D02*
D03*
Y88900D02*
D03*
Y63500D02*
D03*
Y-38100D02*
D03*
Y-63500D02*
D03*
Y-88900D02*
D03*
Y-114300D02*
D03*
X38100D02*
D03*
Y-88900D02*
D03*
Y-63500D02*
D03*
Y-38100D02*
D03*
Y63500D02*
D03*
Y88900D02*
D03*
Y114300D02*
D03*
M02*
