G04*
G04 #@! TF.GenerationSoftware,Altium Limited,Altium Designer,24.2.2 (26)*
G04*
G04 Layer_Color=65535*
%FSLAX44Y44*%
%MOMM*%
G71*
G04*
G04 #@! TF.SameCoordinates,32683A2E-CEC5-46B4-BDA2-C12D6267EED3*
G04*
G04*
G04 #@! TF.FilePolarity,Positive*
G04*
G01*
G75*
%ADD10C,0.0485*%
%ADD11C,0.2000*%
%ADD12C,0.1524*%
%ADD13C,0.2540*%
%ADD14C,0.1778*%
D10*
X57826Y19420D02*
G03*
X57346Y19420I-240J0D01*
G01*
D02*
G03*
X57826Y19420I240J0D01*
G01*
X-142326D02*
G03*
X-142806Y19420I-240J0D01*
G01*
D02*
G03*
X-142326Y19420I240J0D01*
G01*
D11*
X-119254Y215334D02*
X-55254D01*
X-119254D02*
Y317334D01*
X118746D01*
Y215334D02*
Y317334D01*
X54746Y215334D02*
X118746D01*
X-132480Y120440D02*
Y135440D01*
X-131180Y138940D02*
X-82180D01*
Y170940D01*
X-131180D02*
X-82180D01*
X-131180Y138940D02*
Y170940D01*
X-214870Y120890D02*
X-200870D01*
X-218370D02*
Y150890D01*
X-241370D02*
X-218370D01*
X-241370Y120890D02*
Y150890D01*
Y120890D02*
X-218370D01*
X-277030Y220980D02*
X-266530D01*
X-151642Y172978D02*
Y187702D01*
X-137918Y172978D02*
Y187702D01*
X-254210Y251860D02*
X-239210D01*
X-235710Y201560D02*
Y250560D01*
Y201560D02*
X-203710D01*
Y250560D01*
X-235710D02*
X-203710D01*
X-246550Y99060D02*
X-236050D01*
X-222420D02*
X-211920D01*
X-126742Y84578D02*
X-112018D01*
X-126742Y98302D02*
X-112018D01*
D12*
X-46228Y146558D02*
Y157099D01*
Y146558D02*
X-32639D01*
X-32512Y146685D01*
Y157099D01*
X-46228Y173355D02*
X-46101Y173482D01*
X-46228Y162941D02*
Y173355D01*
X-46101Y173482D02*
X-32639D01*
X-32512Y173355D01*
Y162941D02*
Y173355D01*
X-16764Y159193D02*
Y167640D01*
X-26293D02*
X-16764D01*
X-26416Y159127D02*
Y167517D01*
X-26293Y167640D01*
X-26416Y147320D02*
Y155475D01*
Y147320D02*
X-16764D01*
Y155502D01*
X-296926Y210820D02*
Y219267D01*
Y210820D02*
X-287397D01*
X-287274Y210943D02*
Y219333D01*
X-287397Y210820D02*
X-287274Y210943D01*
Y222985D02*
Y231140D01*
X-296926D02*
X-287274D01*
X-296926Y222958D02*
Y231140D01*
X81026Y-68072D02*
X91567D01*
X81026Y-81661D02*
Y-68072D01*
Y-81661D02*
X81153Y-81788D01*
X91567D01*
X107823Y-68072D02*
X107950Y-68199D01*
X97409Y-68072D02*
X107823D01*
X107950Y-81661D02*
Y-68199D01*
X107823Y-81788D02*
X107950Y-81661D01*
X97409Y-81788D02*
X107823D01*
X94931Y-60706D02*
X103378D01*
Y-51177D01*
X94865Y-51054D02*
X103255D01*
X103378Y-51177D01*
X83058Y-51054D02*
X91213D01*
X83058Y-60706D02*
Y-51054D01*
Y-60706D02*
X91240D01*
X171450Y-31242D02*
Y-20701D01*
Y-31242D02*
X185039D01*
X185166Y-31115D01*
Y-20701D01*
X171450Y-4445D02*
X171577Y-4318D01*
X171450Y-14859D02*
Y-4445D01*
X171577Y-4318D02*
X185039D01*
X185166Y-4445D01*
Y-14859D02*
Y-4445D01*
X164084Y-13447D02*
Y-5000D01*
X154555D02*
X164084D01*
X154432Y-13513D02*
Y-5123D01*
X154555Y-5000D01*
X154432Y-25320D02*
Y-17165D01*
Y-25320D02*
X164084D01*
Y-17138D01*
X154432Y2540D02*
Y10987D01*
Y2540D02*
X163961D01*
X164084Y2663D02*
Y11053D01*
X163961Y2540D02*
X164084Y2663D01*
Y14705D02*
Y22860D01*
X154432D02*
X164084D01*
X154432Y14678D02*
Y22860D01*
X185166Y19431D02*
Y29972D01*
X171577D02*
X185166D01*
X171450Y29845D02*
X171577Y29972D01*
X171450Y19431D02*
Y29845D01*
X185039Y3048D02*
X185166Y3175D01*
Y13589D01*
X171577Y3048D02*
X185039D01*
X171450Y3175D02*
X171577Y3048D01*
X171450Y3175D02*
Y13589D01*
X121666Y81788D02*
X132207D01*
X121666Y68199D02*
Y81788D01*
Y68199D02*
X121793Y68072D01*
X132207D01*
X148463Y81788D02*
X148590Y81661D01*
X138049Y81788D02*
X148463D01*
X148590Y68199D02*
Y81661D01*
X148463Y68072D02*
X148590Y68199D01*
X138049Y68072D02*
X148463D01*
X135571Y52324D02*
X144018D01*
Y61853D01*
X135505Y61976D02*
X143895D01*
X144018Y61853D01*
X123698Y61976D02*
X131853D01*
X123698Y52324D02*
Y61976D01*
Y52324D02*
X131880D01*
X48006Y15937D02*
Y24384D01*
X38477D02*
X48006D01*
X38354Y15871D02*
Y24261D01*
X38477Y24384D01*
X38354Y4064D02*
Y12219D01*
Y4064D02*
X48006D01*
Y12246D01*
X-21844Y-82550D02*
Y-74103D01*
Y-82550D02*
X-12315D01*
X-12192Y-82427D02*
Y-74037D01*
X-12315Y-82550D02*
X-12192Y-82427D01*
Y-70385D02*
Y-62230D01*
X-21844D02*
X-12192D01*
X-21844Y-70412D02*
Y-62230D01*
X-138684Y156733D02*
Y165180D01*
X-148213D02*
X-138684D01*
X-148336Y156667D02*
Y165057D01*
X-148213Y165180D01*
X-148336Y144860D02*
Y153015D01*
Y144860D02*
X-138684D01*
Y153042D01*
X-165354Y215073D02*
Y223520D01*
X-174883D02*
X-165354D01*
X-175006Y215007D02*
Y223397D01*
X-174883Y223520D01*
X-175006Y203200D02*
Y211355D01*
Y203200D02*
X-165354D01*
Y211382D01*
X-144337Y217424D02*
X-135890D01*
Y226953D01*
X-144403Y227076D02*
X-136013D01*
X-135890Y226953D01*
X-156210Y227076D02*
X-148055D01*
X-156210Y217424D02*
Y227076D01*
Y217424D02*
X-148028D01*
X-156210Y213106D02*
X-147763D01*
X-156210Y203577D02*
Y213106D01*
X-156087Y203454D02*
X-147697D01*
X-156210Y203577D02*
X-156087Y203454D01*
X-144045D02*
X-135890D01*
Y213106D01*
X-144072D02*
X-135890D01*
X-182499Y159512D02*
X-171958D01*
Y173101D01*
X-172085Y173228D02*
X-171958Y173101D01*
X-182499Y173228D02*
X-172085D01*
X-198882Y159639D02*
X-198755Y159512D01*
X-188341D01*
X-198882Y159639D02*
Y173101D01*
X-198755Y173228D01*
X-188341D01*
X-182499Y177292D02*
X-171958D01*
Y190881D01*
X-172085Y191008D02*
X-171958Y190881D01*
X-182499Y191008D02*
X-172085D01*
X-198882Y177419D02*
X-198755Y177292D01*
X-188341D01*
X-198882Y177419D02*
Y190881D01*
X-198755Y191008D01*
X-188341D01*
X-229870Y194056D02*
X-221423D01*
X-229870Y184527D02*
Y194056D01*
X-229747Y184404D02*
X-221357D01*
X-229870Y184527D02*
X-229747Y184404D01*
X-217705D02*
X-209550D01*
Y194056D01*
X-217732D02*
X-209550D01*
X-295910Y182626D02*
X-287463D01*
X-295910Y173097D02*
Y182626D01*
X-295787Y172974D02*
X-287397D01*
X-295910Y173097D02*
X-295787Y172974D01*
X-283745D02*
X-275590D01*
Y182626D01*
X-283772D02*
X-275590D01*
X-295910Y167386D02*
X-287463D01*
X-295910Y157857D02*
Y167386D01*
X-295787Y157734D02*
X-287397D01*
X-295910Y157857D02*
X-295787Y157734D01*
X-283745D02*
X-275590D01*
Y167386D01*
X-283772D02*
X-275590D01*
X-295990Y152146D02*
X-287543D01*
X-295990Y142617D02*
Y152146D01*
X-295867Y142494D02*
X-287477D01*
X-295990Y142617D02*
X-295867Y142494D01*
X-283825D02*
X-275670D01*
Y152146D01*
X-283852D02*
X-275670D01*
X-295910Y136906D02*
X-287463D01*
X-295910Y127377D02*
Y136906D01*
X-295787Y127254D02*
X-287397D01*
X-295910Y127377D02*
X-295787Y127254D01*
X-283745D02*
X-275590D01*
Y136906D01*
X-283772D02*
X-275590D01*
X-295830Y121666D02*
X-287383D01*
X-295830Y112137D02*
Y121666D01*
X-295707Y112014D02*
X-287317D01*
X-295830Y112137D02*
X-295707Y112014D01*
X-283665D02*
X-275510D01*
Y121666D01*
X-283692D02*
X-275510D01*
X-265176Y92710D02*
Y101157D01*
Y92710D02*
X-255647D01*
X-255524Y92833D02*
Y101223D01*
X-255647Y92710D02*
X-255524Y92833D01*
Y104875D02*
Y113030D01*
X-265176D02*
X-255524D01*
X-265176Y104848D02*
Y113030D01*
X-204216Y92710D02*
Y101157D01*
Y92710D02*
X-194687D01*
X-194564Y92833D02*
Y101223D01*
X-194687Y92710D02*
X-194564Y92833D01*
Y104875D02*
Y113030D01*
X-204216D02*
X-194564D01*
X-204216Y104848D02*
Y113030D01*
X-172974Y128270D02*
Y136452D01*
X-182626Y128270D02*
X-172974D01*
X-182626D02*
Y136425D01*
Y148467D02*
X-182503Y148590D01*
X-182626Y140077D02*
Y148467D01*
X-182503Y148590D02*
X-172974D01*
Y140143D02*
Y148590D01*
X-166290Y135636D02*
X-157843D01*
X-166290Y126107D02*
Y135636D01*
X-166167Y125984D02*
X-157777D01*
X-166290Y126107D02*
X-166167Y125984D01*
X-154125D02*
X-145970D01*
Y135636D01*
X-154152D02*
X-145970D01*
X-129460Y112776D02*
X-121013D01*
X-129460Y103247D02*
Y112776D01*
X-129337Y103124D02*
X-120947D01*
X-129460Y103247D02*
X-129337Y103124D01*
X-117295D02*
X-109140D01*
Y112776D01*
X-117322D02*
X-109140D01*
X-78032Y108966D02*
X-69850D01*
Y99314D02*
Y108966D01*
X-78005Y99314D02*
X-69850D01*
X-90170Y99437D02*
X-90047Y99314D01*
X-81657D01*
X-90170Y99437D02*
Y108966D01*
X-81723D01*
X-78297Y84074D02*
X-69850D01*
Y93603D01*
X-78363Y93726D02*
X-69973D01*
X-69850Y93603D01*
X-90170Y93726D02*
X-82015D01*
X-90170Y84074D02*
Y93726D01*
Y84074D02*
X-81988D01*
X-75565Y64516D02*
X-65024D01*
Y78105D01*
X-65151Y78232D02*
X-65024Y78105D01*
X-75565Y78232D02*
X-65151D01*
X-91948Y64643D02*
X-91821Y64516D01*
X-81407D01*
X-91948Y64643D02*
Y78105D01*
X-91821Y78232D01*
X-81407D01*
X-87376Y60452D02*
X-78929D01*
X-87376Y50923D02*
Y60452D01*
X-87253Y50800D02*
X-78863D01*
X-87376Y50923D02*
X-87253Y50800D01*
X-75211D02*
X-67056D01*
Y60452D01*
X-75238D02*
X-67056D01*
X-49784Y-1016D02*
Y7431D01*
Y-1016D02*
X-40255D01*
X-40132Y-893D02*
Y7497D01*
X-40255Y-1016D02*
X-40132Y-893D01*
Y11149D02*
Y19304D01*
X-49784D02*
X-40132D01*
X-49784Y11122D02*
Y19304D01*
X-52578Y38608D02*
X-42037D01*
X-52578Y25019D02*
Y38608D01*
Y25019D02*
X-52451Y24892D01*
X-42037D01*
X-25781Y38608D02*
X-25654Y38481D01*
X-36195Y38608D02*
X-25781D01*
X-25654Y25019D02*
Y38481D01*
X-25781Y24892D02*
X-25654Y25019D01*
X-36195Y24892D02*
X-25781D01*
X-160782Y15603D02*
Y24050D01*
X-170311D02*
X-160782D01*
X-170434Y15537D02*
Y23927D01*
X-170311Y24050D01*
X-170434Y3730D02*
Y11885D01*
Y3730D02*
X-160782D01*
Y11912D01*
X-88138Y-51562D02*
X-79691D01*
X-88138Y-61091D02*
Y-51562D01*
X-88015Y-61214D02*
X-79625D01*
X-88138Y-61091D02*
X-88015Y-61214D01*
X-75973D02*
X-67818D01*
Y-51562D01*
X-76000D02*
X-67818D01*
X-78867Y-81534D02*
X-68326D01*
Y-67945D01*
X-68453Y-67818D02*
X-68326Y-67945D01*
X-78867Y-67818D02*
X-68453D01*
X-95250Y-81407D02*
X-95123Y-81534D01*
X-84709D01*
X-95250Y-81407D02*
Y-67945D01*
X-95123Y-67818D01*
X-84709D01*
X-120969Y-60452D02*
X-112522D01*
Y-50923D01*
X-121035Y-50800D02*
X-112645D01*
X-112522Y-50923D01*
X-132842Y-50800D02*
X-124687D01*
X-132842Y-60452D02*
Y-50800D01*
Y-60452D02*
X-124660D01*
X-139446Y-66802D02*
X-128905D01*
X-139446Y-80391D02*
Y-66802D01*
Y-80391D02*
X-139319Y-80518D01*
X-128905D01*
X-112649Y-66802D02*
X-112522Y-66929D01*
X-123063Y-66802D02*
X-112649D01*
X-112522Y-80391D02*
Y-66929D01*
X-112649Y-80518D02*
X-112522Y-80391D01*
X-123063Y-80518D02*
X-112649D01*
X-171832Y268224D02*
Y274572D01*
X-175006Y271398D01*
X-170774D01*
X-168658Y273514D02*
X-167600Y274572D01*
X-165484D01*
X-164426Y273514D01*
Y269282D01*
X-165484Y268224D01*
X-167600D01*
X-168658Y269282D01*
Y273514D01*
X-162310Y269282D02*
X-161252Y268224D01*
X-159136D01*
X-158078Y269282D01*
Y273514D01*
X-159136Y274572D01*
X-161252D01*
X-162310Y273514D01*
Y272456D01*
X-161252Y271398D01*
X-158078D01*
X-151730Y274572D02*
X-153846Y273514D01*
X-155962Y271398D01*
Y269282D01*
X-154904Y268224D01*
X-152788D01*
X-151730Y269282D01*
Y270340D01*
X-152788Y271398D01*
X-155962D01*
X-274914Y196044D02*
X-275972Y197102D01*
X-278088D01*
X-279146Y196044D01*
Y191812D01*
X-278088Y190754D01*
X-275972D01*
X-274914Y191812D01*
X-269624Y197102D02*
X-271740D01*
X-272798Y196044D01*
Y191812D01*
X-271740Y190754D01*
X-269624D01*
X-268566Y191812D01*
Y196044D01*
X-269624Y197102D01*
X-266450Y190754D02*
Y197102D01*
X-262218Y190754D01*
Y197102D01*
X-260102D02*
Y192870D01*
X-257986Y190754D01*
X-255870Y192870D01*
Y197102D01*
X-47584Y194564D02*
X-51816D01*
X-47584Y198796D01*
Y199854D01*
X-48642Y200912D01*
X-50758D01*
X-51816Y199854D01*
X-45468D02*
X-44410Y200912D01*
X-42294D01*
X-41236Y199854D01*
Y195622D01*
X-42294Y194564D01*
X-44410D01*
X-45468Y195622D01*
Y199854D01*
X-35946Y194564D02*
Y200912D01*
X-39120Y197738D01*
X-34888D01*
X-32772Y199854D02*
X-31714Y200912D01*
X-29598D01*
X-28540Y199854D01*
Y198796D01*
X-29598Y197738D01*
X-28540Y196680D01*
Y195622D01*
X-29598Y194564D01*
X-31714D01*
X-32772Y195622D01*
Y196680D01*
X-31714Y197738D01*
X-32772Y198796D01*
Y199854D01*
X-31714Y197738D02*
X-29598D01*
X-147066Y52324D02*
Y58672D01*
X-143892D01*
X-142834Y57614D01*
Y55498D01*
X-143892Y54440D01*
X-147066D01*
X-144950D02*
X-142834Y52324D01*
X-140718D02*
Y56556D01*
X-138602Y58672D01*
X-136486Y56556D01*
Y52324D01*
Y55498D01*
X-140718D01*
X-134370Y58672D02*
Y52324D01*
X-132254Y54440D01*
X-130138Y52324D01*
Y58672D01*
X-147914Y69044D02*
X-148972Y70102D01*
X-151088D01*
X-152146Y69044D01*
Y64812D01*
X-151088Y63754D01*
X-148972D01*
X-147914Y64812D01*
Y66928D01*
X-150030D01*
X-145798Y70102D02*
Y69044D01*
X-143682Y66928D01*
X-141566Y69044D01*
Y70102D01*
X-143682Y66928D02*
Y63754D01*
X-139450D02*
Y70102D01*
X-136276D01*
X-135218Y69044D01*
Y66928D01*
X-136276Y65870D01*
X-139450D01*
X-137334D02*
X-135218Y63754D01*
X-129928Y70102D02*
X-132044D01*
X-133102Y69044D01*
Y64812D01*
X-132044Y63754D01*
X-129928D01*
X-128870Y64812D01*
Y69044D01*
X-129928Y70102D01*
X-180086Y63752D02*
Y57404D01*
X-176912D01*
X-175854Y58462D01*
Y59520D01*
X-176912Y60578D01*
X-180086D01*
X-176912D01*
X-175854Y61636D01*
Y62694D01*
X-176912Y63752D01*
X-180086D01*
X-173738D02*
Y58462D01*
X-172680Y57404D01*
X-170564D01*
X-169506Y58462D01*
Y63752D01*
X-163158D02*
X-167390D01*
Y60578D01*
X-165274D01*
X-167390D01*
Y57404D01*
X-182204Y72854D02*
X-183262Y73912D01*
X-185378D01*
X-186436Y72854D01*
Y68622D01*
X-185378Y67564D01*
X-183262D01*
X-182204Y68622D01*
Y70738D01*
X-184320D01*
X-180088Y73912D02*
Y72854D01*
X-177972Y70738D01*
X-175856Y72854D01*
Y73912D01*
X-177972Y70738D02*
Y67564D01*
X-173740D02*
Y73912D01*
X-170566D01*
X-169508Y72854D01*
Y70738D01*
X-170566Y69680D01*
X-173740D01*
X-171624D02*
X-169508Y67564D01*
X-164218Y73912D02*
X-166334D01*
X-167392Y72854D01*
Y68622D01*
X-166334Y67564D01*
X-164218D01*
X-163160Y68622D01*
Y72854D01*
X-164218Y73912D01*
X-1163Y207644D02*
X-3279D01*
X-2221D01*
Y202354D01*
X-3279Y201296D01*
X-4337D01*
X-5395Y202354D01*
X953Y201296D02*
X3069D01*
X2011D01*
Y207644D01*
X953Y206586D01*
X6243D02*
X7301Y207644D01*
X9417D01*
X10475Y206586D01*
Y205528D01*
X9417Y204470D01*
X10475Y203412D01*
Y202354D01*
X9417Y201296D01*
X7301D01*
X6243Y202354D01*
Y203412D01*
X7301Y204470D01*
X6243Y205528D01*
Y206586D01*
X7301Y204470D02*
X9417D01*
X276266Y-169716D02*
X275208Y-168658D01*
X273092D01*
X272034Y-169716D01*
Y-173948D01*
X273092Y-175006D01*
X275208D01*
X276266Y-173948D01*
Y-171832D01*
X274150D01*
X278382Y-175006D02*
Y-168658D01*
X282614Y-175006D01*
Y-168658D01*
X284730D02*
Y-175006D01*
X287904D01*
X288962Y-173948D01*
Y-169716D01*
X287904Y-168658D01*
X284730D01*
X237744Y-170986D02*
X238802Y-169928D01*
X240918D01*
X241976Y-170986D01*
Y-172044D01*
X240918Y-173102D01*
X239860D01*
X240918D01*
X241976Y-174160D01*
Y-175218D01*
X240918Y-176276D01*
X238802D01*
X237744Y-175218D01*
X244092Y-169928D02*
Y-174160D01*
X246208Y-176276D01*
X248324Y-174160D01*
Y-169928D01*
X250440Y-170986D02*
X251498Y-169928D01*
X253614D01*
X254672Y-170986D01*
Y-172044D01*
X253614Y-173102D01*
X252556D01*
X253614D01*
X254672Y-174160D01*
Y-175218D01*
X253614Y-176276D01*
X251498D01*
X250440Y-175218D01*
X202184Y-171198D02*
Y-177546D01*
X206416D01*
X212764Y-172256D02*
X211706Y-171198D01*
X209590D01*
X208532Y-172256D01*
Y-176488D01*
X209590Y-177546D01*
X211706D01*
X212764Y-176488D01*
Y-174372D01*
X210648D01*
X214880Y-177546D02*
X216996D01*
X215938D01*
Y-171198D01*
X214880Y-172256D01*
X164084Y-177546D02*
Y-171198D01*
X166200Y-173314D01*
X168316Y-171198D01*
Y-177546D01*
X173606Y-171198D02*
X171490D01*
X170432Y-172256D01*
Y-176488D01*
X171490Y-177546D01*
X173606D01*
X174664Y-176488D01*
Y-172256D01*
X173606Y-171198D01*
X181012Y-172256D02*
X179954Y-171198D01*
X177838D01*
X176780Y-172256D01*
Y-173314D01*
X177838Y-174372D01*
X179954D01*
X181012Y-175430D01*
Y-176488D01*
X179954Y-177546D01*
X177838D01*
X176780Y-176488D01*
X183128Y-171198D02*
X185244D01*
X184186D01*
Y-177546D01*
X183128D01*
X185244D01*
X131486Y-172468D02*
X127254D01*
Y-175642D01*
X129370Y-174584D01*
X130428D01*
X131486Y-175642D01*
Y-177758D01*
X130428Y-178816D01*
X128312D01*
X127254Y-177758D01*
X133602Y-172468D02*
Y-176700D01*
X135718Y-178816D01*
X137834Y-176700D01*
Y-172468D01*
X144182Y-173526D02*
X143124Y-172468D01*
X141008D01*
X139950Y-173526D01*
Y-174584D01*
X141008Y-175642D01*
X143124D01*
X144182Y-176700D01*
Y-177758D01*
X143124Y-178816D01*
X141008D01*
X139950Y-177758D01*
X146298Y-172468D02*
Y-178816D01*
X148414Y-176700D01*
X150530Y-178816D01*
Y-172468D01*
X98466Y-173526D02*
X97408Y-172468D01*
X95292D01*
X94234Y-173526D01*
Y-177758D01*
X95292Y-178816D01*
X97408D01*
X98466Y-177758D01*
X100582Y-178816D02*
Y-172468D01*
X103756D01*
X104814Y-173526D01*
Y-175642D01*
X103756Y-176700D01*
X100582D01*
X106930Y-172468D02*
Y-178816D01*
X109046Y-176700D01*
X111162Y-178816D01*
Y-172468D01*
X113278Y-178816D02*
Y-172468D01*
X116452D01*
X117510Y-173526D01*
Y-175642D01*
X116452Y-176700D01*
X113278D01*
X115394D02*
X117510Y-178816D01*
X64176Y-173526D02*
X63118Y-172468D01*
X61002D01*
X59944Y-173526D01*
Y-177758D01*
X61002Y-178816D01*
X63118D01*
X64176Y-177758D01*
X66292Y-178816D02*
Y-174584D01*
X68408Y-172468D01*
X70524Y-174584D01*
Y-178816D01*
Y-175642D01*
X66292D01*
X72640Y-178816D02*
Y-172468D01*
X76872Y-178816D01*
Y-172468D01*
X78988D02*
Y-178816D01*
X83220D01*
X29886Y-173526D02*
X28828Y-172468D01*
X26712D01*
X25654Y-173526D01*
Y-177758D01*
X26712Y-178816D01*
X28828D01*
X29886Y-177758D01*
X32002Y-178816D02*
Y-174584D01*
X34118Y-172468D01*
X36234Y-174584D01*
Y-178816D01*
Y-175642D01*
X32002D01*
X38350Y-178816D02*
Y-172468D01*
X42582Y-178816D01*
Y-172468D01*
X44698D02*
Y-178816D01*
Y-175642D01*
X48930D01*
Y-172468D01*
Y-178816D01*
X-7366Y-177546D02*
Y-171198D01*
X-4192D01*
X-3134Y-172256D01*
Y-174372D01*
X-4192Y-175430D01*
X-7366D01*
X-5250D02*
X-3134Y-177546D01*
X-1018Y-171198D02*
X3214Y-177546D01*
Y-171198D02*
X-1018Y-177546D01*
X9562D02*
X5330D01*
X9562Y-173314D01*
Y-172256D01*
X8504Y-171198D01*
X6388D01*
X5330Y-172256D01*
X-42926Y-172468D02*
X-38694D01*
X-40810D01*
Y-178816D01*
X-36578Y-172468D02*
X-32346Y-178816D01*
Y-172468D02*
X-36578Y-178816D01*
X-25998D02*
X-30230D01*
X-25998Y-174584D01*
Y-173526D01*
X-27056Y-172468D01*
X-29172D01*
X-30230Y-173526D01*
X-74676Y-167386D02*
Y-161038D01*
X-71502D01*
X-70444Y-162096D01*
Y-164212D01*
X-71502Y-165270D01*
X-74676D01*
X-72560D02*
X-70444Y-167386D01*
X-64096Y-161038D02*
X-68328D01*
Y-167386D01*
X-64096D01*
X-68328Y-164212D02*
X-66212D01*
X-57748Y-161038D02*
X-61980D01*
Y-164212D01*
X-59864D01*
X-61980D01*
Y-167386D01*
X-77852Y-178816D02*
Y-172468D01*
X-81026Y-175642D01*
X-76794D01*
X-74678Y-173526D02*
X-73620Y-172468D01*
X-71504D01*
X-70446Y-173526D01*
Y-177758D01*
X-71504Y-178816D01*
X-73620D01*
X-74678Y-177758D01*
Y-173526D01*
X-68330Y-177758D02*
X-67272Y-178816D01*
X-65156D01*
X-64098Y-177758D01*
Y-173526D01*
X-65156Y-172468D01*
X-67272D01*
X-68330Y-173526D01*
Y-174584D01*
X-67272Y-175642D01*
X-64098D01*
X-57750Y-172468D02*
X-59866Y-173526D01*
X-61982Y-175642D01*
Y-177758D01*
X-60924Y-178816D01*
X-58808D01*
X-57750Y-177758D01*
Y-176700D01*
X-58808Y-175642D01*
X-61982D01*
X-111084Y-178816D02*
X-115316D01*
X-111084Y-174584D01*
Y-173526D01*
X-112142Y-172468D01*
X-114258D01*
X-115316Y-173526D01*
X-108968D02*
X-107910Y-172468D01*
X-105794D01*
X-104736Y-173526D01*
Y-177758D01*
X-105794Y-178816D01*
X-107910D01*
X-108968Y-177758D01*
Y-173526D01*
X-99446Y-178816D02*
Y-172468D01*
X-102620Y-175642D01*
X-98388D01*
X-96272Y-173526D02*
X-95214Y-172468D01*
X-93098D01*
X-92040Y-173526D01*
Y-174584D01*
X-93098Y-175642D01*
X-92040Y-176700D01*
Y-177758D01*
X-93098Y-178816D01*
X-95214D01*
X-96272Y-177758D01*
Y-176700D01*
X-95214Y-175642D01*
X-96272Y-174584D01*
Y-173526D01*
X-95214Y-175642D02*
X-93098D01*
X-111506Y-167386D02*
Y-161038D01*
X-108332D01*
X-107274Y-162096D01*
Y-164212D01*
X-108332Y-165270D01*
X-111506D01*
X-109390D02*
X-107274Y-167386D01*
X-100926Y-161038D02*
X-105158D01*
Y-167386D01*
X-100926D01*
X-105158Y-164212D02*
X-103042D01*
X-94578Y-161038D02*
X-98810D01*
Y-164212D01*
X-96694D01*
X-98810D01*
Y-167386D01*
X-180934Y-173526D02*
X-181992Y-172468D01*
X-184108D01*
X-185166Y-173526D01*
Y-177758D01*
X-184108Y-178816D01*
X-181992D01*
X-180934Y-177758D01*
Y-175642D01*
X-183050D01*
X-178818Y-172468D02*
Y-173526D01*
X-176702Y-175642D01*
X-174586Y-173526D01*
Y-172468D01*
X-176702Y-175642D02*
Y-178816D01*
X-172470D02*
Y-172468D01*
X-169296D01*
X-168238Y-173526D01*
Y-175642D01*
X-169296Y-176700D01*
X-172470D01*
X-170354D02*
X-168238Y-178816D01*
X-162948Y-172468D02*
X-165064D01*
X-166122Y-173526D01*
Y-177758D01*
X-165064Y-178816D01*
X-162948D01*
X-161890Y-177758D01*
Y-173526D01*
X-162948Y-172468D01*
X-142834Y-173526D02*
X-143892Y-172468D01*
X-146008D01*
X-147066Y-173526D01*
Y-174584D01*
X-146008Y-175642D01*
X-143892D01*
X-142834Y-176700D01*
Y-177758D01*
X-143892Y-178816D01*
X-146008D01*
X-147066Y-177758D01*
X-136486Y-173526D02*
X-137544Y-172468D01*
X-139660D01*
X-140718Y-173526D01*
Y-177758D01*
X-139660Y-178816D01*
X-137544D01*
X-136486Y-177758D01*
X-134370Y-172468D02*
Y-178816D01*
Y-176700D01*
X-130138Y-172468D01*
X-133312Y-175642D01*
X-130138Y-178816D01*
X-223266D02*
Y-172468D01*
X-221150Y-174584D01*
X-219034Y-172468D01*
Y-178816D01*
X-216918Y-172468D02*
X-214802D01*
X-215860D01*
Y-178816D01*
X-216918D01*
X-214802D01*
X-207396Y-173526D02*
X-208454Y-172468D01*
X-210570D01*
X-211628Y-173526D01*
Y-174584D01*
X-210570Y-175642D01*
X-208454D01*
X-207396Y-176700D01*
Y-177758D01*
X-208454Y-178816D01*
X-210570D01*
X-211628Y-177758D01*
X-202106Y-172468D02*
X-204222D01*
X-205280Y-173526D01*
Y-177758D01*
X-204222Y-178816D01*
X-202106D01*
X-201048Y-177758D01*
Y-173526D01*
X-202106Y-172468D01*
X-288884Y-159556D02*
X-289942Y-158498D01*
X-292058D01*
X-293116Y-159556D01*
Y-163788D01*
X-292058Y-164846D01*
X-289942D01*
X-288884Y-163788D01*
Y-161672D01*
X-291000D01*
X-286768Y-158498D02*
Y-159556D01*
X-284652Y-161672D01*
X-282536Y-159556D01*
Y-158498D01*
X-284652Y-161672D02*
Y-164846D01*
X-280420D02*
Y-158498D01*
X-277246D01*
X-276188Y-159556D01*
Y-161672D01*
X-277246Y-162730D01*
X-280420D01*
X-278304D02*
X-276188Y-164846D01*
X-270898Y-158498D02*
X-273014D01*
X-274072Y-159556D01*
Y-163788D01*
X-273014Y-164846D01*
X-270898D01*
X-269840Y-163788D01*
Y-159556D01*
X-270898Y-158498D01*
X-175854Y-160826D02*
X-176912Y-159768D01*
X-179028D01*
X-180086Y-160826D01*
Y-165058D01*
X-179028Y-166116D01*
X-176912D01*
X-175854Y-165058D01*
X-169506Y-160826D02*
X-170564Y-159768D01*
X-172680D01*
X-173738Y-160826D01*
Y-161884D01*
X-172680Y-162942D01*
X-170564D01*
X-169506Y-164000D01*
Y-165058D01*
X-170564Y-166116D01*
X-172680D01*
X-173738Y-165058D01*
X-253746Y-172468D02*
Y-178816D01*
X-249514D01*
X-243166Y-173526D02*
X-244224Y-172468D01*
X-246340D01*
X-247398Y-173526D01*
Y-177758D01*
X-246340Y-178816D01*
X-244224D01*
X-243166Y-177758D01*
Y-175642D01*
X-245282D01*
X-236818Y-178816D02*
X-241050D01*
X-236818Y-174584D01*
Y-173526D01*
X-237876Y-172468D01*
X-239992D01*
X-241050Y-173526D01*
X-245704Y-159556D02*
X-246762Y-158498D01*
X-248878D01*
X-249936Y-159556D01*
Y-163788D01*
X-248878Y-164846D01*
X-246762D01*
X-245704Y-163788D01*
X-239356Y-159556D02*
X-240414Y-158498D01*
X-242530D01*
X-243588Y-159556D01*
Y-160614D01*
X-242530Y-161672D01*
X-240414D01*
X-239356Y-162730D01*
Y-163788D01*
X-240414Y-164846D01*
X-242530D01*
X-243588Y-163788D01*
X-288884Y-173526D02*
X-289942Y-172468D01*
X-292058D01*
X-293116Y-173526D01*
Y-177758D01*
X-292058Y-178816D01*
X-289942D01*
X-288884Y-177758D01*
X-283594Y-172468D02*
X-285710D01*
X-286768Y-173526D01*
Y-177758D01*
X-285710Y-178816D01*
X-283594D01*
X-282536Y-177758D01*
Y-173526D01*
X-283594Y-172468D01*
X-280420Y-178816D02*
Y-172468D01*
X-276188Y-178816D01*
Y-172468D01*
X-274072D02*
Y-176700D01*
X-271956Y-178816D01*
X-269840Y-176700D01*
Y-172468D01*
X-55454Y210184D02*
X-51222D01*
X-53338D01*
Y203836D01*
X-49106D02*
Y210184D01*
X-45932D01*
X-44874Y209126D01*
Y207010D01*
X-45932Y205952D01*
X-49106D01*
X-42758Y209126D02*
X-41700Y210184D01*
X-39584D01*
X-38526Y209126D01*
Y208068D01*
X-39584Y207010D01*
X-40642D01*
X-39584D01*
X-38526Y205952D01*
Y204894D01*
X-39584Y203836D01*
X-41700D01*
X-42758Y204894D01*
X-43602Y184784D02*
Y178436D01*
X-39370D01*
X-37254D02*
X-35138D01*
X-36196D01*
Y184784D01*
X-37254Y183726D01*
X-22648Y177376D02*
X-23706Y178434D01*
X-25822D01*
X-26880Y177376D01*
Y173144D01*
X-25822Y172086D01*
X-23706D01*
X-22648Y173144D01*
X-16300Y178434D02*
X-18416Y177376D01*
X-20532Y175260D01*
Y173144D01*
X-19474Y172086D01*
X-17358D01*
X-16300Y173144D01*
Y174202D01*
X-17358Y175260D01*
X-20532D01*
X-75140Y159384D02*
Y154094D01*
X-74082Y153036D01*
X-71966D01*
X-70908Y154094D01*
Y159384D01*
X-68792Y158326D02*
X-67734Y159384D01*
X-65618D01*
X-64560Y158326D01*
Y157268D01*
X-65618Y156210D01*
X-66676D01*
X-65618D01*
X-64560Y155152D01*
Y154094D01*
X-65618Y153036D01*
X-67734D01*
X-68792Y154094D01*
X-235160Y161924D02*
Y156634D01*
X-234102Y155576D01*
X-231986D01*
X-230928Y156634D01*
Y161924D01*
X-224580D02*
X-226696Y160866D01*
X-228812Y158750D01*
Y156634D01*
X-227754Y155576D01*
X-225638D01*
X-224580Y156634D01*
Y157692D01*
X-225638Y158750D01*
X-228812D01*
X-307233Y239606D02*
X-308291Y240664D01*
X-310407D01*
X-311465Y239606D01*
Y235374D01*
X-310407Y234316D01*
X-308291D01*
X-307233Y235374D01*
X-305117Y234316D02*
X-303001D01*
X-304059D01*
Y240664D01*
X-305117Y239606D01*
X-295595Y240664D02*
X-299827D01*
Y237490D01*
X-297711Y238548D01*
X-296653D01*
X-295595Y237490D01*
Y235374D01*
X-296653Y234316D01*
X-298769D01*
X-299827Y235374D01*
X-275483Y244686D02*
X-276541Y245744D01*
X-278657D01*
X-279715Y244686D01*
Y240454D01*
X-278657Y239396D01*
X-276541D01*
X-275483Y240454D01*
X-273367Y239396D02*
X-271251D01*
X-272309D01*
Y245744D01*
X-273367Y244686D01*
X-263845Y245744D02*
X-265961Y244686D01*
X-268077Y242570D01*
Y240454D01*
X-267019Y239396D01*
X-264903D01*
X-263845Y240454D01*
Y241512D01*
X-264903Y242570D01*
X-268077D01*
X95040Y50164D02*
Y44874D01*
X96098Y43816D01*
X98214D01*
X99272Y44874D01*
Y50164D01*
X105620Y43816D02*
X101388D01*
X105620Y48048D01*
Y49106D01*
X104562Y50164D01*
X102446D01*
X101388Y49106D01*
X117052Y-72814D02*
X115994Y-71756D01*
X113878D01*
X112820Y-72814D01*
Y-77046D01*
X113878Y-78104D01*
X115994D01*
X117052Y-77046D01*
X122342Y-78104D02*
Y-71756D01*
X119168Y-74930D01*
X123400D01*
X111972Y-53764D02*
X110914Y-52706D01*
X108798D01*
X107740Y-53764D01*
Y-57996D01*
X108798Y-59054D01*
X110914D01*
X111972Y-57996D01*
X118320Y-52706D02*
X114088D01*
Y-55880D01*
X116204Y-54822D01*
X117262D01*
X118320Y-55880D01*
Y-57996D01*
X117262Y-59054D01*
X115146D01*
X114088Y-57996D01*
X176742Y-35984D02*
X175684Y-34926D01*
X173568D01*
X172510Y-35984D01*
Y-40216D01*
X173568Y-41274D01*
X175684D01*
X176742Y-40216D01*
X178858Y-35984D02*
X179916Y-34926D01*
X182032D01*
X183090Y-35984D01*
Y-37042D01*
X182032Y-38100D01*
X183090Y-39158D01*
Y-40216D01*
X182032Y-41274D01*
X179916D01*
X178858Y-40216D01*
Y-39158D01*
X179916Y-38100D01*
X178858Y-37042D01*
Y-35984D01*
X179916Y-38100D02*
X182032D01*
X157692Y-32174D02*
X156634Y-31116D01*
X154518D01*
X153460Y-32174D01*
Y-36406D01*
X154518Y-37464D01*
X156634D01*
X157692Y-36406D01*
X159808D02*
X160866Y-37464D01*
X162982D01*
X164040Y-36406D01*
Y-32174D01*
X162982Y-31116D01*
X160866D01*
X159808Y-32174D01*
Y-33232D01*
X160866Y-34290D01*
X164040D01*
X156105Y32596D02*
X155047Y33654D01*
X152931D01*
X151873Y32596D01*
Y28364D01*
X152931Y27306D01*
X155047D01*
X156105Y28364D01*
X158221Y27306D02*
X160337D01*
X159279D01*
Y33654D01*
X158221Y32596D01*
X163511Y27306D02*
X165627D01*
X164569D01*
Y33654D01*
X163511Y32596D01*
X175367Y40216D02*
X174309Y41274D01*
X172193D01*
X171135Y40216D01*
Y35984D01*
X172193Y34926D01*
X174309D01*
X175367Y35984D01*
X177483Y34926D02*
X179599D01*
X178541D01*
Y41274D01*
X177483Y40216D01*
X182773D02*
X183831Y41274D01*
X185947D01*
X187005Y40216D01*
Y35984D01*
X185947Y34926D01*
X183831D01*
X182773Y35984D01*
Y40216D01*
X157692Y77046D02*
X156634Y78104D01*
X154518D01*
X153460Y77046D01*
Y72814D01*
X154518Y71756D01*
X156634D01*
X157692Y72814D01*
X164040Y71756D02*
X159808D01*
X164040Y75988D01*
Y77046D01*
X162982Y78104D01*
X160866D01*
X159808Y77046D01*
X155152Y59266D02*
X154094Y60324D01*
X151978D01*
X150920Y59266D01*
Y55034D01*
X151978Y53976D01*
X154094D01*
X155152Y55034D01*
X157268Y59266D02*
X158326Y60324D01*
X160442D01*
X161500Y59266D01*
Y58208D01*
X160442Y57150D01*
X159384D01*
X160442D01*
X161500Y56092D01*
Y55034D01*
X160442Y53976D01*
X158326D01*
X157268Y55034D01*
X37890Y28576D02*
Y34924D01*
X41064D01*
X42122Y33866D01*
Y31750D01*
X41064Y30692D01*
X37890D01*
X40006D02*
X42122Y28576D01*
X48470D02*
X44238D01*
X48470Y32808D01*
Y33866D01*
X47412Y34924D01*
X45296D01*
X44238Y33866D01*
X-17780Y-89324D02*
X-18838Y-88266D01*
X-20954D01*
X-22012Y-89324D01*
Y-93556D01*
X-20954Y-94614D01*
X-18838D01*
X-17780Y-93556D01*
X-15664Y-94614D02*
X-13548D01*
X-14606D01*
Y-88266D01*
X-15664Y-89324D01*
X-162770Y153036D02*
Y159384D01*
X-159596D01*
X-158538Y158326D01*
Y156210D01*
X-159596Y155152D01*
X-162770D01*
X-160654D02*
X-158538Y153036D01*
X-153248D02*
Y159384D01*
X-156422Y156210D01*
X-152190D01*
X-172294Y285114D02*
X-168062D01*
X-170178D01*
Y278766D01*
X-165946D02*
Y285114D01*
X-162772D01*
X-161714Y284056D01*
Y281940D01*
X-162772Y280882D01*
X-165946D01*
X-156424Y278766D02*
Y285114D01*
X-159598Y281940D01*
X-155366D01*
X-175470Y227966D02*
Y234314D01*
X-172296D01*
X-171238Y233256D01*
Y231140D01*
X-172296Y230082D01*
X-175470D01*
X-173354D02*
X-171238Y227966D01*
X-164890Y234314D02*
X-169122D01*
Y231140D01*
X-167006Y232198D01*
X-165948D01*
X-164890Y231140D01*
Y229024D01*
X-165948Y227966D01*
X-168064D01*
X-169122Y229024D01*
X-149753Y235796D02*
X-150811Y236854D01*
X-152927D01*
X-153985Y235796D01*
Y231564D01*
X-152927Y230506D01*
X-150811D01*
X-149753Y231564D01*
X-147637Y230506D02*
X-145521D01*
X-146579D01*
Y236854D01*
X-147637Y235796D01*
X-139173Y230506D02*
Y236854D01*
X-142347Y233680D01*
X-138115D01*
X-132290Y205106D02*
Y211454D01*
X-129116D01*
X-128058Y210396D01*
Y208280D01*
X-129116Y207222D01*
X-132290D01*
X-130174D02*
X-128058Y205106D01*
X-121710Y211454D02*
X-123826Y210396D01*
X-125942Y208280D01*
Y206164D01*
X-124884Y205106D01*
X-122768D01*
X-121710Y206164D01*
Y207222D01*
X-122768Y208280D01*
X-125942D01*
X-212724Y167216D02*
X-213782Y168274D01*
X-215898D01*
X-216956Y167216D01*
Y162984D01*
X-215898Y161926D01*
X-213782D01*
X-212724Y162984D01*
X-210608Y167216D02*
X-209550Y168274D01*
X-207434D01*
X-206376Y167216D01*
Y166158D01*
X-207434Y165100D01*
X-208492D01*
X-207434D01*
X-206376Y164042D01*
Y162984D01*
X-207434Y161926D01*
X-209550D01*
X-210608Y162984D01*
X-204260Y161926D02*
X-202144D01*
X-203202D01*
Y168274D01*
X-204260Y167216D01*
X-161183Y196426D02*
X-162241Y197484D01*
X-164357D01*
X-165415Y196426D01*
Y192194D01*
X-164357Y191136D01*
X-162241D01*
X-161183Y192194D01*
X-159067Y191136D02*
X-156951D01*
X-158009D01*
Y197484D01*
X-159067Y196426D01*
X-153777D02*
X-152719Y197484D01*
X-150603D01*
X-149545Y196426D01*
Y195368D01*
X-150603Y194310D01*
X-151661D01*
X-150603D01*
X-149545Y193252D01*
Y192194D01*
X-150603Y191136D01*
X-152719D01*
X-153777Y192194D01*
X-189652Y198966D02*
X-190710Y200024D01*
X-192826D01*
X-193884Y198966D01*
Y194734D01*
X-192826Y193676D01*
X-190710D01*
X-189652Y194734D01*
X-187536Y198966D02*
X-186478Y200024D01*
X-184362D01*
X-183304Y198966D01*
Y197908D01*
X-184362Y196850D01*
X-185420D01*
X-184362D01*
X-183304Y195792D01*
Y194734D01*
X-184362Y193676D01*
X-186478D01*
X-187536Y194734D01*
X-181188Y198966D02*
X-180130Y200024D01*
X-178014D01*
X-176956Y198966D01*
Y194734D01*
X-178014Y193676D01*
X-180130D01*
X-181188Y194734D01*
Y198966D01*
X-246802Y191346D02*
X-247860Y192404D01*
X-249976D01*
X-251034Y191346D01*
Y187114D01*
X-249976Y186056D01*
X-247860D01*
X-246802Y187114D01*
X-244686Y191346D02*
X-243628Y192404D01*
X-241512D01*
X-240454Y191346D01*
Y190288D01*
X-241512Y189230D01*
X-242570D01*
X-241512D01*
X-240454Y188172D01*
Y187114D01*
X-241512Y186056D01*
X-243628D01*
X-244686Y187114D01*
X-234106Y186056D02*
X-238338D01*
X-234106Y190288D01*
Y191346D01*
X-235164Y192404D01*
X-237280D01*
X-238338Y191346D01*
X-223730Y263524D02*
Y258234D01*
X-222672Y257176D01*
X-220556D01*
X-219498Y258234D01*
Y263524D01*
X-214208Y257176D02*
Y263524D01*
X-217382Y260350D01*
X-213150D01*
X-278974Y206374D02*
X-274742D01*
X-276858D01*
Y200026D01*
X-272626D02*
Y206374D01*
X-269452D01*
X-268394Y205316D01*
Y203200D01*
X-269452Y202142D01*
X-272626D01*
X-262046Y206374D02*
X-266278D01*
Y203200D01*
X-264162Y204258D01*
X-263104D01*
X-262046Y203200D01*
Y201084D01*
X-263104Y200026D01*
X-265220D01*
X-266278Y201084D01*
X-310195Y187326D02*
Y193674D01*
X-307021D01*
X-305963Y192616D01*
Y190500D01*
X-307021Y189442D01*
X-310195D01*
X-308079D02*
X-305963Y187326D01*
X-303847D02*
X-301731D01*
X-302789D01*
Y193674D01*
X-303847Y192616D01*
X-298557D02*
X-297499Y193674D01*
X-295383D01*
X-294325Y192616D01*
Y191558D01*
X-295383Y190500D01*
X-296441D01*
X-295383D01*
X-294325Y189442D01*
Y188384D01*
X-295383Y187326D01*
X-297499D01*
X-298557Y188384D01*
X-311360Y159386D02*
Y165734D01*
X-308186D01*
X-307128Y164676D01*
Y162560D01*
X-308186Y161502D01*
X-311360D01*
X-309244D02*
X-307128Y159386D01*
X-305012Y164676D02*
X-303954Y165734D01*
X-301838D01*
X-300780Y164676D01*
Y163618D01*
X-301838Y162560D01*
X-300780Y161502D01*
Y160444D01*
X-301838Y159386D01*
X-303954D01*
X-305012Y160444D01*
Y161502D01*
X-303954Y162560D01*
X-305012Y163618D01*
Y164676D01*
X-303954Y162560D02*
X-301838D01*
X-314217Y145416D02*
Y151764D01*
X-311043D01*
X-309985Y150706D01*
Y148590D01*
X-311043Y147532D01*
X-314217D01*
X-312101D02*
X-309985Y145416D01*
X-307869D02*
X-305753D01*
X-306811D01*
Y151764D01*
X-307869Y150706D01*
X-302579Y145416D02*
X-300463D01*
X-301521D01*
Y151764D01*
X-302579Y150706D01*
X-315275Y128906D02*
Y135254D01*
X-312101D01*
X-311043Y134196D01*
Y132080D01*
X-312101Y131022D01*
X-315275D01*
X-313159D02*
X-311043Y128906D01*
X-308927D02*
X-306811D01*
X-307869D01*
Y135254D01*
X-308927Y134196D01*
X-299405Y128906D02*
X-303637D01*
X-299405Y133138D01*
Y134196D01*
X-300463Y135254D01*
X-302579D01*
X-303637Y134196D01*
X-315275Y113666D02*
Y120014D01*
X-312101D01*
X-311043Y118956D01*
Y116840D01*
X-312101Y115782D01*
X-315275D01*
X-313159D02*
X-311043Y113666D01*
X-308927D02*
X-306811D01*
X-307869D01*
Y120014D01*
X-308927Y118956D01*
X-303637D02*
X-302579Y120014D01*
X-300463D01*
X-299405Y118956D01*
Y114724D01*
X-300463Y113666D01*
X-302579D01*
X-303637Y114724D01*
Y118956D01*
X-269662Y85936D02*
X-270720Y86994D01*
X-272836D01*
X-273894Y85936D01*
Y81704D01*
X-272836Y80646D01*
X-270720D01*
X-269662Y81704D01*
X-263314Y80646D02*
X-267546D01*
X-263314Y84878D01*
Y85936D01*
X-264372Y86994D01*
X-266488D01*
X-267546Y85936D01*
X-261198D02*
X-260140Y86994D01*
X-258024D01*
X-256966Y85936D01*
Y84878D01*
X-258024Y83820D01*
X-256966Y82762D01*
Y81704D01*
X-258024Y80646D01*
X-260140D01*
X-261198Y81704D01*
Y82762D01*
X-260140Y83820D01*
X-261198Y84878D01*
Y85936D01*
X-260140Y83820D02*
X-258024D01*
X-245532Y82126D02*
X-246590Y83184D01*
X-248706D01*
X-249764Y82126D01*
Y77894D01*
X-248706Y76836D01*
X-246590D01*
X-245532Y77894D01*
X-239184Y76836D02*
X-243416D01*
X-239184Y81068D01*
Y82126D01*
X-240242Y83184D01*
X-242358D01*
X-243416Y82126D01*
X-237068Y83184D02*
X-232836D01*
Y82126D01*
X-237068Y77894D01*
Y76836D01*
X-198542Y87206D02*
X-199600Y88264D01*
X-201716D01*
X-202774Y87206D01*
Y82974D01*
X-201716Y81916D01*
X-199600D01*
X-198542Y82974D01*
X-192194Y81916D02*
X-196426D01*
X-192194Y86148D01*
Y87206D01*
X-193252Y88264D01*
X-195368D01*
X-196426Y87206D01*
X-185846Y88264D02*
X-190078D01*
Y85090D01*
X-187962Y86148D01*
X-186904D01*
X-185846Y85090D01*
Y82974D01*
X-186904Y81916D01*
X-189020D01*
X-190078Y82974D01*
X-221402Y82126D02*
X-222460Y83184D01*
X-224576D01*
X-225634Y82126D01*
Y77894D01*
X-224576Y76836D01*
X-222460D01*
X-221402Y77894D01*
X-215054Y76836D02*
X-219286D01*
X-215054Y81068D01*
Y82126D01*
X-216112Y83184D01*
X-218228D01*
X-219286Y82126D01*
X-208706Y83184D02*
X-210822Y82126D01*
X-212938Y80010D01*
Y77894D01*
X-211880Y76836D01*
X-209764D01*
X-208706Y77894D01*
Y78952D01*
X-209764Y80010D01*
X-212938D01*
X-191346Y134198D02*
X-192404Y133140D01*
Y131024D01*
X-191346Y129966D01*
X-187114D01*
X-186056Y131024D01*
Y133140D01*
X-187114Y134198D01*
X-186056Y140546D02*
Y136314D01*
X-190288Y140546D01*
X-191346D01*
X-192404Y139488D01*
Y137372D01*
X-191346Y136314D01*
X-187114Y142662D02*
X-186056Y143720D01*
Y145836D01*
X-187114Y146894D01*
X-191346D01*
X-192404Y145836D01*
Y143720D01*
X-191346Y142662D01*
X-190288D01*
X-189230Y143720D01*
Y146894D01*
X-161500Y116206D02*
Y122554D01*
X-158326D01*
X-157268Y121496D01*
Y119380D01*
X-158326Y118322D01*
X-161500D01*
X-159384D02*
X-157268Y116206D01*
X-155152Y117264D02*
X-154094Y116206D01*
X-151978D01*
X-150920Y117264D01*
Y121496D01*
X-151978Y122554D01*
X-154094D01*
X-155152Y121496D01*
Y120438D01*
X-154094Y119380D01*
X-150920D01*
X-147530Y100966D02*
Y107314D01*
X-144356D01*
X-143298Y106256D01*
Y104140D01*
X-144356Y103082D01*
X-147530D01*
X-145414D02*
X-143298Y100966D01*
X-141182Y106256D02*
X-140124Y107314D01*
X-138008D01*
X-136950Y106256D01*
Y105198D01*
X-138008Y104140D01*
X-139066D01*
X-138008D01*
X-136950Y103082D01*
Y102024D01*
X-138008Y100966D01*
X-140124D01*
X-141182Y102024D01*
X-181184Y83184D02*
X-176952D01*
X-179068D01*
Y76836D01*
X-174836D02*
Y83184D01*
X-171662D01*
X-170604Y82126D01*
Y80010D01*
X-171662Y78952D01*
X-174836D01*
X-164256Y76836D02*
X-168488D01*
X-164256Y81068D01*
Y82126D01*
X-165314Y83184D01*
X-167430D01*
X-168488Y82126D01*
X-145943Y88476D02*
X-147001Y89534D01*
X-149117D01*
X-150175Y88476D01*
Y84244D01*
X-149117Y83186D01*
X-147001D01*
X-145943Y84244D01*
X-143827Y83186D02*
X-141711D01*
X-142769D01*
Y89534D01*
X-143827Y88476D01*
X-134305Y83186D02*
X-138537D01*
X-134305Y87418D01*
Y88476D01*
X-135363Y89534D01*
X-137479D01*
X-138537Y88476D01*
X-59478Y106256D02*
X-60536Y107314D01*
X-62652D01*
X-63710Y106256D01*
Y102024D01*
X-62652Y100966D01*
X-60536D01*
X-59478Y102024D01*
X-57362Y107314D02*
X-53130D01*
Y106256D01*
X-57362Y102024D01*
Y100966D01*
X-62652Y85726D02*
Y92074D01*
X-59478D01*
X-58420Y91016D01*
Y88900D01*
X-59478Y87842D01*
X-62652D01*
X-60536D02*
X-58420Y85726D01*
X-56304D02*
X-54188D01*
X-55246D01*
Y92074D01*
X-56304Y91016D01*
X-53233Y74506D02*
X-54291Y75564D01*
X-56407D01*
X-57465Y74506D01*
Y70274D01*
X-56407Y69216D01*
X-54291D01*
X-53233Y70274D01*
X-51117Y69216D02*
X-49001D01*
X-50059D01*
Y75564D01*
X-51117Y74506D01*
X-45827Y75564D02*
X-41595D01*
Y74506D01*
X-45827Y70274D01*
Y69216D01*
X-144566Y79374D02*
X-140334D01*
X-142450D01*
Y73026D01*
X-138218D02*
Y79374D01*
X-135044D01*
X-133986Y78316D01*
Y76200D01*
X-135044Y75142D01*
X-138218D01*
X-131870Y73026D02*
X-129754D01*
X-130812D01*
Y79374D01*
X-131870Y78316D01*
X-105303Y54186D02*
X-106361Y55244D01*
X-108477D01*
X-109535Y54186D01*
Y49954D01*
X-108477Y48896D01*
X-106361D01*
X-105303Y49954D01*
X-103187Y48896D02*
X-101071D01*
X-102129D01*
Y55244D01*
X-103187Y54186D01*
X-97897D02*
X-96839Y55244D01*
X-94723D01*
X-93665Y54186D01*
Y53128D01*
X-94723Y52070D01*
X-93665Y51012D01*
Y49954D01*
X-94723Y48896D01*
X-96839D01*
X-97897Y49954D01*
Y51012D01*
X-96839Y52070D01*
X-97897Y53128D01*
Y54186D01*
X-96839Y52070D02*
X-94723D01*
X-48682Y-8044D02*
X-49740Y-6986D01*
X-51856D01*
X-52914Y-8044D01*
Y-12276D01*
X-51856Y-13334D01*
X-49740D01*
X-48682Y-12276D01*
X-42334Y-13334D02*
X-46566D01*
X-42334Y-9102D01*
Y-8044D01*
X-43392Y-6986D01*
X-45508D01*
X-46566Y-8044D01*
X-37044Y-13334D02*
Y-6986D01*
X-40218Y-10160D01*
X-35986D01*
X-44872Y49106D02*
X-45930Y50164D01*
X-48046D01*
X-49104Y49106D01*
Y44874D01*
X-48046Y43816D01*
X-45930D01*
X-44872Y44874D01*
X-38524Y43816D02*
X-42756D01*
X-38524Y48048D01*
Y49106D01*
X-39582Y50164D01*
X-41698D01*
X-42756Y49106D01*
X-36408D02*
X-35350Y50164D01*
X-33234D01*
X-32176Y49106D01*
Y48048D01*
X-33234Y46990D01*
X-34292D01*
X-33234D01*
X-32176Y45932D01*
Y44874D01*
X-33234Y43816D01*
X-35350D01*
X-36408Y44874D01*
X-189440Y9526D02*
Y15874D01*
X-186266D01*
X-185208Y14816D01*
Y12700D01*
X-186266Y11642D01*
X-189440D01*
X-187324D02*
X-185208Y9526D01*
X-183092Y15874D02*
X-178860D01*
Y14816D01*
X-183092Y10584D01*
Y9526D01*
X-139910Y45084D02*
Y39794D01*
X-138852Y38736D01*
X-136736D01*
X-135678Y39794D01*
Y45084D01*
X-129330D02*
X-133562D01*
Y41910D01*
X-131446Y42968D01*
X-130388D01*
X-129330Y41910D01*
Y39794D01*
X-130388Y38736D01*
X-132504D01*
X-133562Y39794D01*
X-71542Y-42334D02*
X-72600Y-41276D01*
X-74716D01*
X-75774Y-42334D01*
Y-46566D01*
X-74716Y-47624D01*
X-72600D01*
X-71542Y-46566D01*
X-65194Y-47624D02*
X-69426D01*
X-65194Y-43392D01*
Y-42334D01*
X-66252Y-41276D01*
X-68368D01*
X-69426Y-42334D01*
X-58846Y-47624D02*
X-63078D01*
X-58846Y-43392D01*
Y-42334D01*
X-59904Y-41276D01*
X-62020D01*
X-63078Y-42334D01*
X-85724Y-89324D02*
X-86782Y-88266D01*
X-88898D01*
X-89956Y-89324D01*
Y-93556D01*
X-88898Y-94614D01*
X-86782D01*
X-85724Y-93556D01*
X-79376Y-94614D02*
X-83608D01*
X-79376Y-90382D01*
Y-89324D01*
X-80434Y-88266D01*
X-82550D01*
X-83608Y-89324D01*
X-77260Y-94614D02*
X-75144D01*
X-76202D01*
Y-88266D01*
X-77260Y-89324D01*
X-154092Y-53764D02*
X-155150Y-52706D01*
X-157266D01*
X-158324Y-53764D01*
Y-57996D01*
X-157266Y-59054D01*
X-155150D01*
X-154092Y-57996D01*
X-147744Y-59054D02*
X-151976D01*
X-147744Y-54822D01*
Y-53764D01*
X-148802Y-52706D01*
X-150918D01*
X-151976Y-53764D01*
X-145628D02*
X-144570Y-52706D01*
X-142454D01*
X-141396Y-53764D01*
Y-57996D01*
X-142454Y-59054D01*
X-144570D01*
X-145628Y-57996D01*
Y-53764D01*
X-129433Y-88054D02*
X-130491Y-86996D01*
X-132607D01*
X-133665Y-88054D01*
Y-92286D01*
X-132607Y-93344D01*
X-130491D01*
X-129433Y-92286D01*
X-127317Y-93344D02*
X-125201D01*
X-126259D01*
Y-86996D01*
X-127317Y-88054D01*
X-122027Y-92286D02*
X-120969Y-93344D01*
X-118853D01*
X-117795Y-92286D01*
Y-88054D01*
X-118853Y-86996D01*
X-120969D01*
X-122027Y-88054D01*
Y-89112D01*
X-120969Y-90170D01*
X-117795D01*
X245786Y-207774D02*
X243670D01*
X244728D01*
Y-213064D01*
X243670Y-214122D01*
X242612D01*
X241554Y-213064D01*
X247902Y-214122D02*
X250018D01*
X248960D01*
Y-207774D01*
X247902Y-208832D01*
X4318Y3300D02*
Y-1990D01*
X3260Y-3048D01*
X1144D01*
X86Y-1990D01*
Y3300D01*
X-2030Y-3048D02*
X-4146D01*
X-3088D01*
Y3300D01*
X-2030Y2242D01*
X-142072Y-207774D02*
X-144188D01*
X-143130D01*
Y-213064D01*
X-144188Y-214122D01*
X-145246D01*
X-146304Y-213064D01*
X-139956Y-214122D02*
X-137840D01*
X-138898D01*
Y-207774D01*
X-139956Y-208832D01*
X-131492Y-214122D02*
Y-207774D01*
X-134666Y-210948D01*
X-130434D01*
X35220Y-207774D02*
X33104D01*
X34162D01*
Y-213064D01*
X33104Y-214122D01*
X32046D01*
X30988Y-213064D01*
X41568Y-207774D02*
X39452Y-208832D01*
X37336Y-210948D01*
Y-213064D01*
X38394Y-214122D01*
X40510D01*
X41568Y-213064D01*
Y-212006D01*
X40510Y-210948D01*
X37336D01*
X168Y-207774D02*
X-1948D01*
X-890D01*
Y-213064D01*
X-1948Y-214122D01*
X-3006D01*
X-4064Y-213064D01*
X2284Y-207774D02*
X6516D01*
Y-208832D01*
X2284Y-213064D01*
Y-214122D01*
X-107274Y-207774D02*
X-109390D01*
X-108332D01*
Y-213064D01*
X-109390Y-214122D01*
X-110448D01*
X-111506Y-213064D01*
X-105158Y-214122D02*
X-103042D01*
X-104100D01*
Y-207774D01*
X-105158Y-208832D01*
X-99868D02*
X-98810Y-207774D01*
X-96694D01*
X-95636Y-208832D01*
Y-213064D01*
X-96694Y-214122D01*
X-98810D01*
X-99868Y-213064D01*
Y-208832D01*
X-281772Y-207774D02*
X-283888D01*
X-282830D01*
Y-213064D01*
X-283888Y-214122D01*
X-284946D01*
X-286004Y-213064D01*
X-279656Y-214122D02*
X-277540D01*
X-278598D01*
Y-207774D01*
X-279656Y-208832D01*
X-270134Y-214122D02*
X-274366D01*
X-270134Y-209890D01*
Y-208832D01*
X-271192Y-207774D01*
X-273308D01*
X-274366Y-208832D01*
X-211922Y-207774D02*
X-214038D01*
X-212980D01*
Y-213064D01*
X-214038Y-214122D01*
X-215096D01*
X-216154Y-213064D01*
X-209806Y-214122D02*
X-207690D01*
X-208748D01*
Y-207774D01*
X-209806Y-208832D01*
X-204516D02*
X-203458Y-207774D01*
X-201342D01*
X-200284Y-208832D01*
Y-209890D01*
X-201342Y-210948D01*
X-202400D01*
X-201342D01*
X-200284Y-212006D01*
Y-213064D01*
X-201342Y-214122D01*
X-203458D01*
X-204516Y-213064D01*
X207178Y-207774D02*
X205062D01*
X206120D01*
Y-213064D01*
X205062Y-214122D01*
X204004D01*
X202946Y-213064D01*
X209294Y-214122D02*
X211410D01*
X210352D01*
Y-207774D01*
X209294Y-208832D01*
X214584Y-207774D02*
X218816D01*
Y-208832D01*
X214584Y-213064D01*
Y-214122D01*
X105070Y-207774D02*
X102954D01*
X104012D01*
Y-213064D01*
X102954Y-214122D01*
X101896D01*
X100838Y-213064D01*
X110360Y-214122D02*
Y-207774D01*
X107186Y-210948D01*
X111418D01*
X139868Y-207774D02*
X137752D01*
X138810D01*
Y-213064D01*
X137752Y-214122D01*
X136694D01*
X135636Y-213064D01*
X141984Y-208832D02*
X143042Y-207774D01*
X145158D01*
X146216Y-208832D01*
Y-209890D01*
X145158Y-210948D01*
X144100D01*
X145158D01*
X146216Y-212006D01*
Y-213064D01*
X145158Y-214122D01*
X143042D01*
X141984Y-213064D01*
X279568Y-207774D02*
X277452D01*
X278510D01*
Y-213064D01*
X277452Y-214122D01*
X276394D01*
X275336Y-213064D01*
X285916Y-214122D02*
X281684D01*
X285916Y-209890D01*
Y-208832D01*
X284858Y-207774D01*
X282742D01*
X281684Y-208832D01*
X70018Y-207774D02*
X67902D01*
X68960D01*
Y-213064D01*
X67902Y-214122D01*
X66844D01*
X65786Y-213064D01*
X76366Y-207774D02*
X72134D01*
Y-210948D01*
X74250Y-209890D01*
X75308D01*
X76366Y-210948D01*
Y-213064D01*
X75308Y-214122D01*
X73192D01*
X72134Y-213064D01*
X-34630Y-207774D02*
X-36746D01*
X-35688D01*
Y-213064D01*
X-36746Y-214122D01*
X-37804D01*
X-38862Y-213064D01*
X-32514Y-208832D02*
X-31456Y-207774D01*
X-29340D01*
X-28282Y-208832D01*
Y-209890D01*
X-29340Y-210948D01*
X-28282Y-212006D01*
Y-213064D01*
X-29340Y-214122D01*
X-31456D01*
X-32514Y-213064D01*
Y-212006D01*
X-31456Y-210948D01*
X-32514Y-209890D01*
Y-208832D01*
X-31456Y-210948D02*
X-29340D01*
X-69682Y-207774D02*
X-71798D01*
X-70740D01*
Y-213064D01*
X-71798Y-214122D01*
X-72856D01*
X-73914Y-213064D01*
X-67566D02*
X-66508Y-214122D01*
X-64392D01*
X-63334Y-213064D01*
Y-208832D01*
X-64392Y-207774D01*
X-66508D01*
X-67566Y-208832D01*
Y-209890D01*
X-66508Y-210948D01*
X-63334D01*
X-176108Y-207774D02*
X-178224D01*
X-177166D01*
Y-213064D01*
X-178224Y-214122D01*
X-179282D01*
X-180340Y-213064D01*
X-173992Y-214122D02*
X-171876D01*
X-172934D01*
Y-207774D01*
X-173992Y-208832D01*
X-168702Y-214122D02*
X-166586D01*
X-167644D01*
Y-207774D01*
X-168702Y-208832D01*
X172126Y-207774D02*
X170010D01*
X171068D01*
Y-213064D01*
X170010Y-214122D01*
X168952D01*
X167894Y-213064D01*
X174242Y-214122D02*
X176358D01*
X175300D01*
Y-207774D01*
X174242Y-208832D01*
X183764Y-207774D02*
X179532D01*
Y-210948D01*
X181648Y-209890D01*
X182706D01*
X183764Y-210948D01*
Y-213064D01*
X182706Y-214122D01*
X180590D01*
X179532Y-213064D01*
X-246974Y-207774D02*
X-249090D01*
X-248032D01*
Y-213064D01*
X-249090Y-214122D01*
X-250148D01*
X-251206Y-213064D01*
X-244858Y-214122D02*
X-242742D01*
X-243800D01*
Y-207774D01*
X-244858Y-208832D01*
X-235336Y-207774D02*
X-237452Y-208832D01*
X-239568Y-210948D01*
Y-213064D01*
X-238510Y-214122D01*
X-236394D01*
X-235336Y-213064D01*
Y-212006D01*
X-236394Y-210948D01*
X-239568D01*
D13*
X130076Y25740D02*
Y30000D01*
Y-30000D02*
Y-25740D01*
X70076Y-30000D02*
Y-25740D01*
Y25740D02*
Y30000D01*
X80856D01*
X119296D02*
X130076D01*
X119296Y-30000D02*
X130076D01*
X70076D02*
X80856D01*
X-70076Y25740D02*
Y30000D01*
Y-30000D02*
Y-25740D01*
X-130076Y-30000D02*
Y-25740D01*
Y25740D02*
Y30000D01*
X-119296D01*
X-80856D02*
X-70076D01*
X-80856Y-30000D02*
X-70076D01*
X-130076D02*
X-119296D01*
D14*
X208786Y-156974D02*
X207517Y-155704D01*
X204978D01*
X203708Y-156974D01*
Y-162052D01*
X204978Y-163322D01*
X207517D01*
X208786Y-162052D01*
X216404Y-156974D02*
X215134Y-155704D01*
X212595D01*
X211325Y-156974D01*
Y-158244D01*
X212595Y-159513D01*
X215134D01*
X216404Y-160783D01*
Y-162052D01*
X215134Y-163322D01*
X212595D01*
X211325Y-162052D01*
X147824Y260855D02*
X146554Y262125D01*
X144015D01*
X142746Y260855D01*
Y255777D01*
X144015Y254507D01*
X146554D01*
X147824Y255777D01*
Y258316D01*
X145285D01*
X150363Y259585D02*
Y255777D01*
X151633Y254507D01*
X155441D01*
Y253238D01*
X154172Y251968D01*
X152902D01*
X155441Y254507D02*
Y259585D01*
X157981D02*
Y254507D01*
Y257046D01*
X159250Y258316D01*
X160520Y259585D01*
X161789D01*
X166868Y254507D02*
X169407D01*
X170676Y255777D01*
Y258316D01*
X169407Y259585D01*
X166868D01*
X165598Y258316D01*
Y255777D01*
X166868Y254507D01*
X185912D02*
X180833D01*
X185912Y259585D01*
Y260855D01*
X184642Y262125D01*
X182103D01*
X180833Y260855D01*
X188451D02*
X189720Y262125D01*
X192260D01*
X193529Y260855D01*
Y255777D01*
X192260Y254507D01*
X189720D01*
X188451Y255777D01*
Y260855D01*
X196068Y254507D02*
Y262125D01*
Y257046D02*
X199877Y259585D01*
X196068Y257046D02*
X199877Y254507D01*
X211303Y258316D02*
X216382D01*
X226538Y254507D02*
Y259585D01*
X229078Y262125D01*
X231617Y259585D01*
Y254507D01*
Y258316D01*
X226538D01*
X239234Y259585D02*
X235426D01*
X234156Y258316D01*
Y255777D01*
X235426Y254507D01*
X239234D01*
X246852Y259585D02*
X243043D01*
X241773Y258316D01*
Y255777D01*
X243043Y254507D01*
X246852D01*
X253200D02*
X250661D01*
X249391Y255777D01*
Y258316D01*
X250661Y259585D01*
X253200D01*
X254469Y258316D01*
Y257046D01*
X249391D01*
X257009Y254507D02*
X259548D01*
X258278D01*
Y262125D01*
X257009D01*
X147826Y277366D02*
X146557Y278636D01*
X144018D01*
X142748Y277366D01*
Y276096D01*
X144018Y274827D01*
X146557D01*
X147826Y273557D01*
Y272288D01*
X146557Y271018D01*
X144018D01*
X142748Y272288D01*
X150365Y271018D02*
Y276096D01*
X152905Y278636D01*
X155444Y276096D01*
Y271018D01*
Y274827D01*
X150365D01*
X163061Y277366D02*
X161792Y278636D01*
X159253D01*
X157983Y277366D01*
Y276096D01*
X159253Y274827D01*
X161792D01*
X163061Y273557D01*
Y272288D01*
X161792Y271018D01*
X159253D01*
X157983Y272288D01*
X165601Y278636D02*
X170679D01*
X168140D01*
Y271018D01*
X185914Y277366D02*
X184645Y278636D01*
X182105D01*
X180836Y277366D01*
Y272288D01*
X182105Y271018D01*
X184645D01*
X185914Y272288D01*
Y274827D01*
X183375D01*
X193532Y278636D02*
X188453D01*
Y271018D01*
X193532D01*
X188453Y274827D02*
X190992D01*
X196071Y271018D02*
Y278636D01*
X201149Y271018D01*
Y278636D01*
X216384Y271018D02*
X211306D01*
X216384Y276096D01*
Y277366D01*
X215115Y278636D01*
X212575D01*
X211306Y277366D01*
X218923Y271018D02*
Y272288D01*
X220193D01*
Y271018D01*
X218923D01*
X225271Y277366D02*
X226541Y278636D01*
X229080D01*
X230350Y277366D01*
Y272288D01*
X229080Y271018D01*
X226541D01*
X225271Y272288D01*
Y277366D01*
X240506Y278636D02*
Y271018D01*
X244315D01*
X245585Y272288D01*
Y273557D01*
X244315Y274827D01*
X240506D01*
X244315D01*
X245585Y276096D01*
Y277366D01*
X244315Y278636D01*
X240506D01*
X253202D02*
X248124D01*
Y271018D01*
X253202D01*
X248124Y274827D02*
X250663D01*
X255741Y278636D02*
X260820D01*
X258281D01*
Y271018D01*
X263359D02*
Y276096D01*
X265898Y278636D01*
X268437Y276096D01*
Y271018D01*
Y274827D01*
X263359D01*
X142748Y217677D02*
Y225295D01*
X146557D01*
X147826Y224025D01*
Y221486D01*
X146557Y220216D01*
X142748D01*
X154174Y217677D02*
X151635D01*
X150365Y218947D01*
Y221486D01*
X151635Y222756D01*
X154174D01*
X155444Y221486D01*
Y220216D01*
X150365D01*
X157983Y217677D02*
Y222756D01*
X161792D01*
X163061Y221486D01*
Y217677D01*
X166870Y224025D02*
Y222756D01*
X165601D01*
X168140D01*
X166870D01*
Y218947D01*
X168140Y217677D01*
X173218Y222756D02*
X175757D01*
X177027Y221486D01*
Y217677D01*
X173218D01*
X171949Y218947D01*
X173218Y220216D01*
X177027D01*
X182105Y215138D02*
X183375D01*
X184644Y216408D01*
Y222756D01*
X180836D01*
X179566Y221486D01*
Y218947D01*
X180836Y217677D01*
X184644D01*
X190992D02*
X188453D01*
X187184Y218947D01*
Y221486D01*
X188453Y222756D01*
X190992D01*
X192262Y221486D01*
Y220216D01*
X187184D01*
X198610Y217677D02*
X196071D01*
X194801Y218947D01*
Y221486D01*
X196071Y222756D01*
X198610D01*
X199879Y221486D01*
Y220216D01*
X194801D01*
X202419Y222756D02*
Y217677D01*
Y220216D01*
X203688Y221486D01*
X204958Y222756D01*
X206227D01*
X142748Y244345D02*
Y236728D01*
X146557D01*
X147826Y237998D01*
Y243076D01*
X146557Y244345D01*
X142748D01*
X155444Y243076D02*
X154174Y244345D01*
X151635D01*
X150365Y243076D01*
Y241806D01*
X151635Y240537D01*
X154174D01*
X155444Y239267D01*
Y237998D01*
X154174Y236728D01*
X151635D01*
X150365Y237998D01*
X157983Y236728D02*
Y244345D01*
X161792D01*
X163061Y243076D01*
Y240537D01*
X161792Y239267D01*
X157983D01*
X178297Y236728D02*
X173218D01*
X178297Y241806D01*
Y243076D01*
X177027Y244345D01*
X174488D01*
X173218Y243076D01*
X180836D02*
X182105Y244345D01*
X184645D01*
X185914Y243076D01*
Y237998D01*
X184645Y236728D01*
X182105D01*
X180836Y237998D01*
Y243076D01*
X193532Y236728D02*
X188453D01*
X193532Y241806D01*
Y243076D01*
X192262Y244345D01*
X189723D01*
X188453Y243076D01*
X199879Y236728D02*
Y244345D01*
X196071Y240537D01*
X201149D01*
M02*
