G04*
G04 #@! TF.GenerationSoftware,Altium Limited,Altium Designer,24.2.2 (26)*
G04*
G04 Layer_Color=8388736*
%FSLAX44Y44*%
%MOMM*%
G71*
G04*
G04 #@! TF.SameCoordinates,32683A2E-CEC5-46B4-BDA2-C12D6267EED3*
G04*
G04*
G04 #@! TF.FilePolarity,Negative*
G04*
G01*
G75*
%ADD24R,0.5725X0.6153*%
%ADD26R,0.6153X0.5725*%
%ADD27R,1.1032X1.0032*%
%ADD28R,0.7032X0.8032*%
%ADD29R,0.8532X1.7032*%
%ADD30R,1.6032X0.5032*%
%ADD31R,1.6332X1.1432*%
%ADD32R,0.8832X2.0032*%
%ADD33R,2.0032X0.8832*%
%ADD34R,1.0032X1.1032*%
%ADD35R,0.8032X0.7032*%
%ADD36R,1.7032X0.8532*%
%ADD37C,1.2032*%
%ADD38C,4.2382*%
%ADD39C,1.9812*%
%ADD40C,0.2032*%
%ADD41C,1.7272*%
D24*
X-144780Y184626D02*
D03*
Y176054D02*
D03*
D26*
X-123666Y91440D02*
D03*
X-115094D02*
D03*
D27*
X-39370Y167020D02*
D03*
Y153020D02*
D03*
X178308Y-10780D02*
D03*
Y-24780D02*
D03*
X178308Y9510D02*
D03*
Y23510D02*
D03*
D28*
X-21590Y162480D02*
D03*
Y152480D02*
D03*
X-292100Y215980D02*
D03*
Y225980D02*
D03*
X159258Y-10160D02*
D03*
Y-20160D02*
D03*
X159258Y7700D02*
D03*
Y17700D02*
D03*
X43180Y19224D02*
D03*
Y9224D02*
D03*
X-17018Y-77390D02*
D03*
Y-67390D02*
D03*
X-143510Y160020D02*
D03*
Y150020D02*
D03*
X-170180Y218360D02*
D03*
Y208360D02*
D03*
X-260350Y97870D02*
D03*
Y107870D02*
D03*
X-199390Y97870D02*
D03*
Y107870D02*
D03*
X-177800Y133430D02*
D03*
Y143430D02*
D03*
X-44958Y4144D02*
D03*
Y14144D02*
D03*
X-165608Y18890D02*
D03*
Y8890D02*
D03*
D29*
X-125730Y181940D02*
D03*
X-113030D02*
D03*
X-100330D02*
D03*
X-87630D02*
D03*
Y127940D02*
D03*
X-100330D02*
D03*
X-113030D02*
D03*
X-125730D02*
D03*
D30*
X-251870Y125890D02*
D03*
Y130890D02*
D03*
Y135890D02*
D03*
Y140890D02*
D03*
Y145890D02*
D03*
X-207870D02*
D03*
Y140890D02*
D03*
Y135890D02*
D03*
Y130890D02*
D03*
Y125890D02*
D03*
D31*
X-271780Y212780D02*
D03*
Y229180D02*
D03*
X-241300Y90860D02*
D03*
Y107260D02*
D03*
X-217170Y90860D02*
D03*
Y107260D02*
D03*
D32*
X87376Y28000D02*
D03*
X100076D02*
D03*
X112776D02*
D03*
Y-28000D02*
D03*
X100076D02*
D03*
X87376D02*
D03*
X-112776Y28000D02*
D03*
X-100076D02*
D03*
X-87376D02*
D03*
Y-28000D02*
D03*
X-100076D02*
D03*
X-112776D02*
D03*
D33*
X128076Y19050D02*
D03*
Y6350D02*
D03*
Y-6350D02*
D03*
Y-19050D02*
D03*
X72076D02*
D03*
Y-6350D02*
D03*
Y6350D02*
D03*
Y19050D02*
D03*
X-72076D02*
D03*
Y6350D02*
D03*
Y-6350D02*
D03*
Y-19050D02*
D03*
X-128076D02*
D03*
Y-6350D02*
D03*
Y6350D02*
D03*
Y19050D02*
D03*
D34*
X101488Y-74930D02*
D03*
X87488D02*
D03*
X142128Y74930D02*
D03*
X128128D02*
D03*
X-192420Y166370D02*
D03*
X-178420D02*
D03*
X-192420Y184150D02*
D03*
X-178420D02*
D03*
X-85486Y71374D02*
D03*
X-71486D02*
D03*
X-32116Y31750D02*
D03*
X-46116D02*
D03*
X-88788Y-74676D02*
D03*
X-74788D02*
D03*
X-118984Y-73660D02*
D03*
X-132984D02*
D03*
D35*
X98218Y-55880D02*
D03*
X88218D02*
D03*
X138858Y57150D02*
D03*
X128858D02*
D03*
X-141050Y222250D02*
D03*
X-151050D02*
D03*
X-151050Y208280D02*
D03*
X-141050D02*
D03*
X-224710Y189230D02*
D03*
X-214710D02*
D03*
X-290750Y177800D02*
D03*
X-280750D02*
D03*
X-290750Y162560D02*
D03*
X-280750D02*
D03*
X-290830Y147320D02*
D03*
X-280830D02*
D03*
X-290750Y132080D02*
D03*
X-280750D02*
D03*
X-290670Y116840D02*
D03*
X-280670D02*
D03*
X-161130Y130810D02*
D03*
X-151130D02*
D03*
X-124300Y107950D02*
D03*
X-114300D02*
D03*
X-75010Y104140D02*
D03*
X-85010D02*
D03*
X-75010Y88900D02*
D03*
X-85010D02*
D03*
X-82216Y55626D02*
D03*
X-72216D02*
D03*
X-82978Y-56388D02*
D03*
X-72978D02*
D03*
X-117682Y-55626D02*
D03*
X-127682D02*
D03*
D36*
X-192710Y245110D02*
D03*
Y232410D02*
D03*
Y219710D02*
D03*
Y207010D02*
D03*
X-246710D02*
D03*
Y219710D02*
D03*
Y232410D02*
D03*
Y245110D02*
D03*
D37*
X44196Y221234D02*
D03*
X31496D02*
D03*
X18796D02*
D03*
X6096D02*
D03*
X-6604D02*
D03*
X-19304D02*
D03*
X-32004D02*
D03*
X-44704D02*
D03*
X37846Y246634D02*
D03*
X25146D02*
D03*
X12446D02*
D03*
X-254D02*
D03*
X-12954D02*
D03*
X-25654D02*
D03*
X-38354D02*
D03*
D38*
X90546Y259334D02*
D03*
X-91054D02*
D03*
D39*
X-66040Y189230D02*
D03*
X-163830Y250190D02*
D03*
X-257810Y177800D02*
D03*
X-167640Y95250D02*
D03*
X-115570Y67310D02*
D03*
X245745Y-193040D02*
D03*
X-138430D02*
D03*
X36195D02*
D03*
X1270D02*
D03*
X-103505D02*
D03*
X-278130D02*
D03*
X-208280D02*
D03*
X210820D02*
D03*
X106045D02*
D03*
X140970D02*
D03*
X280670D02*
D03*
X71120D02*
D03*
X-33655D02*
D03*
X-68580D02*
D03*
X-173355D02*
D03*
X175895D02*
D03*
X-243205D02*
D03*
D40*
X245745Y-231140D02*
D03*
X-138430D02*
D03*
X36195D02*
D03*
X1270D02*
D03*
X-103505D02*
D03*
X-278130D02*
D03*
X-208280D02*
D03*
X210820D02*
D03*
X106045D02*
D03*
X140970D02*
D03*
X280670D02*
D03*
X71120D02*
D03*
X-33655D02*
D03*
X-68580D02*
D03*
X-173355D02*
D03*
X175895D02*
D03*
X-243205D02*
D03*
X285750Y285750D02*
D03*
X0Y-285750D02*
D03*
X285750D02*
D03*
X-285750D02*
D03*
X0Y0D02*
D03*
X-285750Y285750D02*
D03*
D41*
X-38100Y114300D02*
D03*
Y88900D02*
D03*
Y63500D02*
D03*
Y-38100D02*
D03*
Y-63500D02*
D03*
Y-88900D02*
D03*
Y-114300D02*
D03*
X38100D02*
D03*
Y-88900D02*
D03*
Y-63500D02*
D03*
Y-38100D02*
D03*
Y63500D02*
D03*
Y88900D02*
D03*
Y114300D02*
D03*
M02*
